<?xml version="1.0" standalone="no"?>
<!--?xml version="1.0" encoding="UTF-8" standalone="no"?-->

<!-- Generated by graphviz version 2.28.0 (20110507.0327)
 -->
<!-- Title: Classes Pages: 1 -->
<svg width="2491pt" height="332pt" viewBox="0.00 0.00 2491.23 332.00" xmlns="http://www.w3.org/2000/svg" xmlns:xlink="http://www.w3.org/1999/xlink">
<g id="graph1" class="graph" transform="scale(1 1) rotate(0) translate(4 328)">
<title>Classes</title>
<polygon fill="white" stroke="white" points="-4,5 -4,-328 2488.23,-328 2488.23,5 -4,5"></polygon>
<!-- obj_TrialLabel_8_0 -->
<g id="node1" class="node"><title>obj_TrialLabel_8_0</title>
<ellipse fill="none" stroke="black" cx="123.233" cy="-162" rx="87.9101" ry="18"></ellipse>
<text text-anchor="middle" x="123.233" y="-157.8" font-family="Times,serif" font-size="14.00">obj_TrialLabel_8_0</text>
</g>
<!-- DialEditBase_3_0 -->
<g id="node3" class="node"><title>DialEditBase_3_0</title>
<ellipse fill="none" stroke="black" cx="413.233" cy="-18" rx="81.2615" ry="18"></ellipse>
<text text-anchor="middle" x="413.233" y="-13.8" font-family="Times,serif" font-size="14.00">DialEditBase_3_0</text>
</g>
<!-- obj_TrialLabel_8_0&#45;&gt;DialEditBase_3_0 -->
<g id="edge2" class="edge"><title>obj_TrialLabel_8_0-&gt;DialEditBase_3_0</title>
<path fill="none" stroke="black" d="M128.576,-143.689C135.792,-123.299 150.661,-89.9371 175.233,-72 217.687,-41.0091 274.948,-27.6128 322.666,-22.0339"></path>
<polygon fill="black" stroke="black" points="323.125,-25.5049 332.695,-20.9586 322.378,-18.5448 323.125,-25.5049"></polygon>
</g>
<!-- DialEditBFctn_4_1 -->
<g id="node5" class="node"><title>DialEditBFctn_4_1</title>
<ellipse fill="none" stroke="black" cx="380.233" cy="-90" rx="86.5173" ry="18"></ellipse>
<text text-anchor="middle" x="380.233" y="-85.8" font-family="Times,serif" font-size="14.00">DialEditBFctn_4_1</text>
</g>
<!-- obj_TrialLabel_8_0&#45;&gt;DialEditBFctn_4_1 -->
<g id="edge4" class="edge"><title>obj_TrialLabel_8_0-&gt;DialEditBFctn_4_1</title>
<path fill="none" stroke="black" d="M174.007,-147.17C216.031,-135.724 275.819,-119.439 320.208,-107.349"></path>
<polygon fill="black" stroke="black" points="321.272,-110.687 330.001,-104.682 319.433,-103.933 321.272,-110.687"></polygon>
</g>
<!-- TVinput_4_2 -->
<g id="node7" class="node"><title>TVinput_4_2</title>
<ellipse fill="none" stroke="black" cx="609.233" cy="-18" rx="63.1109" ry="18"></ellipse>
<text text-anchor="middle" x="609.233" y="-13.8" font-family="Times,serif" font-size="14.00">TVinput_4_2</text>
</g>
<!-- obj_TrialLabel_8_0&#45;&gt;TVinput_4_2 -->
<g id="edge6" class="edge"><title>obj_TrialLabel_8_0-&gt;TVinput_4_2</title>
<path fill="none" stroke="black" d="M141.539,-144.045C165.021,-123.358 207.909,-89.0398 251.233,-72 356.518,-30.5889 391.374,-52.9585 503.233,-36 517.023,-33.9093 531.809,-31.5882 545.83,-29.3501"></path>
<polygon fill="black" stroke="black" points="546.559,-32.778 555.879,-27.7395 545.451,-25.8662 546.559,-32.778"></polygon>
</g>
<!-- DialEditBFctn_4_1&#45;&gt;DialEditBase_3_0 -->
<g id="edge8" class="edge"><title>DialEditBFctn_4_1-&gt;DialEditBase_3_0</title>
<path fill="none" stroke="black" d="M388.221,-72.055C391.975,-64.0915 396.539,-54.4107 400.735,-45.5097"></path>
<polygon fill="black" stroke="black" points="403.99,-46.8131 405.088,-36.2753 397.658,-43.8281 403.99,-46.8131"></polygon>
</g>
<!-- DialEditBFctn_4_1&#45;&gt;TVinput_4_2 -->
<g id="edge130" class="edge"><title>DialEditBFctn_4_1-&gt;TVinput_4_2</title>
<path fill="none" stroke="black" stroke-dasharray="1,5" d="M426.85,-74.7501C464.946,-63.105 518.733,-46.6635 558.023,-34.6535"></path>
<polygon fill="black" stroke="black" points="559.141,-37.9716 567.681,-31.7012 557.095,-31.2774 559.141,-37.9716"></polygon>
</g>
<!-- obj_TrialStaticText_12_0 -->
<g id="node9" class="node"><title>obj_TrialStaticText_12_0</title>
<ellipse fill="none" stroke="black" cx="743.233" cy="-234" rx="110.212" ry="18"></ellipse>
<text text-anchor="middle" x="743.233" y="-229.8" font-family="Times,serif" font-size="14.00">obj_TrialStaticText_12_0</text>
</g>
<!-- obj_TrialStaticText_12_0&#45;&gt;DialEditBase_3_0 -->
<g id="edge10" class="edge"><title>obj_TrialStaticText_12_0-&gt;DialEditBase_3_0</title>
<path fill="none" stroke="black" d="M743.95,-215.803C743.835,-196.143 740.672,-164.093 723.233,-144 693.637,-109.9 670.208,-124.637 628.233,-108 569.4,-84.6822 502.063,-56.5757 458.659,-38.2726"></path>
<polygon fill="black" stroke="black" points="459.81,-34.9593 449.236,-34.2943 457.087,-41.4082 459.81,-34.9593"></polygon>
</g>
<!-- obj_TrialStaticText_12_0&#45;&gt;DialEditBFctn_4_1 -->
<g id="edge12" class="edge"><title>obj_TrialStaticText_12_0-&gt;DialEditBFctn_4_1</title>
<path fill="none" stroke="black" d="M648.351,-224.764C598.215,-217.662 536.77,-204.469 486.233,-180 453.439,-164.122 422.306,-135.83 402.371,-115.4"></path>
<polygon fill="black" stroke="black" points="404.737,-112.811 395.299,-107.997 399.676,-117.646 404.737,-112.811"></polygon>
</g>
<!-- obj_TrialStaticText_12_0&#45;&gt;TVinput_4_2 -->
<g id="edge16" class="edge"><title>obj_TrialStaticText_12_0-&gt;TVinput_4_2</title>
<path fill="none" stroke="black" d="M766.075,-216.257C804.803,-185.861 875.58,-120.283 837.233,-72 817.611,-47.2944 737.919,-33.0608 678.242,-25.6846"></path>
<polygon fill="black" stroke="black" points="678.446,-22.1842 668.101,-24.4726 677.615,-29.1347 678.446,-22.1842"></polygon>
</g>
<!-- Obj_EditControlDlg_8_0 -->
<g id="node13" class="node"><title>Obj_EditControlDlg_8_0</title>
<ellipse fill="none" stroke="black" cx="605.233" cy="-162" rx="109.623" ry="18"></ellipse>
<text text-anchor="middle" x="605.233" y="-157.8" font-family="Times,serif" font-size="14.00">Obj_EditControlDlg_8_0</text>
</g>
<!-- obj_TrialStaticText_12_0&#45;&gt;Obj_EditControlDlg_8_0 -->
<g id="edge14" class="edge"><title>obj_TrialStaticText_12_0-&gt;Obj_EditControlDlg_8_0</title>
<path fill="none" stroke="black" d="M711.226,-216.765C692.03,-207.028 667.412,-194.541 646.734,-184.051"></path>
<polygon fill="black" stroke="black" points="648.045,-180.792 637.544,-179.39 644.879,-187.035 648.045,-180.792"></polygon>
</g>
<!-- dialeditDefaults_11_0 -->
<g id="node16" class="node"><title>dialeditDefaults_11_0</title>
<ellipse fill="none" stroke="black" cx="1158.23" cy="-162" rx="96.2832" ry="18"></ellipse>
<text text-anchor="middle" x="1158.23" y="-157.8" font-family="Times,serif" font-size="14.00">dialeditDefaults_11_0</text>
</g>
<!-- obj_TrialStaticText_12_0&#45;&gt;dialeditDefaults_11_0 -->
<g id="edge18" class="edge"><title>obj_TrialStaticText_12_0-&gt;dialeditDefaults_11_0</title>
<path fill="none" stroke="black" d="M816.948,-220.566C890.731,-208.121 1003.86,-189.039 1079.4,-176.297"></path>
<polygon fill="black" stroke="black" points="1080.06,-179.735 1089.34,-174.621 1078.9,-172.833 1080.06,-179.735"></polygon>
</g>
<!-- str_statictextdata_3_0 -->
<g id="node18" class="node"><title>str_statictextdata_3_0</title>
<ellipse fill="none" stroke="black" cx="733.233" cy="-90" rx="95.1729" ry="18"></ellipse>
<text text-anchor="middle" x="733.233" y="-85.8" font-family="Times,serif" font-size="14.00">str_statictextdata_3_0</text>
</g>
<!-- obj_TrialStaticText_12_0&#45;&gt;str_statictextdata_3_0 -->
<g id="edge20" class="edge"><title>obj_TrialStaticText_12_0-&gt;str_statictextdata_3_0</title>
<path fill="none" stroke="black" d="M749.672,-215.832C755.553,-197.83 762.579,-168.769 757.233,-144 755.272,-134.916 751.621,-125.517 747.747,-117.201"></path>
<polygon fill="black" stroke="black" points="750.77,-115.42 743.186,-108.022 744.502,-118.534 750.77,-115.42"></polygon>
</g>
<!-- Obj_EditControlDlg_8_0&#45;&gt;DialEditBase_3_0 -->
<g id="edge24" class="edge"><title>Obj_EditControlDlg_8_0-&gt;DialEditBase_3_0</title>
<path fill="none" stroke="black" d="M576.279,-144.589C559.269,-134.599 537.575,-121.244 519.233,-108 511.175,-102.182 469.259,-66.7116 440.614,-42.3459"></path>
<polygon fill="black" stroke="black" points="442.809,-39.6183 432.926,-35.8019 438.272,-44.9488 442.809,-39.6183"></polygon>
</g>
<!-- Obj_EditControlDlg_8_0&#45;&gt;TVinput_4_2 -->
<g id="edge22" class="edge"><title>Obj_EditControlDlg_8_0-&gt;TVinput_4_2</title>
<path fill="none" stroke="black" d="M605.715,-143.871C606.397,-119.67 607.649,-75.2108 608.461,-46.3932"></path>
<polygon fill="black" stroke="black" points="611.965,-46.2839 608.748,-36.1893 604.968,-46.0867 611.965,-46.2839"></polygon>
</g>
<!-- dialeditDefaults_11_0&#45;&gt;DialEditBase_3_0 -->
<g id="edge26" class="edge"><title>dialeditDefaults_11_0-&gt;DialEditBase_3_0</title>
<path fill="none" stroke="black" d="M1159.07,-143.798C1159.03,-123.191 1155.45,-89.2884 1134.23,-72 1082.72,-30.0175 603.366,-42.5178 537.233,-36 521.534,-34.4528 504.767,-32.416 488.8,-30.2917"></path>
<polygon fill="black" stroke="black" points="488.822,-26.7627 478.442,-28.8873 487.881,-33.6992 488.822,-26.7627"></polygon>
</g>
<!-- dialeditDefaults_11_0&#45;&gt;str_statictextdata_3_0 -->
<g id="edge30" class="edge"><title>dialeditDefaults_11_0-&gt;str_statictextdata_3_0</title>
<path fill="none" stroke="black" d="M1088.53,-149.519C1012.76,-137.04 891.918,-117.136 812.569,-104.067"></path>
<polygon fill="black" stroke="black" points="813.058,-100.601 802.622,-102.429 811.92,-107.508 813.058,-100.601"></polygon>
</g>
<!-- Str_DialogData_4_0 -->
<g id="node23" class="node"><title>Str_DialogData_4_0</title>
<ellipse fill="none" stroke="black" cx="1272.23" cy="-90" rx="90.4349" ry="18"></ellipse>
<text text-anchor="middle" x="1272.23" y="-85.8" font-family="Times,serif" font-size="14.00">Str_DialogData_4_0</text>
</g>
<!-- dialeditDefaults_11_0&#45;&gt;Str_DialogData_4_0 -->
<g id="edge28" class="edge"><title>dialeditDefaults_11_0-&gt;Str_DialogData_4_0</title>
<path fill="none" stroke="black" d="M1184.96,-144.588C1200.4,-135.109 1220.01,-123.068 1236.73,-112.802"></path>
<polygon fill="black" stroke="black" points="1238.98,-115.524 1245.67,-107.309 1235.32,-109.559 1238.98,-115.524"></polygon>
</g>
<!-- str_InputLineData_4_0 -->
<g id="node26" class="node"><title>str_InputLineData_4_0</title>
<ellipse fill="none" stroke="black" cx="1024.23" cy="-90" rx="101.215" ry="18"></ellipse>
<text text-anchor="middle" x="1024.23" y="-85.8" font-family="Times,serif" font-size="14.00">str_InputLineData_4_0</text>
</g>
<!-- dialeditDefaults_11_0&#45;&gt;str_InputLineData_4_0 -->
<g id="edge32" class="edge"><title>dialeditDefaults_11_0-&gt;str_InputLineData_4_0</title>
<path fill="none" stroke="black" d="M1127.15,-144.765C1108.38,-134.958 1084.27,-122.361 1064.1,-111.825"></path>
<polygon fill="black" stroke="black" points="1065.63,-108.675 1055.14,-107.147 1062.39,-114.88 1065.63,-108.675"></polygon>
</g>
<!-- str_ParamTextData_3_0 -->
<g id="node28" class="node"><title>str_ParamTextData_3_0</title>
<ellipse fill="none" stroke="black" cx="2167.23" cy="-90" rx="105.143" ry="18"></ellipse>
<text text-anchor="middle" x="2167.23" y="-85.8" font-family="Times,serif" font-size="14.00">str_ParamTextData_3_0</text>
</g>
<!-- dialeditDefaults_11_0&#45;&gt;str_ParamTextData_3_0 -->
<g id="edge34" class="edge"><title>dialeditDefaults_11_0-&gt;str_ParamTextData_3_0</title>
<path fill="none" stroke="black" d="M1249.18,-155.848C1400.38,-147.117 1712.99,-128.368 1977.23,-108 2006.47,-105.746 2038.22,-103.017 2067.24,-100.412"></path>
<polygon fill="black" stroke="black" points="2067.74,-103.881 2077.38,-99.4961 2067.11,-96.9093 2067.74,-103.881"></polygon>
</g>
<!-- str_ButtonData_3_0 -->
<g id="node30" class="node"><title>str_ButtonData_3_0</title>
<ellipse fill="none" stroke="black" cx="1470.23" cy="-90" rx="89.032" ry="18"></ellipse>
<text text-anchor="middle" x="1470.23" y="-85.8" font-family="Times,serif" font-size="14.00">str_ButtonData_3_0</text>
</g>
<!-- dialeditDefaults_11_0&#45;&gt;str_ButtonData_3_0 -->
<g id="edge36" class="edge"><title>dialeditDefaults_11_0-&gt;str_ButtonData_3_0</title>
<path fill="none" stroke="black" d="M1217.28,-147.751C1270.17,-135.885 1347.69,-118.494 1402.95,-106.095"></path>
<polygon fill="black" stroke="black" points="1404.01,-109.444 1413,-103.84 1402.48,-102.614 1404.01,-109.444"></polygon>
</g>
<!-- str_ListBoxData_3_0 -->
<g id="node32" class="node"><title>str_ListBoxData_3_0</title>
<ellipse fill="none" stroke="black" cx="1672.23" cy="-90" rx="94.2715" ry="18"></ellipse>
<text text-anchor="middle" x="1672.23" y="-85.8" font-family="Times,serif" font-size="14.00">str_ListBoxData_3_0</text>
</g>
<!-- dialeditDefaults_11_0&#45;&gt;str_ListBoxData_3_0 -->
<g id="edge38" class="edge"><title>dialeditDefaults_11_0-&gt;str_ListBoxData_3_0</title>
<path fill="none" stroke="black" d="M1237.32,-151.573C1319.97,-141.535 1453.36,-124.808 1568.23,-108 1576.56,-106.782 1585.25,-105.452 1593.91,-104.091"></path>
<polygon fill="black" stroke="black" points="1594.71,-107.508 1604.03,-102.483 1593.61,-100.595 1594.71,-107.508"></polygon>
</g>
<!-- str_OutOptData_3_0 -->
<g id="node34" class="node"><title>str_OutOptData_3_0</title>
<ellipse fill="none" stroke="black" cx="1876.23" cy="-90" rx="92.0425" ry="18"></ellipse>
<text text-anchor="middle" x="1876.23" y="-85.8" font-family="Times,serif" font-size="14.00">str_OutOptData_3_0</text>
</g>
<!-- dialeditDefaults_11_0&#45;&gt;str_OutOptData_3_0 -->
<g id="edge40" class="edge"><title>dialeditDefaults_11_0-&gt;str_OutOptData_3_0</title>
<path fill="none" stroke="black" d="M1248.39,-155.553C1368.79,-147.755 1588.58,-131.685 1775.23,-108 1783.6,-106.938 1792.34,-105.686 1801.01,-104.351"></path>
<polygon fill="black" stroke="black" points="1801.82,-107.767 1811.15,-102.751 1800.73,-100.853 1801.82,-107.767"></polygon>
</g>
<!-- obj_TrialParamText_13_0 -->
<g id="node35" class="node"><title>obj_TrialParamText_13_0</title>
<ellipse fill="none" stroke="black" cx="1303.23" cy="-234" rx="113.225" ry="18"></ellipse>
<text text-anchor="middle" x="1303.23" y="-229.8" font-family="Times,serif" font-size="14.00">obj_TrialParamText_13_0</text>
</g>
<!-- obj_TrialParamText_13_0&#45;&gt;DialEditBase_3_0 -->
<g id="edge42" class="edge"><title>obj_TrialParamText_13_0-&gt;DialEditBase_3_0</title>
<path fill="none" stroke="black" d="M1402.58,-225.219C1609.45,-207.197 2060.6,-157.48 1977.23,-72 1949.3,-43.3555 577.115,-39.2224 537.233,-36 521.09,-34.6958 503.837,-32.71 487.487,-30.5501"></path>
<polygon fill="black" stroke="black" points="487.822,-27.0636 477.442,-29.1873 486.881,-34 487.822,-27.0636"></polygon>
</g>
<!-- obj_TrialParamText_13_0&#45;&gt;DialEditBFctn_4_1 -->
<g id="edge44" class="edge"><title>obj_TrialParamText_13_0-&gt;DialEditBFctn_4_1</title>
<path fill="none" stroke="black" d="M1235.37,-219.584C1140.18,-201.042 961.464,-167.245 808.233,-144 689.495,-125.988 551.527,-109.74 465.04,-100.118"></path>
<polygon fill="black" stroke="black" points="465.338,-96.6292 455.014,-99.006 464.567,-103.587 465.338,-96.6292"></polygon>
</g>
<!-- obj_TrialParamText_13_0&#45;&gt;TVinput_4_2 -->
<g id="edge48" class="edge"><title>obj_TrialParamText_13_0-&gt;TVinput_4_2</title>
<path fill="none" stroke="black" d="M1415.47,-231.527C1697.42,-225.928 2404.45,-199.181 2281.23,-72 2253.01,-42.8695 1000.22,-24.2133 682.088,-19.9399"></path>
<polygon fill="black" stroke="black" points="682.104,-16.4398 672.058,-19.8057 682.01,-23.4392 682.104,-16.4398"></polygon>
</g>
<!-- obj_TrialParamText_13_0&#45;&gt;Obj_EditControlDlg_8_0 -->
<g id="edge46" class="edge"><title>obj_TrialParamText_13_0-&gt;Obj_EditControlDlg_8_0</title>
<path fill="none" stroke="black" d="M1212.14,-223.272C1189.32,-220.865 1164.88,-218.313 1142.23,-216 990.78,-200.53 815.217,-183.344 707.185,-172.854"></path>
<polygon fill="black" stroke="black" points="707.236,-169.342 696.944,-171.86 706.559,-176.309 707.236,-169.342"></polygon>
</g>
<!-- obj_TrialParamText_13_0&#45;&gt;dialeditDefaults_11_0 -->
<g id="edge50" class="edge"><title>obj_TrialParamText_13_0-&gt;dialeditDefaults_11_0</title>
<path fill="none" stroke="black" d="M1269.6,-216.765C1249.11,-206.87 1222.72,-194.134 1200.78,-183.541"></path>
<polygon fill="black" stroke="black" points="1202.21,-180.343 1191.68,-179.147 1199.16,-186.647 1202.21,-180.343"></polygon>
</g>
<!-- obj_TrialParamText_13_0&#45;&gt;str_ParamTextData_3_0 -->
<g id="edge52" class="edge"><title>obj_TrialParamText_13_0-&gt;str_ParamTextData_3_0</title>
<path fill="none" stroke="black" d="M1416.34,-232.704C1595.45,-230.939 1935.61,-221.954 2048.23,-180 2085.65,-166.063 2121.31,-136.453 2143.67,-115.212"></path>
<polygon fill="black" stroke="black" points="2146.27,-117.565 2151.01,-108.087 2141.39,-112.544 2146.27,-117.565"></polygon>
</g>
<!-- obj_trialbutton_13_0 -->
<g id="node42" class="node"><title>obj_trialbutton_13_0</title>
<ellipse fill="none" stroke="black" cx="1041.23" cy="-234" rx="92.3723" ry="18"></ellipse>
<text text-anchor="middle" x="1041.23" y="-229.8" font-family="Times,serif" font-size="14.00">obj_trialbutton_13_0</text>
</g>
<!-- obj_trialbutton_13_0&#45;&gt;DialEditBase_3_0 -->
<g id="edge54" class="edge"><title>obj_trialbutton_13_0-&gt;DialEditBase_3_0</title>
<path fill="none" stroke="black" d="M1026.32,-216.205C995.093,-182.28 918.895,-105.929 837.233,-72 713.22,-20.4754 670.427,-53.1207 537.233,-36 522.028,-34.0457 505.787,-31.8775 490.235,-29.7617"></path>
<polygon fill="black" stroke="black" points="490.515,-26.2674 480.133,-28.3817 489.567,-33.203 490.515,-26.2674"></polygon>
</g>
<!-- obj_trialbutton_13_0&#45;&gt;DialEditBFctn_4_1 -->
<g id="edge56" class="edge"><title>obj_trialbutton_13_0-&gt;DialEditBFctn_4_1</title>
<path fill="none" stroke="black" d="M995.321,-218.281C933.886,-199.017 821.29,-165.218 723.233,-144 635.246,-124.961 533.135,-110.093 463.353,-101.012"></path>
<polygon fill="black" stroke="black" points="463.663,-97.5233 453.297,-99.7146 462.767,-104.466 463.663,-97.5233"></polygon>
</g>
<!-- obj_trialbutton_13_0&#45;&gt;TVinput_4_2 -->
<g id="edge60" class="edge"><title>obj_trialbutton_13_0-&gt;TVinput_4_2</title>
<path fill="none" stroke="black" d="M1116.78,-223.574C1338.12,-195.871 1970.11,-116.139 1977.23,-108 1987.77,-95.9607 1988.33,-83.5306 1977.23,-72 1932.06,-25.0451 960.353,-19.6441 682.712,-19.0604"></path>
<polygon fill="black" stroke="black" points="682.357,-15.5598 672.35,-19.0402 682.343,-22.5598 682.357,-15.5598"></polygon>
</g>
<!-- obj_trialbutton_13_0&#45;&gt;Obj_EditControlDlg_8_0 -->
<g id="edge58" class="edge"><title>obj_trialbutton_13_0-&gt;Obj_EditControlDlg_8_0</title>
<path fill="none" stroke="black" d="M972.147,-221.908C895.85,-209.659 772.938,-189.925 690.655,-176.715"></path>
<polygon fill="black" stroke="black" points="691.006,-173.226 680.577,-175.097 689.896,-180.138 691.006,-173.226"></polygon>
</g>
<!-- obj_trialbutton_13_0&#45;&gt;dialeditDefaults_11_0 -->
<g id="edge62" class="edge"><title>obj_trialbutton_13_0-&gt;dialeditDefaults_11_0</title>
<path fill="none" stroke="black" d="M1068.37,-216.765C1084.35,-207.203 1104.76,-194.99 1122.1,-184.62"></path>
<polygon fill="black" stroke="black" points="1124.05,-187.527 1130.84,-179.39 1120.46,-181.521 1124.05,-187.527"></polygon>
</g>
<!-- obj_trialbutton_13_0&#45;&gt;str_ButtonData_3_0 -->
<g id="edge64" class="edge"><title>obj_trialbutton_13_0-&gt;str_ButtonData_3_0</title>
<path fill="none" stroke="black" d="M1104.72,-220.871C1149.56,-211.574 1210.77,-197.399 1263.23,-180 1322.14,-160.466 1387.53,-130.964 1428.75,-111.35"></path>
<polygon fill="black" stroke="black" points="1430.42,-114.431 1437.92,-106.956 1427.39,-108.118 1430.42,-114.431"></polygon>
</g>
<!-- obj_TrialInputLine_14_0 -->
<g id="node49" class="node"><title>obj_TrialInputLine_14_0</title>
<ellipse fill="none" stroke="black" cx="467.233" cy="-234" rx="109.298" ry="18"></ellipse>
<text text-anchor="middle" x="467.233" y="-229.8" font-family="Times,serif" font-size="14.00">obj_TrialInputLine_14_0</text>
</g>
<!-- obj_TrialInputLine_14_0&#45;&gt;obj_TrialLabel_8_0 -->
<g id="edge76" class="edge"><title>obj_TrialInputLine_14_0-&gt;obj_TrialLabel_8_0</title>
<path fill="none" stroke="black" d="M401.313,-219.586C341.622,-207.44 253.966,-189.603 193.084,-177.214"></path>
<polygon fill="black" stroke="black" points="193.672,-173.762 183.175,-175.198 192.276,-180.621 193.672,-173.762"></polygon>
</g>
<!-- obj_TrialInputLine_14_0&#45;&gt;DialEditBase_3_0 -->
<g id="edge66" class="edge"><title>obj_TrialInputLine_14_0-&gt;DialEditBase_3_0</title>
<path fill="none" stroke="black" d="M421.239,-217.648C375.856,-199.597 309.687,-164.684 284.233,-108 277.678,-93.4042 275.324,-85.2907 284.233,-72 297.208,-52.6405 318.664,-40.3465 340.388,-32.5416"></path>
<polygon fill="black" stroke="black" points="341.623,-35.8197 350.023,-29.3632 339.43,-29.1721 341.623,-35.8197"></polygon>
</g>
<!-- obj_TrialInputLine_14_0&#45;&gt;DialEditBFctn_4_1 -->
<g id="edge68" class="edge"><title>obj_TrialInputLine_14_0-&gt;DialEditBFctn_4_1</title>
<path fill="none" stroke="black" d="M421.989,-217.617C404.813,-209.315 387.041,-197.159 377.233,-180 366.536,-161.288 368.38,-136.561 372.277,-117.921"></path>
<polygon fill="black" stroke="black" points="375.727,-118.545 374.658,-108.004 368.92,-116.911 375.727,-118.545"></polygon>
</g>
<!-- obj_TrialInputLine_14_0&#45;&gt;TVinput_4_2 -->
<g id="edge72" class="edge"><title>obj_TrialInputLine_14_0-&gt;TVinput_4_2</title>
<path fill="none" stroke="black" d="M462.256,-215.709C457.872,-197.093 453.671,-167.05 464.233,-144 485.966,-96.5701 535.564,-60.308 570.684,-39.3508"></path>
<polygon fill="black" stroke="black" points="572.832,-42.1508 579.722,-34.1021 569.316,-36.0975 572.832,-42.1508"></polygon>
</g>
<!-- obj_TrialInputLine_14_0&#45;&gt;Obj_EditControlDlg_8_0 -->
<g id="edge70" class="edge"><title>obj_TrialInputLine_14_0-&gt;Obj_EditControlDlg_8_0</title>
<path fill="none" stroke="black" d="M499.239,-216.765C518.435,-207.028 543.053,-194.541 563.731,-184.051"></path>
<polygon fill="black" stroke="black" points="565.586,-187.035 572.921,-179.39 562.42,-180.792 565.586,-187.035"></polygon>
</g>
<!-- obj_TrialInputLine_14_0&#45;&gt;dialeditDefaults_11_0 -->
<g id="edge74" class="edge"><title>obj_TrialInputLine_14_0-&gt;dialeditDefaults_11_0</title>
<path fill="none" stroke="black" d="M555.083,-223.274C577.314,-220.855 601.148,-218.297 623.233,-216 777.695,-199.933 957.368,-182.363 1064.23,-172.031"></path>
<polygon fill="black" stroke="black" points="1064.73,-175.499 1074.35,-171.054 1064.06,-168.532 1064.73,-175.499"></polygon>
</g>
<!-- obj_TrialInputLine_14_0&#45;&gt;str_InputLineData_4_0 -->
<g id="edge78" class="edge"><title>obj_TrialInputLine_14_0-&gt;str_InputLineData_4_0</title>
<path fill="none" stroke="black" d="M465.444,-215.676C464.398,-195.273 466.206,-161.898 486.233,-144 490.297,-140.368 772.023,-114.075 926.106,-99.9388"></path>
<polygon fill="black" stroke="black" points="926.881,-103.382 936.52,-98.984 926.242,-96.4117 926.881,-103.382"></polygon>
</g>
<!-- obj_DialEditApp_31_0 -->
<g id="node57" class="node"><title>obj_DialEditApp_31_0</title>
<ellipse fill="none" stroke="black" cx="1041.23" cy="-306" rx="101.545" ry="18"></ellipse>
<text text-anchor="middle" x="1041.23" y="-301.8" font-family="Times,serif" font-size="14.00">obj_DialEditApp_31_0</text>
</g>
<!-- obj_DialEditApp_31_0&#45;&gt;obj_TrialLabel_8_0 -->
<g id="edge84" class="edge"><title>obj_DialEditApp_31_0-&gt;obj_TrialLabel_8_0</title>
<path fill="none" stroke="black" d="M941.363,-302.593C711.459,-296.591 162.189,-279.445 133.233,-252 116.97,-236.587 115.848,-210.326 117.973,-190.313"></path>
<polygon fill="black" stroke="black" points="121.465,-190.612 119.365,-180.228 114.531,-189.655 121.465,-190.612"></polygon>
</g>
<!-- obj_DialEditApp_31_0&#45;&gt;DialEditBase_3_0 -->
<g id="edge86" class="edge"><title>obj_DialEditApp_31_0-&gt;DialEditBase_3_0</title>
<path fill="none" stroke="black" d="M939.73,-305.636C700.868,-306.283 117.914,-302.593 46.2325,-252 -19.1636,-205.843 -12.6121,-118.929 52.2325,-72 94.3992,-41.4836 231.196,-28.3059 323.751,-22.7816"></path>
<polygon fill="black" stroke="black" points="324.184,-26.2625 333.966,-22.192 323.781,-19.2741 324.184,-26.2625"></polygon>
</g>
<!-- obj_DialEditApp_31_0&#45;&gt;DialEditBFctn_4_1 -->
<g id="edge88" class="edge"><title>obj_DialEditApp_31_0-&gt;DialEditBFctn_4_1</title>
<path fill="none" stroke="black" d="M941.288,-302.773C717.476,-297.286 189.665,-281.381 114.233,-252 67.1443,-233.659 47.8727,-225.666 26.2325,-180 19.3808,-165.541 15.7899,-156.122 26.2325,-144 58.9083,-106.068 190.691,-94.8892 283.878,-91.8132"></path>
<polygon fill="black" stroke="black" points="284.015,-95.3108 293.904,-91.5083 283.802,-88.314 284.015,-95.3108"></polygon>
</g>
<!-- obj_DialEditApp_31_0&#45;&gt;TVinput_4_2 -->
<g id="edge80" class="edge"><title>obj_DialEditApp_31_0-&gt;TVinput_4_2</title>
<path fill="none" stroke="black" d="M1140.44,-302.219C1465.57,-291.419 2468.84,-243.907 2302.23,-72 2273.63,-42.4851 1003.03,-24.0913 682.203,-19.912"></path>
<polygon fill="black" stroke="black" points="682.135,-16.4109 672.09,-19.7809 682.044,-23.4103 682.135,-16.4109"></polygon>
</g>
<!-- obj_DialEditApp_31_0&#45;&gt;obj_TrialStaticText_12_0 -->
<g id="edge90" class="edge"><title>obj_DialEditApp_31_0-&gt;obj_TrialStaticText_12_0</title>
<path fill="none" stroke="black" d="M982.713,-291.254C934.065,-279.826 864.707,-263.534 813.144,-251.422"></path>
<polygon fill="black" stroke="black" points="813.941,-248.014 803.406,-249.135 812.341,-254.829 813.941,-248.014"></polygon>
</g>
<!-- obj_DialEditApp_31_0&#45;&gt;Obj_EditControlDlg_8_0 -->
<g id="edge92" class="edge"><title>obj_DialEditApp_31_0-&gt;Obj_EditControlDlg_8_0</title>
<path fill="none" stroke="black" d="M939.552,-305.286C830.754,-303.373 667.778,-293.389 623.233,-252 606.591,-236.537 602.981,-210.283 603.005,-190.285"></path>
<polygon fill="black" stroke="black" points="606.505,-190.311 603.315,-180.208 599.509,-190.095 606.505,-190.311"></polygon>
</g>
<!-- obj_DialEditApp_31_0&#45;&gt;dialeditDefaults_11_0 -->
<g id="edge94" class="edge"><title>obj_DialEditApp_31_0-&gt;dialeditDefaults_11_0</title>
<path fill="none" stroke="black" d="M1089.75,-290.087C1108.89,-281.822 1129.35,-269.566 1142.23,-252 1155.25,-234.244 1158.81,-209.229 1159.36,-190.24"></path>
<polygon fill="black" stroke="black" points="1162.86,-190.137 1159.4,-180.125 1155.86,-190.113 1162.86,-190.137"></polygon>
</g>
<!-- obj_DialEditApp_31_0&#45;&gt;str_statictextdata_3_0 -->
<g id="edge96" class="edge"><title>obj_DialEditApp_31_0-&gt;str_statictextdata_3_0</title>
<path fill="none" stroke="black" d="M1001.14,-289.364C978.677,-279.872 950.567,-266.758 927.233,-252 861.204,-210.239 792.935,-148.44 757.652,-114.85"></path>
<polygon fill="black" stroke="black" points="759.869,-112.127 750.228,-107.734 755.025,-117.181 759.869,-112.127"></polygon>
</g>
<!-- obj_DialEditApp_31_0&#45;&gt;Str_DialogData_4_0 -->
<g id="edge100" class="edge"><title>obj_DialEditApp_31_0-&gt;Str_DialogData_4_0</title>
<path fill="none" stroke="black" d="M1142.64,-305.461C1243.82,-303.499 1389.25,-293.287 1425.23,-252 1470.8,-199.71 1376.8,-141.415 1316.86,-111.37"></path>
<polygon fill="black" stroke="black" points="1318.08,-108.069 1307.56,-106.796 1314.99,-114.35 1318.08,-108.069"></polygon>
</g>
<!-- obj_DialEditApp_31_0&#45;&gt;str_InputLineData_4_0 -->
<g id="edge98" class="edge"><title>obj_DialEditApp_31_0-&gt;str_InputLineData_4_0</title>
<path fill="none" stroke="black" d="M988.791,-290.471C969.771,-282.39 950.265,-270.166 939.233,-252 910.403,-204.531 961.193,-146.377 995.887,-114.568"></path>
<polygon fill="black" stroke="black" points="998.316,-117.092 1003.44,-107.819 993.652,-111.872 998.316,-117.092"></polygon>
</g>
<!-- obj_DialEditApp_31_0&#45;&gt;str_ParamTextData_3_0 -->
<g id="edge102" class="edge"><title>obj_DialEditApp_31_0-&gt;str_ParamTextData_3_0</title>
<path fill="none" stroke="black" d="M1138.19,-300.503C1247,-294.301 1428.42,-280.483 1582.23,-252 1780.66,-215.255 2009.7,-143.347 2112.42,-109.478"></path>
<polygon fill="black" stroke="black" points="2113.57,-112.786 2121.97,-106.322 2111.37,-106.14 2113.57,-112.786"></polygon>
</g>
<!-- obj_DialEditApp_31_0&#45;&gt;str_ButtonData_3_0 -->
<g id="edge104" class="edge"><title>obj_DialEditApp_31_0-&gt;str_ButtonData_3_0</title>
<path fill="none" stroke="black" d="M1142.55,-305.211C1248.32,-303.163 1404.5,-292.997 1446.23,-252 1481.68,-217.182 1479.76,-154.252 1475.08,-118.245"></path>
<polygon fill="black" stroke="black" points="1478.49,-117.382 1473.57,-107.996 1471.56,-118.398 1478.49,-117.382"></polygon>
</g>
<!-- obj_DialEditApp_31_0&#45;&gt;str_ListBoxData_3_0 -->
<g id="edge106" class="edge"><title>obj_DialEditApp_31_0-&gt;str_ListBoxData_3_0</title>
<path fill="none" stroke="black" d="M1135.69,-299.385C1243.53,-291.926 1412.58,-276.729 1471.23,-252 1546.11,-220.43 1615.98,-152.533 1650.21,-115.805"></path>
<polygon fill="black" stroke="black" points="1653.16,-117.767 1657.36,-108.036 1648.01,-113.03 1653.16,-117.767"></polygon>
</g>
<!-- obj_DialEditApp_31_0&#45;&gt;str_OutOptData_3_0 -->
<g id="edge108" class="edge"><title>obj_DialEditApp_31_0-&gt;str_OutOptData_3_0</title>
<path fill="none" stroke="black" d="M1141.15,-302.788C1238.44,-298.559 1389.73,-286.442 1516.23,-252 1639.96,-218.313 1775.33,-147.744 1839.09,-112.289"></path>
<polygon fill="black" stroke="black" points="1840.95,-115.259 1847.97,-107.321 1837.53,-109.15 1840.95,-115.259"></polygon>
</g>
<!-- obj_DialEditApp_31_0&#45;&gt;obj_TrialParamText_13_0 -->
<g id="edge110" class="edge"><title>obj_DialEditApp_31_0-&gt;obj_TrialParamText_13_0</title>
<path fill="none" stroke="black" d="M1094.88,-290.666C1136.36,-279.584 1193.95,-264.196 1238.08,-252.407"></path>
<polygon fill="black" stroke="black" points="1239.09,-255.76 1247.85,-249.798 1237.28,-248.998 1239.09,-255.76"></polygon>
</g>
<!-- obj_DialEditApp_31_0&#45;&gt;obj_trialbutton_13_0 -->
<g id="edge112" class="edge"><title>obj_DialEditApp_31_0-&gt;obj_trialbutton_13_0</title>
<path fill="none" stroke="black" d="M1041.23,-287.697C1041.23,-279.983 1041.23,-270.712 1041.23,-262.112"></path>
<polygon fill="black" stroke="black" points="1044.73,-262.104 1041.23,-252.104 1037.73,-262.104 1044.73,-262.104"></polygon>
</g>
<!-- obj_DialEditApp_31_0&#45;&gt;obj_TrialInputLine_14_0 -->
<g id="edge114" class="edge"><title>obj_DialEditApp_31_0-&gt;obj_TrialInputLine_14_0</title>
<path fill="none" stroke="black" d="M957.633,-295.691C867.048,-285.484 718.286,-268.372 590.233,-252 579.591,-250.639 568.439,-249.165 557.376,-247.674"></path>
<polygon fill="black" stroke="black" points="557.639,-244.177 547.26,-246.301 556.698,-251.114 557.639,-244.177"></polygon>
</g>
<!-- Params_1_0 -->
<g id="node60" class="node"><title>Params_1_0</title>
<ellipse fill="none" stroke="black" cx="2425.23" cy="-234" rx="58.1643" ry="18"></ellipse>
<text text-anchor="middle" x="2425.23" y="-229.8" font-family="Times,serif" font-size="14.00">Params_1_0</text>
</g>
<!-- obj_DialEditApp_31_0&#45;&gt;Params_1_0 -->
<g id="edge82" class="edge"><title>obj_DialEditApp_31_0-&gt;Params_1_0</title>
<path fill="none" stroke="black" d="M1141.74,-303.387C1406.49,-298.746 2118.74,-283.619 2352.23,-252 2358.9,-251.097 2365.86,-249.864 2372.71,-248.472"></path>
<polygon fill="black" stroke="black" points="2373.59,-251.863 2382.64,-246.339 2372.12,-245.019 2373.59,-251.863"></polygon>
</g>
<!-- obj_TrialCluster_13_0 -->
<g id="node78" class="node"><title>obj_TrialCluster_13_0</title>
<ellipse fill="none" stroke="black" cx="241.233" cy="-234" rx="99.014" ry="18"></ellipse>
<text text-anchor="middle" x="241.233" y="-229.8" font-family="Times,serif" font-size="14.00">obj_TrialCluster_13_0</text>
</g>
<!-- obj_DialEditApp_31_0&#45;&gt;obj_TrialCluster_13_0 -->
<g id="edge116" class="edge"><title>obj_DialEditApp_31_0-&gt;obj_TrialCluster_13_0</title>
<path fill="none" stroke="black" d="M945.291,-300.074C811.481,-292.653 561.36,-276.779 349.233,-252 340.164,-250.941 330.691,-249.679 321.284,-248.329"></path>
<polygon fill="black" stroke="black" points="321.529,-244.828 311.126,-246.835 320.51,-251.753 321.529,-244.828"></polygon>
</g>
<!-- obj_TrialCluster_13_0&#45;&gt;obj_TrialLabel_8_0 -->
<g id="edge128" class="edge"><title>obj_TrialCluster_13_0-&gt;obj_TrialLabel_8_0</title>
<path fill="none" stroke="black" d="M213.567,-216.588C197.44,-207.022 176.915,-194.845 159.505,-184.518"></path>
<polygon fill="black" stroke="black" points="161.111,-181.401 150.725,-179.309 157.54,-187.421 161.111,-181.401"></polygon>
</g>
<!-- obj_TrialCluster_13_0&#45;&gt;DialEditBase_3_0 -->
<g id="edge118" class="edge"><title>obj_TrialCluster_13_0-&gt;DialEditBase_3_0</title>
<path fill="none" stroke="black" d="M148.885,-227.466C77.8596,-219.023 -3.51376,-197.719 26.2325,-144 55.4445,-91.2458 85.1411,-94.1381 141.233,-72 202.003,-48.015 274.839,-34.5626 329.839,-27.2177"></path>
<polygon fill="black" stroke="black" points="330.426,-30.6709 339.894,-25.9161 329.528,-23.7289 330.426,-30.6709"></polygon>
</g>
<!-- obj_TrialCluster_13_0&#45;&gt;DialEditBFctn_4_1 -->
<g id="edge120" class="edge"><title>obj_TrialCluster_13_0-&gt;DialEditBFctn_4_1</title>
<path fill="none" stroke="black" d="M257.723,-216.153C282.281,-191.066 328.577,-143.77 356.69,-115.05"></path>
<polygon fill="black" stroke="black" points="359.269,-117.419 363.763,-107.825 354.267,-112.523 359.269,-117.419"></polygon>
</g>
<!-- obj_TrialCluster_13_0&#45;&gt;TVinput_4_2 -->
<g id="edge124" class="edge"><title>obj_TrialCluster_13_0-&gt;TVinput_4_2</title>
<path fill="none" stroke="black" d="M240.256,-215.872C239.384,-182.705 242.624,-109.668 284.233,-72 284.839,-71.4505 451.235,-44.51 545.666,-29.2572"></path>
<polygon fill="black" stroke="black" points="546.377,-32.6879 555.691,-27.6383 545.261,-25.7775 546.377,-32.6879"></polygon>
</g>
<!-- obj_TrialCluster_13_0&#45;&gt;Obj_EditControlDlg_8_0 -->
<g id="edge122" class="edge"><title>obj_TrialCluster_13_0-&gt;Obj_EditControlDlg_8_0</title>
<path fill="none" stroke="black" d="M306.729,-220.405C368.543,-208.517 461.288,-190.682 526.971,-178.05"></path>
<polygon fill="black" stroke="black" points="527.705,-181.473 536.864,-176.148 526.383,-174.599 527.705,-181.473"></polygon>
</g>
<!-- obj_TrialCluster_13_0&#45;&gt;dialeditDefaults_11_0 -->
<g id="edge126" class="edge"><title>obj_TrialCluster_13_0-&gt;dialeditDefaults_11_0</title>
<path fill="none" stroke="black" d="M310.534,-221.139C323.373,-219.213 336.688,-217.395 349.233,-216 601.532,-187.937 899.874,-173.11 1054.16,-166.797"></path>
<polygon fill="black" stroke="black" points="1054.71,-170.278 1064.56,-166.375 1054.43,-163.283 1054.71,-170.278"></polygon>
</g>
</g>
</svg>

