<?xml version="1.0" standalone="no"?>
<!-- Generated by graphviz version 2.28.0 (20110507.0327)
 -->
<!-- Title: Classes Pages: 1 -->
<svg width="2322pt" height="388pt" viewBox="0.00 0.00 2321.50 388.00" xmlns="http://www.w3.org/2000/svg" xmlns:xlink="http://www.w3.org/1999/xlink">
<g id="graph1" class="graph" transform="scale(1 1) rotate(0) translate(4 384)">
<title>Classes</title>
<polygon fill="white" stroke="white" points="-4,5 -4,-384 2318.5,-384 2318.5,5 -4,5"></polygon>
<g id="graph2" class="cluster"><title>cluster_1</title>
<polygon fill="lightgrey" stroke="lightgrey" points="8,-8 8,-372 2000,-372 2000,-8 8,-8"></polygon>
<text text-anchor="middle" x="1004" y="-355.4" font-family="Times,serif" font-size="14.00">___Source_</text>
</g>
<g id="graph3" class="cluster"><title>cluster_2</title>
<polygon fill="lightgrey" stroke="lightgrey" points="2008,-296 2008,-372 2266,-372 2266,-296 2008,-296"></polygon>
<text text-anchor="middle" x="2137" y="-355.4" font-family="Times,serif" font-size="14.00">C:_projekte_Lazarus_DIALEDIT3b_FPC_</text>
</g>
<!-- DialEdit_33_0 -->
<g id="node1" class="node"><title>DialEdit_33_0</title>
<polygon fill="none" stroke="black" points="2114.33,-340 2015.67,-340 2015.67,-304 2114.33,-304 2114.33,-340"></polygon>
<text text-anchor="middle" x="2065" y="-317.8" font-family="Times,serif" font-size="14.00">DialEdit_33_0</text>
</g>
<!-- TVinput_4_2 -->
<g id="node3" class="node"><title>TVinput_4_2</title>
<ellipse fill="none" stroke="black" cx="286" cy="-34" rx="63.1109" ry="18"></ellipse>
<text text-anchor="middle" x="286" y="-29.8" font-family="Times,serif" font-size="14.00">TVinput_4_2</text>
</g>
<!-- DialEdit_33_0&#45;&gt;TVinput_4_2 -->
<g id="edge2" class="edge"><title>DialEdit_33_0-&gt;TVinput_4_2</title>
<path fill="none" stroke="black" d="M2114.3,-318.718C2150.33,-314.155 2196.93,-301.6 2221,-268 2248.95,-228.98 2249.89,-198.336 2221,-160 2151.16,-67.3113 2084.72,-105.571 1970,-88 1648.76,-38.7966 832.573,-68.4124 508,-52 456.892,-49.4157 399.274,-44.9579 355.547,-41.2555"></path>
<polygon fill="black" stroke="black" points="355.571,-37.7449 345.309,-40.381 354.975,-44.7195 355.571,-37.7449"></polygon>
</g>
<!-- Params_1_0 -->
<g id="node5" class="node"><title>Params_1_0</title>
<ellipse fill="none" stroke="black" cx="1755" cy="-250" rx="58.1643" ry="18"></ellipse>
<text text-anchor="middle" x="1755" y="-245.8" font-family="Times,serif" font-size="14.00">Params_1_0</text>
</g>
<!-- DialEdit_33_0&#45;&gt;Params_1_0 -->
<g id="edge4" class="edge"><title>DialEdit_33_0-&gt;Params_1_0</title>
<path fill="none" stroke="black" d="M2027.08,-303.882C2019.54,-300.931 2011.6,-298.132 2004,-296 1927.74,-274.617 1905.73,-283.214 1828,-268 1821.88,-266.803 1815.5,-265.458 1809.16,-264.063"></path>
<polygon fill="black" stroke="black" points="1809.81,-260.622 1799.29,-261.844 1808.28,-267.452 1809.81,-260.622"></polygon>
</g>
<!-- obj_TrialLabel_8_0 -->
<g id="node7" class="node"><title>obj_TrialLabel_8_0</title>
<ellipse fill="none" stroke="black" cx="522" cy="-178" rx="87.9101" ry="18"></ellipse>
<text text-anchor="middle" x="522" y="-173.8" font-family="Times,serif" font-size="14.00">obj_TrialLabel_8_0</text>
</g>
<!-- DialEdit_33_0&#45;&gt;obj_TrialLabel_8_0 -->
<g id="edge6" class="edge"><title>DialEdit_33_0-&gt;obj_TrialLabel_8_0</title>
<path fill="none" stroke="black" d="M2026.7,-303.931C2019.26,-301.01 2011.46,-298.21 2004,-296 1939.81,-276.987 1914.73,-300.123 1856,-268 1836.69,-257.44 1842.03,-241.116 1822,-232 1731.52,-190.819 1027.33,-200.08 928,-196 821.764,-191.637 699.897,-186.519 617.625,-183.047"></path>
<polygon fill="black" stroke="black" points="617.68,-179.547 607.541,-182.622 617.384,-186.54 617.68,-179.547"></polygon>
</g>
<!-- DialEditBase_3_0 -->
<g id="node9" class="node"><title>DialEditBase_3_0</title>
<ellipse fill="none" stroke="black" cx="599" cy="-34" rx="81.2615" ry="18"></ellipse>
<text text-anchor="middle" x="599" y="-29.8" font-family="Times,serif" font-size="14.00">DialEditBase_3_0</text>
</g>
<!-- DialEdit_33_0&#45;&gt;DialEditBase_3_0 -->
<g id="edge8" class="edge"><title>DialEdit_33_0-&gt;DialEditBase_3_0</title>
<path fill="none" stroke="black" d="M2114.28,-315.447C2169.71,-308.066 2254.58,-292.965 2274,-268 2323.13,-204.861 2329.67,-145.456 2274,-88 2246.24,-59.346 1035.7,-40.8772 690.188,-36.1828"></path>
<polygon fill="black" stroke="black" points="690.022,-32.6803 679.975,-36.0446 689.927,-39.6797 690.022,-32.6803"></polygon>
</g>
<!-- DialEditBFctn_4_1 -->
<g id="node11" class="node"><title>DialEditBFctn_4_1</title>
<ellipse fill="none" stroke="black" cx="493" cy="-106" rx="86.5173" ry="18"></ellipse>
<text text-anchor="middle" x="493" y="-101.8" font-family="Times,serif" font-size="14.00">DialEditBFctn_4_1</text>
</g>
<!-- DialEdit_33_0&#45;&gt;DialEditBFctn_4_1 -->
<g id="edge10" class="edge"><title>DialEdit_33_0-&gt;DialEditBFctn_4_1</title>
<path fill="none" stroke="black" d="M2057.49,-303.907C2040.43,-265.916 1998.04,-176.506 1970,-160 1904.82,-121.627 684.358,-130.495 609,-124 595.749,-122.858 581.705,-121.191 568.136,-119.342"></path>
<polygon fill="black" stroke="black" points="568.264,-115.826 557.874,-117.898 567.288,-122.757 568.264,-115.826"></polygon>
</g>
<!-- obj_TrialStaticText_12_0 -->
<g id="node13" class="node"><title>obj_TrialStaticText_12_0</title>
<ellipse fill="none" stroke="black" cx="392" cy="-250" rx="110.212" ry="18"></ellipse>
<text text-anchor="middle" x="392" y="-245.8" font-family="Times,serif" font-size="14.00">obj_TrialStaticText_12_0</text>
</g>
<!-- DialEdit_33_0&#45;&gt;obj_TrialStaticText_12_0 -->
<g id="edge12" class="edge"><title>DialEdit_33_0-&gt;obj_TrialStaticText_12_0</title>
<path fill="none" stroke="black" d="M2029.57,-303.915C2021.35,-300.681 2012.52,-297.762 2004,-296 1843.81,-262.862 695.185,-279.43 532,-268 516.122,-266.888 499.281,-265.244 482.989,-263.411"></path>
<polygon fill="black" stroke="black" points="483.265,-259.92 472.929,-262.248 482.461,-266.873 483.265,-259.92"></polygon>
</g>
<!-- Obj_EditControlDlg_8_0 -->
<g id="node15" class="node"><title>Obj_EditControlDlg_8_0</title>
<ellipse fill="none" stroke="black" cx="1299" cy="-178" rx="109.623" ry="18"></ellipse>
<text text-anchor="middle" x="1299" y="-173.8" font-family="Times,serif" font-size="14.00">Obj_EditControlDlg_8_0</text>
</g>
<!-- DialEdit_33_0&#45;&gt;Obj_EditControlDlg_8_0 -->
<g id="edge14" class="edge"><title>DialEdit_33_0-&gt;Obj_EditControlDlg_8_0</title>
<path fill="none" stroke="black" d="M2024.06,-303.923C1991.3,-290.167 1949.62,-272.415 1942,-268 1918.93,-254.63 1918.9,-241.548 1894,-232 1809.64,-199.65 1564.46,-186.784 1416.47,-181.866"></path>
<polygon fill="black" stroke="black" points="1416.54,-178.366 1406.43,-181.539 1416.31,-185.362 1416.54,-178.366"></polygon>
</g>
<!-- dialeditDefaults_11_0 -->
<g id="node17" class="node"><title>dialeditDefaults_11_0</title>
<ellipse fill="none" stroke="black" cx="1034" cy="-178" rx="96.2832" ry="18"></ellipse>
<text text-anchor="middle" x="1034" y="-173.8" font-family="Times,serif" font-size="14.00">dialeditDefaults_11_0</text>
</g>
<!-- DialEdit_33_0&#45;&gt;dialeditDefaults_11_0 -->
<g id="edge16" class="edge"><title>DialEdit_33_0-&gt;dialeditDefaults_11_0</title>
<path fill="none" stroke="black" d="M2025.6,-303.914C2018.47,-301.094 2011.06,-298.334 2004,-296 1956.1,-280.174 1938.18,-292.355 1894,-268 1873.63,-256.769 1877.38,-241.184 1856,-232 1717.78,-172.616 1329.9,-208.706 1180,-196 1160.95,-194.385 1140.54,-192.259 1121.2,-190.059"></path>
<polygon fill="black" stroke="black" points="1121.53,-186.574 1111.2,-188.904 1120.73,-193.528 1121.53,-186.574"></polygon>
</g>
<!-- str_statictextdata_3_0 -->
<g id="node19" class="node"><title>str_statictextdata_3_0</title>
<ellipse fill="none" stroke="black" cx="272" cy="-106" rx="95.1729" ry="18"></ellipse>
<text text-anchor="middle" x="272" y="-101.8" font-family="Times,serif" font-size="14.00">str_statictextdata_3_0</text>
</g>
<!-- DialEdit_33_0&#45;&gt;str_statictextdata_3_0 -->
<g id="edge18" class="edge"><title>DialEdit_33_0-&gt;str_statictextdata_3_0</title>
<path fill="none" stroke="black" d="M2045.43,-303.679C2020.82,-282.952 1976.39,-248.928 1932,-232 1716.05,-149.65 1647.24,-180.103 1417,-160 965.104,-120.543 848.969,-162.613 397,-124 382.905,-122.796 367.964,-121.117 353.502,-119.28"></path>
<polygon fill="black" stroke="black" points="353.952,-115.809 343.583,-117.986 353.047,-122.75 353.952,-115.809"></polygon>
</g>
<!-- str_InputLineData_4_0 -->
<g id="node21" class="node"><title>str_InputLineData_4_0</title>
<ellipse fill="none" stroke="black" cx="719" cy="-106" rx="101.215" ry="18"></ellipse>
<text text-anchor="middle" x="719" y="-101.8" font-family="Times,serif" font-size="14.00">str_InputLineData_4_0</text>
</g>
<!-- DialEdit_33_0&#45;&gt;str_InputLineData_4_0 -->
<g id="edge20" class="edge"><title>DialEdit_33_0-&gt;str_InputLineData_4_0</title>
<path fill="none" stroke="black" d="M2064.79,-303.741C2063.32,-269.666 2054.69,-194.101 2008,-160 1955.98,-122.006 913.211,-129.183 849,-124 834.529,-122.832 819.2,-121.191 804.338,-119.385"></path>
<polygon fill="black" stroke="black" points="804.496,-115.877 794.139,-118.112 803.629,-122.823 804.496,-115.877"></polygon>
</g>
<!-- Str_DialogData_4_0 -->
<g id="node23" class="node"><title>Str_DialogData_4_0</title>
<ellipse fill="none" stroke="black" cx="949" cy="-106" rx="90.4349" ry="18"></ellipse>
<text text-anchor="middle" x="949" y="-101.8" font-family="Times,serif" font-size="14.00">Str_DialogData_4_0</text>
</g>
<!-- DialEdit_33_0&#45;&gt;Str_DialogData_4_0 -->
<g id="edge22" class="edge"><title>DialEdit_33_0-&gt;Str_DialogData_4_0</title>
<path fill="none" stroke="black" d="M2069.26,-303.756C2076.36,-270.384 2086.15,-197.007 2046,-160 2005.25,-122.435 1104.14,-129.657 1049,-124 1040.12,-123.089 1030.84,-121.873 1021.67,-120.508"></path>
<polygon fill="black" stroke="black" points="1022.19,-117.048 1011.77,-118.976 1021.12,-123.965 1022.19,-117.048"></polygon>
</g>
<!-- str_ParamTextData_3_0 -->
<g id="node25" class="node"><title>str_ParamTextData_3_0</title>
<ellipse fill="none" stroke="black" cx="1611" cy="-106" rx="105.143" ry="18"></ellipse>
<text text-anchor="middle" x="1611" y="-101.8" font-family="Times,serif" font-size="14.00">str_ParamTextData_3_0</text>
</g>
<!-- DialEdit_33_0&#45;&gt;str_ParamTextData_3_0 -->
<g id="edge24" class="edge"><title>DialEdit_33_0-&gt;str_ParamTextData_3_0</title>
<path fill="none" stroke="black" d="M2114.18,-305.516C2131.83,-297.317 2149.86,-285.263 2160,-268 2184.31,-226.608 2192.36,-195.448 2160,-160 2130.29,-127.454 1808.85,-128.418 1765,-124 1745.97,-122.083 1725.63,-119.919 1706.18,-117.793"></path>
<polygon fill="black" stroke="black" points="1706.42,-114.299 1696.1,-116.687 1705.66,-121.257 1706.42,-114.299"></polygon>
</g>
<!-- str_ButtonData_3_0 -->
<g id="node27" class="node"><title>str_ButtonData_3_0</title>
<ellipse fill="none" stroke="black" cx="1863" cy="-106" rx="89.032" ry="18"></ellipse>
<text text-anchor="middle" x="1863" y="-101.8" font-family="Times,serif" font-size="14.00">str_ButtonData_3_0</text>
</g>
<!-- DialEdit_33_0&#45;&gt;str_ButtonData_3_0 -->
<g id="edge26" class="edge"><title>DialEdit_33_0-&gt;str_ButtonData_3_0</title>
<path fill="none" stroke="black" d="M2114.43,-315.074C2144.01,-308.699 2179.38,-295.466 2198,-268 2224.94,-228.27 2229.18,-196.497 2198,-160 2168.06,-124.955 2049.46,-112.951 1961.83,-108.914"></path>
<polygon fill="black" stroke="black" points="1961.72,-105.406 1951.58,-108.471 1961.42,-112.4 1961.72,-105.406"></polygon>
</g>
<!-- str_ListBoxData_3_0 -->
<g id="node29" class="node"><title>str_ListBoxData_3_0</title>
<ellipse fill="none" stroke="black" cx="1354" cy="-106" rx="94.2715" ry="18"></ellipse>
<text text-anchor="middle" x="1354" y="-101.8" font-family="Times,serif" font-size="14.00">str_ListBoxData_3_0</text>
</g>
<!-- DialEdit_33_0&#45;&gt;str_ListBoxData_3_0 -->
<g id="edge28" class="edge"><title>DialEdit_33_0-&gt;str_ListBoxData_3_0</title>
<path fill="none" stroke="black" d="M2091.58,-303.912C2103.24,-294.81 2115.69,-282.494 2122,-268 2141.17,-223.995 2154.95,-194.903 2122,-160 2074.25,-109.42 1566.29,-130.109 1497,-124 1478.32,-122.353 1458.3,-120.211 1439.35,-118.007"></path>
<polygon fill="black" stroke="black" points="1439.58,-114.51 1429.24,-116.814 1438.76,-121.462 1439.58,-114.51"></polygon>
</g>
<!-- str_OutOptData_3_0 -->
<g id="node31" class="node"><title>str_OutOptData_3_0</title>
<ellipse fill="none" stroke="black" cx="1150" cy="-106" rx="92.0425" ry="18"></ellipse>
<text text-anchor="middle" x="1150" y="-101.8" font-family="Times,serif" font-size="14.00">str_OutOptData_3_0</text>
</g>
<!-- DialEdit_33_0&#45;&gt;str_OutOptData_3_0 -->
<g id="edge30" class="edge"><title>DialEdit_33_0-&gt;str_OutOptData_3_0</title>
<path fill="none" stroke="black" d="M2074.58,-303.93C2091.54,-271.188 2121.67,-199.333 2084,-160 2051.96,-126.546 1297.07,-128.853 1251,-124 1242.26,-123.08 1233.14,-121.881 1224.1,-120.546"></path>
<polygon fill="black" stroke="black" points="1224.37,-117.047 1213.95,-118.989 1223.31,-123.966 1224.37,-117.047"></polygon>
</g>
<!-- obj_TrialParamText_13_0 -->
<g id="node33" class="node"><title>obj_TrialParamText_13_0</title>
<ellipse fill="none" stroke="black" cx="1342" cy="-250" rx="113.225" ry="18"></ellipse>
<text text-anchor="middle" x="1342" y="-245.8" font-family="Times,serif" font-size="14.00">obj_TrialParamText_13_0</text>
</g>
<!-- DialEdit_33_0&#45;&gt;obj_TrialParamText_13_0 -->
<g id="edge32" class="edge"><title>DialEdit_33_0-&gt;obj_TrialParamText_13_0</title>
<path fill="none" stroke="black" d="M2028.87,-303.879C2020.85,-300.733 2012.26,-297.86 2004,-296 1778.2,-245.181 1714.58,-287.989 1484,-268 1468.68,-266.672 1452.46,-264.991 1436.68,-263.207"></path>
<polygon fill="black" stroke="black" points="1436.71,-259.688 1426.38,-262.022 1435.91,-266.642 1436.71,-259.688"></polygon>
</g>
<!-- obj_trialbutton_13_0 -->
<g id="node35" class="node"><title>obj_trialbutton_13_0</title>
<ellipse fill="none" stroke="black" cx="1586" cy="-250" rx="92.3723" ry="18"></ellipse>
<text text-anchor="middle" x="1586" y="-245.8" font-family="Times,serif" font-size="14.00">obj_trialbutton_13_0</text>
</g>
<!-- DialEdit_33_0&#45;&gt;obj_trialbutton_13_0 -->
<g id="edge34" class="edge"><title>DialEdit_33_0-&gt;obj_trialbutton_13_0</title>
<path fill="none" stroke="black" d="M2028.5,-303.965C2020.57,-300.855 2012.12,-297.974 2004,-296 1866.57,-262.582 1827.29,-285.974 1687,-268 1678.7,-266.936 1670.03,-265.689 1661.42,-264.361"></path>
<polygon fill="black" stroke="black" points="1661.78,-260.875 1651.36,-262.772 1660.69,-267.789 1661.78,-260.875"></polygon>
</g>
<!-- obj_TrialInputLine_14_0 -->
<g id="node37" class="node"><title>obj_TrialInputLine_14_0</title>
<ellipse fill="none" stroke="black" cx="886" cy="-250" rx="109.298" ry="18"></ellipse>
<text text-anchor="middle" x="886" y="-245.8" font-family="Times,serif" font-size="14.00">obj_TrialInputLine_14_0</text>
</g>
<!-- DialEdit_33_0&#45;&gt;obj_TrialInputLine_14_0 -->
<g id="edge36" class="edge"><title>DialEdit_33_0-&gt;obj_TrialInputLine_14_0</title>
<path fill="none" stroke="black" d="M2029.22,-303.893C2021.1,-300.704 2012.39,-297.809 2004,-296 1833.58,-259.262 1394.17,-275.542 1220,-268 1146.08,-264.799 1062.99,-260.572 998.178,-257.134"></path>
<polygon fill="black" stroke="black" points="998.109,-253.626 987.937,-256.59 997.737,-260.616 998.109,-253.626"></polygon>
</g>
<!-- obj_DialEditApp_31_0 -->
<g id="node39" class="node"><title>obj_DialEditApp_31_0</title>
<ellipse fill="none" stroke="black" cx="1014" cy="-322" rx="101.545" ry="18"></ellipse>
<text text-anchor="middle" x="1014" y="-317.8" font-family="Times,serif" font-size="14.00">obj_DialEditApp_31_0</text>
</g>
<!-- DialEdit_33_0&#45;&gt;obj_DialEditApp_31_0 -->
<g id="edge38" class="edge"><title>DialEdit_33_0-&gt;obj_DialEditApp_31_0</title>
<path fill="none" stroke="black" d="M2015.85,-322C1719.05,-322 1422.26,-322 1125.47,-322"></path>
<polygon fill="black" stroke="black" points="1125.35,-318.5 1115.35,-322 1125.35,-325.5 1125.35,-318.5"></polygon>
</g>
<!-- obj_TrialCluster_13_0 -->
<g id="node41" class="node"><title>obj_TrialCluster_13_0</title>
<ellipse fill="none" stroke="black" cx="640" cy="-250" rx="99.014" ry="18"></ellipse>
<text text-anchor="middle" x="640" y="-245.8" font-family="Times,serif" font-size="14.00">obj_TrialCluster_13_0</text>
</g>
<!-- DialEdit_33_0&#45;&gt;obj_TrialCluster_13_0 -->
<g id="edge40" class="edge"><title>DialEdit_33_0-&gt;obj_TrialCluster_13_0</title>
<path fill="none" stroke="black" d="M2029.57,-303.938C2021.35,-300.703 2012.51,-297.778 2004,-296 1735.06,-239.856 1041.92,-289.228 768,-268 753.563,-266.881 738.262,-265.245 723.453,-263.423"></path>
<polygon fill="black" stroke="black" points="723.656,-259.921 713.296,-262.136 722.776,-266.865 723.656,-259.921"></polygon>
</g>
<!-- obj_TrialLabel_8_0&#45;&gt;TVinput_4_2 -->
<g id="edge46" class="edge"><title>obj_TrialLabel_8_0-&gt;TVinput_4_2</title>
<path fill="none" stroke="black" d="M434.164,-176.493C340.428,-173.865 200.816,-163.239 167,-124 156.555,-111.88 158.287,-101.419 167,-88 180.035,-67.9244 202.632,-55.3895 224.657,-47.5916"></path>
<polygon fill="black" stroke="black" points="225.938,-50.8553 234.364,-44.4319 223.772,-44.1991 225.938,-50.8553"></polygon>
</g>
<!-- obj_TrialLabel_8_0&#45;&gt;DialEditBase_3_0 -->
<g id="edge42" class="edge"><title>obj_TrialLabel_8_0-&gt;DialEditBase_3_0</title>
<path fill="none" stroke="black" d="M458.409,-165.408C435.047,-157.738 410.925,-145.029 397,-124 388.166,-110.66 387.227,-100.668 397,-88 412.416,-68.0175 470.805,-54.0945 520.868,-45.5501"></path>
<polygon fill="black" stroke="black" points="521.461,-48.9997 530.755,-43.9127 520.317,-42.0937 521.461,-48.9997"></polygon>
</g>
<!-- obj_TrialLabel_8_0&#45;&gt;DialEditBFctn_4_1 -->
<g id="edge44" class="edge"><title>obj_TrialLabel_8_0-&gt;DialEditBFctn_4_1</title>
<path fill="none" stroke="black" d="M514.98,-160.055C511.716,-152.176 507.755,-142.617 504.1,-133.794"></path>
<polygon fill="black" stroke="black" points="507.218,-132.174 500.157,-124.275 500.751,-134.853 507.218,-132.174"></polygon>
</g>
<!-- DialEditBFctn_4_1&#45;&gt;TVinput_4_2 -->
<g id="edge170" class="edge"><title>DialEditBFctn_4_1-&gt;TVinput_4_2</title>
<path fill="none" stroke="black" stroke-dasharray="1,5" d="M449.606,-90.3257C416.013,-78.9657 369.492,-63.234 334.642,-51.449"></path>
<polygon fill="black" stroke="black" points="335.737,-48.1245 325.142,-48.2365 333.494,-54.7556 335.737,-48.1245"></polygon>
</g>
<!-- DialEditBFctn_4_1&#45;&gt;DialEditBase_3_0 -->
<g id="edge48" class="edge"><title>DialEditBFctn_4_1-&gt;DialEditBase_3_0</title>
<path fill="none" stroke="black" d="M517.852,-88.5881C532.073,-79.1972 550.102,-67.2912 565.553,-57.088"></path>
<polygon fill="black" stroke="black" points="567.887,-59.7404 574.303,-51.3091 564.03,-53.8991 567.887,-59.7404"></polygon>
</g>
<!-- obj_TrialStaticText_12_0&#45;&gt;TVinput_4_2 -->
<g id="edge56" class="edge"><title>obj_TrialStaticText_12_0-&gt;TVinput_4_2</title>
<path fill="none" stroke="black" d="M283.003,-246.9C195.104,-242.626 81.4318,-230.375 52,-196 20.782,-159.539 22.0413,-125.503 52,-88 72.3172,-62.5664 155.052,-48.433 216.413,-41.282"></path>
<polygon fill="black" stroke="black" points="216.903,-44.7491 226.448,-40.1519 216.119,-37.7931 216.903,-44.7491"></polygon>
</g>
<!-- obj_TrialStaticText_12_0&#45;&gt;DialEditBase_3_0 -->
<g id="edge50" class="edge"><title>obj_TrialStaticText_12_0-&gt;DialEditBase_3_0</title>
<path fill="none" stroke="black" d="M333.912,-234.652C245.869,-210.291 95.0112,-156.72 156,-88 167.752,-74.758 388.741,-53.3919 514.058,-42.264"></path>
<polygon fill="black" stroke="black" points="514.74,-45.7174 524.393,-41.3502 514.123,-38.7446 514.74,-45.7174"></polygon>
</g>
<!-- obj_TrialStaticText_12_0&#45;&gt;DialEditBFctn_4_1 -->
<g id="edge52" class="edge"><title>obj_TrialStaticText_12_0-&gt;DialEditBFctn_4_1</title>
<path fill="none" stroke="black" d="M395.377,-231.919C399.763,-212.942 408.841,-182.073 425,-160 433.68,-148.143 445.702,-137.586 457.228,-129.075"></path>
<polygon fill="black" stroke="black" points="459.327,-131.878 465.477,-123.251 455.289,-126.159 459.327,-131.878"></polygon>
</g>
<!-- obj_TrialStaticText_12_0&#45;&gt;Obj_EditControlDlg_8_0 -->
<g id="edge54" class="edge"><title>obj_TrialStaticText_12_0-&gt;Obj_EditControlDlg_8_0</title>
<path fill="none" stroke="black" d="M474.823,-238.087C493.6,-235.851 513.467,-233.673 532,-232 801.157,-207.7 869.668,-218.283 1139,-196 1159.34,-194.318 1181.09,-192.211 1201.81,-190.06"></path>
<polygon fill="black" stroke="black" points="1202.3,-193.527 1211.88,-189.002 1201.57,-186.565 1202.3,-193.527"></polygon>
</g>
<!-- obj_TrialStaticText_12_0&#45;&gt;dialeditDefaults_11_0 -->
<g id="edge58" class="edge"><title>obj_TrialStaticText_12_0-&gt;dialeditDefaults_11_0</title>
<path fill="none" stroke="black" d="M477.115,-238.449C495.226,-236.264 514.241,-234.016 532,-232 674.697,-215.804 840.406,-198.626 941.194,-188.359"></path>
<polygon fill="black" stroke="black" points="941.751,-191.821 951.345,-187.326 941.042,-184.857 941.751,-191.821"></polygon>
</g>
<!-- obj_TrialStaticText_12_0&#45;&gt;str_statictextdata_3_0 -->
<g id="edge60" class="edge"><title>obj_TrialStaticText_12_0-&gt;str_statictextdata_3_0</title>
<path fill="none" stroke="black" d="M377.525,-231.871C356.533,-207.031 317.504,-160.846 293.246,-132.142"></path>
<polygon fill="black" stroke="black" points="295.654,-129.568 286.526,-124.189 290.307,-134.086 295.654,-129.568"></polygon>
</g>
<!-- Obj_EditControlDlg_8_0&#45;&gt;TVinput_4_2 -->
<g id="edge62" class="edge"><title>Obj_EditControlDlg_8_0-&gt;TVinput_4_2</title>
<path fill="none" stroke="black" d="M1365.63,-163.68C1423.01,-149.418 1491.56,-123.891 1457,-88 1420.41,-49.9924 560.674,-55.0148 508,-52 456.91,-49.0759 399.292,-44.6298 355.56,-41.0179"></path>
<polygon fill="black" stroke="black" points="355.576,-37.5072 345.321,-40.1665 354.996,-44.4832 355.576,-37.5072"></polygon>
</g>
<!-- Obj_EditControlDlg_8_0&#45;&gt;DialEditBase_3_0 -->
<g id="edge64" class="edge"><title>Obj_EditControlDlg_8_0-&gt;DialEditBase_3_0</title>
<path fill="none" stroke="black" d="M1372.91,-164.69C1435.04,-151.341 1508.34,-126.616 1472,-88 1445.48,-59.8191 907.444,-42.9082 689.498,-37.1912"></path>
<polygon fill="black" stroke="black" points="689.453,-33.6889 679.365,-36.9274 689.271,-40.6865 689.453,-33.6889"></polygon>
</g>
<!-- dialeditDefaults_11_0&#45;&gt;DialEditBase_3_0 -->
<g id="edge66" class="edge"><title>dialeditDefaults_11_0-&gt;DialEditBase_3_0</title>
<path fill="none" stroke="black" d="M970.989,-164.352C925.19,-154.173 868.031,-139.119 849,-124 834.669,-112.614 843.625,-99.0053 829,-88 789.047,-57.9361 734.927,-44.4907 689.222,-38.6518"></path>
<polygon fill="black" stroke="black" points="689.346,-35.1424 679.006,-37.4536 688.53,-42.0948 689.346,-35.1424"></polygon>
</g>
<!-- dialeditDefaults_11_0&#45;&gt;str_statictextdata_3_0 -->
<g id="edge70" class="edge"><title>dialeditDefaults_11_0-&gt;str_statictextdata_3_0</title>
<path fill="none" stroke="black" d="M944.976,-171.065C821.697,-162.511 592.116,-145.37 397,-124 383.511,-122.523 369.228,-120.764 355.327,-118.948"></path>
<polygon fill="black" stroke="black" points="355.662,-115.462 345.289,-117.618 354.743,-122.401 355.662,-115.462"></polygon>
</g>
<!-- dialeditDefaults_11_0&#45;&gt;str_InputLineData_4_0 -->
<g id="edge72" class="edge"><title>dialeditDefaults_11_0-&gt;str_InputLineData_4_0</title>
<path fill="none" stroke="black" d="M974.381,-163.751C921.715,-152.048 844.858,-134.969 789.228,-122.606"></path>
<polygon fill="black" stroke="black" points="789.969,-119.186 779.448,-120.433 788.45,-126.019 789.969,-119.186"></polygon>
</g>
<!-- dialeditDefaults_11_0&#45;&gt;Str_DialogData_4_0 -->
<g id="edge68" class="edge"><title>dialeditDefaults_11_0-&gt;Str_DialogData_4_0</title>
<path fill="none" stroke="black" d="M1013.42,-160.055C1002.57,-151.113 989.078,-140.005 977.254,-130.268"></path>
<polygon fill="black" stroke="black" points="979.331,-127.444 969.387,-123.789 974.881,-132.848 979.331,-127.444"></polygon>
</g>
<!-- dialeditDefaults_11_0&#45;&gt;str_ParamTextData_3_0 -->
<g id="edge74" class="edge"><title>dialeditDefaults_11_0-&gt;str_ParamTextData_3_0</title>
<path fill="none" stroke="black" d="M1112.42,-167.487C1217.85,-154.696 1405.04,-131.986 1517.63,-118.328"></path>
<polygon fill="black" stroke="black" points="1518.11,-121.795 1527.61,-117.116 1517.26,-114.846 1518.11,-121.795"></polygon>
</g>
<!-- dialeditDefaults_11_0&#45;&gt;str_ButtonData_3_0 -->
<g id="edge76" class="edge"><title>dialeditDefaults_11_0-&gt;str_ButtonData_3_0</title>
<path fill="none" stroke="black" d="M1111.59,-167.236C1133.67,-164.655 1157.76,-162.028 1180,-160 1421.75,-137.955 1483.33,-146.849 1725,-124 1743.05,-122.294 1762.38,-120.126 1780.69,-117.914"></path>
<polygon fill="black" stroke="black" points="1781.25,-121.372 1790.75,-116.683 1780.4,-114.424 1781.25,-121.372"></polygon>
</g>
<!-- dialeditDefaults_11_0&#45;&gt;str_ListBoxData_3_0 -->
<g id="edge78" class="edge"><title>dialeditDefaults_11_0-&gt;str_ListBoxData_3_0</title>
<path fill="none" stroke="black" d="M1094.19,-163.834C1148.33,-151.99 1227.86,-134.593 1284.65,-122.171"></path>
<polygon fill="black" stroke="black" points="1285.6,-125.545 1294.62,-119.989 1284.1,-118.707 1285.6,-125.545"></polygon>
</g>
<!-- dialeditDefaults_11_0&#45;&gt;str_OutOptData_3_0 -->
<g id="edge80" class="edge"><title>dialeditDefaults_11_0-&gt;str_OutOptData_3_0</title>
<path fill="none" stroke="black" d="M1061.2,-160.588C1077.05,-151.022 1097.23,-138.845 1114.34,-128.518"></path>
<polygon fill="black" stroke="black" points="1116.22,-131.472 1122.97,-123.309 1112.6,-125.479 1116.22,-131.472"></polygon>
</g>
<!-- obj_TrialParamText_13_0&#45;&gt;TVinput_4_2 -->
<g id="edge88" class="edge"><title>obj_TrialParamText_13_0-&gt;TVinput_4_2</title>
<path fill="none" stroke="black" d="M1413.45,-235.963C1513.7,-216.051 1688.03,-174.952 1725,-124 1734.4,-111.05 1736.15,-99.4798 1725,-88 1677.88,-39.4689 575.546,-55.5833 508,-52 456.898,-49.2891 399.28,-44.8357 355.552,-41.167"></path>
<polygon fill="black" stroke="black" points="355.573,-37.6563 345.313,-40.3011 354.983,-44.6314 355.573,-37.6563"></polygon>
</g>
<!-- obj_TrialParamText_13_0&#45;&gt;DialEditBase_3_0 -->
<g id="edge82" class="edge"><title>obj_TrialParamText_13_0-&gt;DialEditBase_3_0</title>
<path fill="none" stroke="black" d="M1425.68,-237.786C1440.13,-235.854 1455,-233.867 1469,-232 1529.22,-223.97 1699.97,-241.699 1740,-196 1771.63,-159.893 1773.14,-122.72 1740,-88 1703.96,-50.2467 955.298,-38.7427 690.67,-35.8483"></path>
<polygon fill="black" stroke="black" points="690.363,-32.3448 680.326,-35.7368 690.288,-39.3444 690.363,-32.3448"></polygon>
</g>
<!-- obj_TrialParamText_13_0&#45;&gt;DialEditBFctn_4_1 -->
<g id="edge84" class="edge"><title>obj_TrialParamText_13_0-&gt;DialEditBFctn_4_1</title>
<path fill="none" stroke="black" d="M1248.36,-239.773C1161.22,-230.633 1027.91,-215.236 913,-196 786.151,-174.765 639.488,-141.721 557.352,-122.436"></path>
<polygon fill="black" stroke="black" points="557.953,-118.982 547.417,-120.096 556.348,-125.795 557.953,-118.982"></polygon>
</g>
<!-- obj_TrialParamText_13_0&#45;&gt;Obj_EditControlDlg_8_0 -->
<g id="edge86" class="edge"><title>obj_TrialParamText_13_0-&gt;Obj_EditControlDlg_8_0</title>
<path fill="none" stroke="black" d="M1331.59,-232.055C1326.59,-223.922 1320.5,-213.998 1314.94,-204.943"></path>
<polygon fill="black" stroke="black" points="1317.83,-202.964 1309.61,-196.275 1311.86,-206.628 1317.83,-202.964"></polygon>
</g>
<!-- obj_TrialParamText_13_0&#45;&gt;dialeditDefaults_11_0 -->
<g id="edge90" class="edge"><title>obj_TrialParamText_13_0-&gt;dialeditDefaults_11_0</title>
<path fill="none" stroke="black" d="M1280.04,-234.919C1228.72,-223.254 1155.85,-206.693 1102.74,-194.622"></path>
<polygon fill="black" stroke="black" points="1103.25,-191.15 1092.73,-192.347 1101.7,-197.976 1103.25,-191.15"></polygon>
</g>
<!-- obj_TrialParamText_13_0&#45;&gt;str_ParamTextData_3_0 -->
<g id="edge92" class="edge"><title>obj_TrialParamText_13_0-&gt;str_ParamTextData_3_0</title>
<path fill="none" stroke="black" d="M1373.12,-232.572C1422.15,-206.692 1517.32,-156.453 1571.23,-127.992"></path>
<polygon fill="black" stroke="black" points="1572.95,-131.044 1580.16,-123.28 1569.68,-124.853 1572.95,-131.044"></polygon>
</g>
<!-- obj_trialbutton_13_0&#45;&gt;TVinput_4_2 -->
<g id="edge100" class="edge"><title>obj_trialbutton_13_0-&gt;TVinput_4_2</title>
<path fill="none" stroke="black" d="M1650.51,-236.981C1694.88,-227.863 1754.81,-213.857 1806,-196 1841.86,-183.491 1940.57,-156.016 1961,-124 1969.61,-110.512 1972.17,-99.453 1961,-88 1932.81,-59.1002 548.322,-54.042 508,-52 456.892,-49.4118 399.274,-44.9542 355.547,-41.2528"></path>
<polygon fill="black" stroke="black" points="355.571,-37.7421 345.309,-40.3785 354.975,-44.7168 355.571,-37.7421"></polygon>
</g>
<!-- obj_trialbutton_13_0&#45;&gt;DialEditBase_3_0 -->
<g id="edge94" class="edge"><title>obj_trialbutton_13_0-&gt;DialEditBase_3_0</title>
<path fill="none" stroke="black" d="M1653.08,-237.631C1664.4,-235.735 1676.03,-233.8 1687,-232 1786.93,-215.595 1823.19,-244.677 1912,-196 1960.93,-169.182 2014.69,-128.205 1976,-88 1931.45,-41.7072 991.978,-35.7865 690.94,-35.0795"></path>
<polygon fill="black" stroke="black" points="690.51,-31.5786 680.503,-35.0565 690.495,-38.5786 690.51,-31.5786"></polygon>
</g>
<!-- obj_trialbutton_13_0&#45;&gt;DialEditBFctn_4_1 -->
<g id="edge96" class="edge"><title>obj_trialbutton_13_0-&gt;DialEditBFctn_4_1</title>
<path fill="none" stroke="black" d="M1515.46,-238.299C1498.63,-235.986 1480.7,-233.722 1464,-232 1226.5,-207.509 1161.85,-244.177 928,-196 880.915,-186.299 872.597,-171.827 826,-160 801.765,-153.849 661.567,-132.303 570.979,-118.65"></path>
<polygon fill="black" stroke="black" points="571.419,-115.176 561.009,-117.149 570.377,-122.098 571.419,-115.176"></polygon>
</g>
<!-- obj_trialbutton_13_0&#45;&gt;Obj_EditControlDlg_8_0 -->
<g id="edge98" class="edge"><title>obj_trialbutton_13_0-&gt;Obj_EditControlDlg_8_0</title>
<path fill="none" stroke="black" d="M1530.66,-235.503C1484.09,-224.143 1417.28,-207.849 1367.37,-195.675"></path>
<polygon fill="black" stroke="black" points="1368.16,-192.267 1357.62,-193.297 1366.51,-199.067 1368.16,-192.267"></polygon>
</g>
<!-- obj_trialbutton_13_0&#45;&gt;dialeditDefaults_11_0 -->
<g id="edge102" class="edge"><title>obj_trialbutton_13_0-&gt;dialeditDefaults_11_0</title>
<path fill="none" stroke="black" d="M1513.77,-238.743C1497.41,-236.473 1480.11,-234.116 1464,-232 1346.35,-216.554 1210.41,-200.018 1123.4,-189.602"></path>
<polygon fill="black" stroke="black" points="1123.65,-186.106 1113.3,-188.393 1122.81,-193.056 1123.65,-186.106"></polygon>
</g>
<!-- obj_trialbutton_13_0&#45;&gt;str_ButtonData_3_0 -->
<g id="edge104" class="edge"><title>obj_trialbutton_13_0-&gt;str_ButtonData_3_0</title>
<path fill="none" stroke="black" d="M1646.23,-236.338C1694.42,-225.516 1757.51,-209.586 1780,-196 1806.9,-179.748 1830.56,-152.334 1845.67,-132.217"></path>
<polygon fill="black" stroke="black" points="1848.53,-134.235 1851.6,-124.095 1842.88,-130.105 1848.53,-134.235"></polygon>
</g>
<!-- obj_TrialInputLine_14_0&#45;&gt;TVinput_4_2 -->
<g id="edge112" class="edge"><title>obj_TrialInputLine_14_0-&gt;TVinput_4_2</title>
<path fill="none" stroke="black" d="M801.728,-238.461C783.987,-236.287 765.382,-234.039 748,-232 615.184,-216.418 237.422,-230.082 156,-124 146.258,-111.308 147.074,-101.279 156,-88 170.765,-66.0357 196.393,-53.1688 221.013,-45.6335"></path>
<polygon fill="black" stroke="black" points="222.053,-48.9768 230.736,-42.9057 220.162,-42.237 222.053,-48.9768"></polygon>
</g>
<!-- obj_TrialInputLine_14_0&#45;&gt;obj_TrialLabel_8_0 -->
<g id="edge116" class="edge"><title>obj_TrialInputLine_14_0-&gt;obj_TrialLabel_8_0</title>
<path fill="none" stroke="black" d="M817.961,-235.916C754.189,-223.652 659.18,-205.381 594.116,-192.869"></path>
<polygon fill="black" stroke="black" points="594.422,-189.363 583.941,-190.912 593.1,-196.237 594.422,-189.363"></polygon>
</g>
<!-- obj_TrialInputLine_14_0&#45;&gt;DialEditBase_3_0 -->
<g id="edge106" class="edge"><title>obj_TrialInputLine_14_0-&gt;DialEditBase_3_0</title>
<path fill="none" stroke="black" d="M852.372,-232.839C814.363,-214.687 750.542,-184.554 695,-160 657.102,-143.246 633.849,-157.158 609,-124 595.922,-106.549 594.172,-81.5056 595.264,-62.4271"></path>
<polygon fill="black" stroke="black" points="598.769,-62.5205 596.139,-52.2572 591.794,-61.9201 598.769,-62.5205"></polygon>
</g>
<!-- obj_TrialInputLine_14_0&#45;&gt;DialEditBFctn_4_1 -->
<g id="edge108" class="edge"><title>obj_TrialInputLine_14_0-&gt;DialEditBFctn_4_1</title>
<path fill="none" stroke="black" d="M842.818,-233.397C769.677,-206.97 621.786,-153.533 543.791,-125.352"></path>
<polygon fill="black" stroke="black" points="544.773,-121.985 534.179,-121.879 542.394,-128.569 544.773,-121.985"></polygon>
</g>
<!-- obj_TrialInputLine_14_0&#45;&gt;Obj_EditControlDlg_8_0 -->
<g id="edge110" class="edge"><title>obj_TrialInputLine_14_0-&gt;Obj_EditControlDlg_8_0</title>
<path fill="none" stroke="black" d="M959.36,-236.566C1031.24,-224.384 1140.62,-205.843 1215.73,-193.114"></path>
<polygon fill="black" stroke="black" points="1216.35,-196.558 1225.63,-191.436 1215.18,-189.656 1216.35,-196.558"></polygon>
</g>
<!-- obj_TrialInputLine_14_0&#45;&gt;dialeditDefaults_11_0 -->
<g id="edge114" class="edge"><title>obj_TrialInputLine_14_0-&gt;dialeditDefaults_11_0</title>
<path fill="none" stroke="black" d="M920.326,-232.765C941.397,-222.799 968.56,-209.951 991.049,-199.314"></path>
<polygon fill="black" stroke="black" points="992.827,-202.346 1000.37,-194.906 989.834,-196.018 992.827,-202.346"></polygon>
</g>
<!-- obj_TrialInputLine_14_0&#45;&gt;str_InputLineData_4_0 -->
<g id="edge118" class="edge"><title>obj_TrialInputLine_14_0-&gt;str_InputLineData_4_0</title>
<path fill="none" stroke="black" d="M866.187,-232.153C836.432,-206.852 780.112,-158.964 746.427,-130.321"></path>
<polygon fill="black" stroke="black" points="748.673,-127.636 738.787,-123.825 744.138,-132.969 748.673,-127.636"></polygon>
</g>
<!-- obj_DialEditApp_31_0&#45;&gt;TVinput_4_2 -->
<g id="edge120" class="edge"><title>obj_DialEditApp_31_0-&gt;TVinput_4_2</title>
<path fill="none" stroke="black" d="M913.7,-319.272C723.583,-315.228 317.663,-302.709 182,-268 108.802,-249.272 68.5639,-259.743 28,-196 19.0297,-181.904 12.6133,-107.828 29,-88 52.2914,-59.8171 147.408,-46.1398 215.125,-39.8575"></path>
<polygon fill="black" stroke="black" points="215.674,-43.3225 225.324,-38.9475 215.052,-36.3502 215.674,-43.3225"></polygon>
</g>
<!-- obj_DialEditApp_31_0&#45;&gt;Params_1_0 -->
<g id="edge122" class="edge"><title>obj_DialEditApp_31_0-&gt;Params_1_0</title>
<path fill="none" stroke="black" d="M1113.26,-318.342C1245.1,-313.638 1484.86,-300.991 1687,-268 1692.33,-267.13 1697.85,-266.051 1703.35,-264.861"></path>
<polygon fill="black" stroke="black" points="1704.18,-268.261 1713.15,-262.622 1702.62,-261.437 1704.18,-268.261"></polygon>
</g>
<!-- obj_DialEditApp_31_0&#45;&gt;obj_TrialLabel_8_0 -->
<g id="edge124" class="edge"><title>obj_DialEditApp_31_0-&gt;obj_TrialLabel_8_0</title>
<path fill="none" stroke="black" d="M916.93,-316.735C784.011,-309.939 558.689,-294.626 532,-268 516.138,-252.176 514.965,-225.966 516.97,-206.077"></path>
<polygon fill="black" stroke="black" points="520.453,-206.435 518.292,-196.063 513.513,-205.519 520.453,-206.435"></polygon>
</g>
<!-- obj_DialEditApp_31_0&#45;&gt;DialEditBase_3_0 -->
<g id="edge126" class="edge"><title>obj_DialEditApp_31_0-&gt;DialEditBase_3_0</title>
<path fill="none" stroke="black" d="M914.771,-318.142C718.519,-311.926 294.469,-295.485 234,-268 192.801,-249.274 185.792,-234.496 162,-196 136.149,-154.173 105.277,-124.701 138,-88 150.349,-74.1503 383.748,-52.7804 513.591,-41.8908"></path>
<polygon fill="black" stroke="black" points="514.232,-45.3496 523.906,-41.0295 513.649,-38.3739 514.232,-45.3496"></polygon>
</g>
<!-- obj_DialEditApp_31_0&#45;&gt;DialEditBFctn_4_1 -->
<g id="edge128" class="edge"><title>obj_DialEditApp_31_0-&gt;DialEditBFctn_4_1</title>
<path fill="none" stroke="black" d="M912.399,-321.247C719.311,-320.65 314.711,-313.871 272,-268 213.112,-204.756 349.727,-150.046 433.578,-123.713"></path>
<polygon fill="black" stroke="black" points="434.751,-127.013 443.274,-120.719 432.687,-120.325 434.751,-127.013"></polygon>
</g>
<!-- obj_DialEditApp_31_0&#45;&gt;obj_TrialStaticText_12_0 -->
<g id="edge130" class="edge"><title>obj_DialEditApp_31_0-&gt;obj_TrialStaticText_12_0</title>
<path fill="none" stroke="black" d="M927.274,-312.519C828.024,-302.635 660.643,-285.423 517,-268 505.901,-266.654 494.259,-265.169 482.731,-263.653"></path>
<polygon fill="black" stroke="black" points="483.019,-260.161 472.646,-262.317 482.099,-267.1 483.019,-260.161"></polygon>
</g>
<!-- obj_DialEditApp_31_0&#45;&gt;Obj_EditControlDlg_8_0 -->
<g id="edge132" class="edge"><title>obj_DialEditApp_31_0-&gt;Obj_EditControlDlg_8_0</title>
<path fill="none" stroke="black" d="M1079.67,-308.212C1110.45,-300.09 1146.53,-287.356 1175,-268 1192.22,-256.291 1189,-245.333 1205,-232 1219.94,-219.553 1238.21,-208.488 1254.66,-199.729"></path>
<polygon fill="black" stroke="black" points="1256.31,-202.816 1263.58,-195.107 1253.09,-196.601 1256.31,-202.816"></polygon>
</g>
<!-- obj_DialEditApp_31_0&#45;&gt;dialeditDefaults_11_0 -->
<g id="edge134" class="edge"><title>obj_DialEditApp_31_0-&gt;dialeditDefaults_11_0</title>
<path fill="none" stroke="black" d="M1016.41,-303.871C1019.82,-279.67 1026.08,-235.211 1030.14,-206.393"></path>
<polygon fill="black" stroke="black" points="1033.65,-206.58 1031.58,-196.189 1026.72,-205.603 1033.65,-206.58"></polygon>
</g>
<!-- obj_DialEditApp_31_0&#45;&gt;str_statictextdata_3_0 -->
<g id="edge136" class="edge"><title>obj_DialEditApp_31_0-&gt;str_statictextdata_3_0</title>
<path fill="none" stroke="black" d="M912.602,-321.438C715.923,-321.223 297.979,-315.153 254,-268 220.07,-231.621 241.617,-168.658 258.179,-133.21"></path>
<polygon fill="black" stroke="black" points="261.439,-134.51 262.668,-123.987 255.144,-131.447 261.439,-134.51"></polygon>
</g>
<!-- obj_DialEditApp_31_0&#45;&gt;str_InputLineData_4_0 -->
<g id="edge138" class="edge"><title>obj_DialEditApp_31_0-&gt;str_InputLineData_4_0</title>
<path fill="none" stroke="black" d="M929.458,-311.971C867.92,-303.747 791.43,-289.557 768,-268 748.27,-249.847 731.646,-174.978 723.814,-134.041"></path>
<polygon fill="black" stroke="black" points="727.249,-133.369 721.973,-124.182 720.368,-134.654 727.249,-133.369"></polygon>
</g>
<!-- obj_DialEditApp_31_0&#45;&gt;Str_DialogData_4_0 -->
<g id="edge140" class="edge"><title>obj_DialEditApp_31_0-&gt;Str_DialogData_4_0</title>
<path fill="none" stroke="black" d="M1016.69,-303.871C1018.75,-284.567 1019.09,-253.131 1004,-232 982.279,-201.584 947.987,-227.583 928,-196 915.944,-176.949 923.726,-151.648 933.046,-132.893"></path>
<polygon fill="black" stroke="black" points="936.168,-134.475 937.813,-124.009 930,-131.165 936.168,-134.475"></polygon>
</g>
<!-- obj_DialEditApp_31_0&#45;&gt;str_ParamTextData_3_0 -->
<g id="edge142" class="edge"><title>obj_DialEditApp_31_0-&gt;str_ParamTextData_3_0</title>
<path fill="none" stroke="black" d="M1091.33,-310.31C1125.51,-302.716 1164.71,-289.82 1195,-268 1210.8,-256.613 1203.62,-242.549 1220,-232 1294.82,-183.799 1342.64,-244.909 1417,-196 1433.07,-185.433 1425.6,-171.522 1441,-160 1465.91,-141.36 1497.5,-129.185 1526.67,-121.272"></path>
<polygon fill="black" stroke="black" points="1527.65,-124.635 1536.46,-118.749 1525.9,-117.856 1527.65,-124.635"></polygon>
</g>
<!-- obj_DialEditApp_31_0&#45;&gt;str_ButtonData_3_0 -->
<g id="edge144" class="edge"><title>obj_DialEditApp_31_0-&gt;str_ButtonData_3_0</title>
<path fill="none" stroke="black" d="M1114.7,-319.642C1229.56,-316.302 1408.66,-305.09 1464,-268 1479.2,-257.81 1468.87,-242.299 1484,-232 1584.81,-163.383 1652.5,-260.484 1756,-196 1772.32,-185.831 1766.27,-173.463 1780,-160 1792.54,-147.709 1808.37,-136.75 1822.84,-128.033"></path>
<polygon fill="black" stroke="black" points="1824.76,-130.967 1831.63,-122.903 1821.23,-124.921 1824.76,-130.967"></polygon>
</g>
<!-- obj_DialEditApp_31_0&#45;&gt;str_ListBoxData_3_0 -->
<g id="edge146" class="edge"><title>obj_DialEditApp_31_0-&gt;str_ListBoxData_3_0</title>
<path fill="none" stroke="black" d="M1049.23,-305.076C1067.18,-295.878 1088.61,-283.132 1105,-268 1126.47,-248.177 1156.39,-177.208 1180,-160 1206.94,-140.366 1241.26,-127.912 1272.28,-120.055"></path>
<polygon fill="black" stroke="black" points="1273.32,-123.405 1282.22,-117.663 1271.68,-116.599 1273.32,-123.405"></polygon>
</g>
<!-- obj_DialEditApp_31_0&#45;&gt;str_OutOptData_3_0 -->
<g id="edge148" class="edge"><title>obj_DialEditApp_31_0-&gt;str_OutOptData_3_0</title>
<path fill="none" stroke="black" d="M1038.58,-304.407C1067.94,-283.09 1115.98,-243.16 1139,-196 1148.36,-176.82 1150.85,-152.659 1151.15,-134.352"></path>
<polygon fill="black" stroke="black" points="1154.65,-134.315 1151.1,-124.332 1147.65,-134.348 1154.65,-134.315"></polygon>
</g>
<!-- obj_DialEditApp_31_0&#45;&gt;obj_TrialParamText_13_0 -->
<g id="edge150" class="edge"><title>obj_DialEditApp_31_0-&gt;obj_TrialParamText_13_0</title>
<path fill="none" stroke="black" d="M1076.08,-307.751C1130.51,-296.136 1209.74,-279.226 1267.56,-266.887"></path>
<polygon fill="black" stroke="black" points="1268.32,-270.303 1277.37,-264.793 1266.86,-263.457 1268.32,-270.303"></polygon>
</g>
<!-- obj_DialEditApp_31_0&#45;&gt;obj_trialbutton_13_0 -->
<g id="edge152" class="edge"><title>obj_DialEditApp_31_0-&gt;obj_trialbutton_13_0</title>
<path fill="none" stroke="black" d="M1099.84,-312.361C1193.27,-302.692 1346.97,-286.004 1479,-268 1488.41,-266.717 1498.26,-265.28 1508.02,-263.798"></path>
<polygon fill="black" stroke="black" points="1508.79,-267.222 1518.14,-262.243 1507.73,-260.303 1508.79,-267.222"></polygon>
</g>
<!-- obj_DialEditApp_31_0&#45;&gt;obj_TrialInputLine_14_0 -->
<g id="edge154" class="edge"><title>obj_DialEditApp_31_0-&gt;obj_TrialInputLine_14_0</title>
<path fill="none" stroke="black" d="M984.313,-304.765C966.588,-295.072 943.88,-282.653 924.753,-272.193"></path>
<polygon fill="black" stroke="black" points="926.423,-269.117 915.97,-267.39 923.064,-275.259 926.423,-269.117"></polygon>
</g>
<!-- obj_DialEditApp_31_0&#45;&gt;obj_TrialCluster_13_0 -->
<g id="edge156" class="edge"><title>obj_DialEditApp_31_0-&gt;obj_TrialCluster_13_0</title>
<path fill="none" stroke="black" d="M946.704,-308.405C881.992,-296.293 784.286,-278.005 716.616,-265.34"></path>
<polygon fill="black" stroke="black" points="716.914,-261.835 706.441,-263.435 715.626,-268.715 716.914,-261.835"></polygon>
</g>
<!-- obj_TrialCluster_13_0&#45;&gt;TVinput_4_2 -->
<g id="edge164" class="edge"><title>obj_TrialCluster_13_0-&gt;TVinput_4_2</title>
<path fill="none" stroke="black" d="M564.006,-238.458C546.605,-236.191 528.176,-233.906 511,-232 466.758,-227.091 142.028,-228.86 112,-196 79.6197,-160.567 83.4285,-126.57 112,-88 135.195,-56.6877 176.457,-43.2476 212.98,-37.7253"></path>
<polygon fill="black" stroke="black" points="213.688,-41.162 223.137,-36.3694 212.761,-34.2235 213.688,-41.162"></polygon>
</g>
<!-- obj_TrialCluster_13_0&#45;&gt;obj_TrialLabel_8_0 -->
<g id="edge168" class="edge"><title>obj_TrialCluster_13_0-&gt;obj_TrialLabel_8_0</title>
<path fill="none" stroke="black" d="M612.334,-232.588C596.208,-223.022 575.682,-210.845 558.273,-200.518"></path>
<polygon fill="black" stroke="black" points="559.879,-197.401 549.492,-195.309 556.307,-203.421 559.879,-197.401"></polygon>
</g>
<!-- obj_TrialCluster_13_0&#45;&gt;DialEditBase_3_0 -->
<g id="edge158" class="edge"><title>obj_TrialCluster_13_0-&gt;DialEditBase_3_0</title>
<path fill="none" stroke="black" d="M574.59,-236.329C450.699,-211.678 191.908,-156.811 167,-124 157.326,-111.256 156.397,-99.9828 167,-88 178.399,-75.1165 392.237,-53.7386 514.696,-42.474"></path>
<polygon fill="black" stroke="black" points="515.162,-45.9461 524.801,-41.5484 514.523,-38.9753 515.162,-45.9461"></polygon>
</g>
<!-- obj_TrialCluster_13_0&#45;&gt;DialEditBFctn_4_1 -->
<g id="edge160" class="edge"><title>obj_TrialCluster_13_0-&gt;DialEditBFctn_4_1</title>
<path fill="none" stroke="black" d="M640.368,-231.898C639.887,-212.328 636.226,-180.362 619,-160 604.18,-142.482 582.58,-130.636 561.436,-122.677"></path>
<polygon fill="black" stroke="black" points="562.374,-119.297 551.779,-119.287 560.055,-125.902 562.374,-119.297"></polygon>
</g>
<!-- obj_TrialCluster_13_0&#45;&gt;Obj_EditControlDlg_8_0 -->
<g id="edge162" class="edge"><title>obj_TrialCluster_13_0-&gt;Obj_EditControlDlg_8_0</title>
<path fill="none" stroke="black" d="M716.09,-238.445C733.156,-236.203 751.186,-233.932 768,-232 932.581,-213.092 974.186,-212.752 1139,-196 1158.73,-193.994 1179.83,-191.794 1200.01,-189.66"></path>
<polygon fill="black" stroke="black" points="1200.58,-193.12 1210.15,-188.586 1199.84,-186.159 1200.58,-193.12"></polygon>
</g>
<!-- obj_TrialCluster_13_0&#45;&gt;dialeditDefaults_11_0 -->
<g id="edge166" class="edge"><title>obj_TrialCluster_13_0-&gt;dialeditDefaults_11_0</title>
<path fill="none" stroke="black" d="M708.18,-236.887C777.387,-224.591 884.365,-205.585 956.687,-192.736"></path>
<polygon fill="black" stroke="black" points="957.421,-196.16 966.655,-190.965 956.197,-189.268 957.421,-196.16"></polygon>
</g>
</g>
</svg>
