<?xml version="1.0" standalone="no"?>
<!--?xml version="1.0" encoding="UTF-8" standalone="no"?-->
<!-- Generated by graphviz version 2.28.0 (20110507.0327)
 -->
<!-- Title: Classes Pages: 1 -->
<svg width="3448pt" height="692pt" viewBox="0.00 0.00 3448.00 692.00" xmlns="http://www.w3.org/2000/svg" xmlns:xlink="http://www.w3.org/1999/xlink">
<g id="graph1" class="graph" transform="scale(1 1) rotate(0) translate(4 688)">
<title>Classes</title>
<polygon fill="white" stroke="white" points="-4,5 -4,-688 3445,-688 3445,5 -4,5"></polygon>
<!-- Stemma_40_0 -->
<g id="node1" class="node"><title>Stemma_40_0</title>
<polygon fill="none" stroke="black" points="2040.16,-684 1943.84,-684 1943.84,-648 2040.16,-648 2040.16,-684"></polygon>
<text text-anchor="middle" x="1992" y="-661.8" font-family="Times,serif" font-size="14.00">Stemma_40_0</text>
</g>
<!-- frm_Main_44_5 -->
<g id="node3" class="node"><title>frm_Main_44_5</title>
<ellipse fill="none" stroke="black" cx="1757" cy="-594" rx="73.9987" ry="18"></ellipse>
<text text-anchor="middle" x="1757" y="-589.8" font-family="Times,serif" font-size="14.00">frm_Main_44_5</text>
</g>
<!-- Stemma_40_0&#45;&gt;frm_Main_44_5 -->
<g id="edge2" class="edge"><title>Stemma_40_0-&gt;frm_Main_44_5</title>
<path fill="none" stroke="black" d="M1943.59,-650.581C1905.32,-639.18 1851.87,-623.261 1811.99,-611.38"></path>
<polygon fill="black" stroke="black" points="1812.74,-607.952 1802.16,-608.451 1810.74,-614.66 1812.74,-607.952"></polygon>
</g>
<!-- FMUtils_5_2 -->
<g id="node5" class="node"><title>FMUtils_5_2</title>
<ellipse fill="none" stroke="black" cx="1273" cy="-234" rx="63.1211" ry="18"></ellipse>
<text text-anchor="middle" x="1273" y="-229.8" font-family="Times,serif" font-size="14.00">FMUtils_5_2</text>
</g>
<!-- Stemma_40_0&#45;&gt;FMUtils_5_2 -->
<g id="edge4" class="edge"><title>Stemma_40_0-&gt;FMUtils_5_2</title>
<path fill="none" stroke="black" d="M1943.52,-664.45C1733.21,-661.843 908.718,-649.273 869,-612 786.96,-535.011 779.949,-451.794 845,-360 887.101,-300.591 1098.46,-260.994 1207.57,-244.173"></path>
<polygon fill="black" stroke="black" points="1208.13,-247.629 1217.49,-242.664 1207.07,-240.709 1208.13,-247.629"></polygon>
</g>
<!-- frm_ConnectDB_9_2 -->
<g id="node7" class="node"><title>frm_ConnectDB_9_2</title>
<ellipse fill="none" stroke="black" cx="717" cy="-234" rx="94.572" ry="18"></ellipse>
<text text-anchor="middle" x="717" y="-229.8" font-family="Times,serif" font-size="14.00">frm_ConnectDB_9_2</text>
</g>
<!-- Stemma_40_0&#45;&gt;frm_ConnectDB_9_2 -->
<g id="edge6" class="edge"><title>Stemma_40_0-&gt;frm_ConnectDB_9_2</title>
<path fill="none" stroke="black" d="M1943.76,-665.246C1674.89,-666.393 367.451,-668.987 198,-612 145.748,-594.428 131.871,-582.697 97,-540 65.3323,-501.226 40.9661,-475.916 65,-432 121.998,-327.85 178.326,-328.31 290,-288 395.544,-249.903 524.241,-238.267 612.583,-235.155"></path>
<polygon fill="black" stroke="black" points="612.731,-238.652 622.613,-234.832 612.506,-231.656 612.731,-238.652"></polygon>
</g>
<!-- frm_parents_11_3 -->
<g id="node9" class="node"><title>frm_parents_11_3</title>
<ellipse fill="none" stroke="black" cx="394" cy="-450" rx="81.2514" ry="18"></ellipse>
<text text-anchor="middle" x="394" y="-445.8" font-family="Times,serif" font-size="14.00">frm_parents_11_3</text>
</g>
<!-- Stemma_40_0&#45;&gt;frm_parents_11_3 -->
<g id="edge8" class="edge"><title>Stemma_40_0-&gt;frm_parents_11_3</title>
<path fill="none" stroke="black" d="M1943.64,-664.801C1689.88,-663.571 521.207,-655.554 459,-612 415.063,-581.238 400.801,-515.458 396.189,-478.201"></path>
<polygon fill="black" stroke="black" points="399.648,-477.626 395.087,-468.063 392.689,-478.383 399.648,-477.626"></polygon>
</g>
<!-- frm_History_8_3 -->
<g id="node11" class="node"><title>frm_History_8_3</title>
<ellipse fill="none" stroke="black" cx="673" cy="-522" rx="78.13" ry="18"></ellipse>
<text text-anchor="middle" x="673" y="-517.8" font-family="Times,serif" font-size="14.00">frm_History_8_3</text>
</g>
<!-- Stemma_40_0&#45;&gt;frm_History_8_3 -->
<g id="edge10" class="edge"><title>Stemma_40_0-&gt;frm_History_8_3</title>
<path fill="none" stroke="black" d="M1943.71,-664.931C1729.93,-664.356 874.574,-659.104 765,-612 733.639,-598.518 706.789,-569.172 690.328,-547.853"></path>
<polygon fill="black" stroke="black" points="693.129,-545.754 684.336,-539.844 687.524,-549.948 693.129,-545.754"></polygon>
</g>
<!-- frm_Children_12_3 -->
<g id="node13" class="node"><title>frm_Children_12_3</title>
<ellipse fill="none" stroke="black" cx="458" cy="-306" rx="87.615" ry="18"></ellipse>
<text text-anchor="middle" x="458" y="-301.8" font-family="Times,serif" font-size="14.00">frm_Children_12_3</text>
</g>
<!-- Stemma_40_0&#45;&gt;frm_Children_12_3 -->
<g id="edge12" class="edge"><title>Stemma_40_0-&gt;frm_Children_12_3</title>
<path fill="none" stroke="black" d="M1943.57,-664.442C1705.69,-661.54 670.204,-646.933 612,-612 580.235,-592.935 586.016,-573.406 570,-540 532.96,-462.744 543.855,-434.188 501,-360 495.341,-350.203 487.921,-340.341 480.842,-331.826"></path>
<polygon fill="black" stroke="black" points="483.396,-329.428 474.227,-324.12 478.084,-333.987 483.396,-329.428"></polygon>
</g>
<!-- frm_Siblings_10_3 -->
<g id="node15" class="node"><title>frm_Siblings_10_3</title>
<ellipse fill="none" stroke="black" cx="170" cy="-450" rx="85.4138" ry="18"></ellipse>
<text text-anchor="middle" x="170" y="-445.8" font-family="Times,serif" font-size="14.00">frm_Siblings_10_3</text>
</g>
<!-- Stemma_40_0&#45;&gt;frm_Siblings_10_3 -->
<g id="edge14" class="edge"><title>Stemma_40_0-&gt;frm_Siblings_10_3</title>
<path fill="none" stroke="black" d="M1943.53,-664.874C1695.27,-664.029 572.025,-657.687 424,-612 331.438,-583.431 239.623,-511.702 196.096,-474.382"></path>
<polygon fill="black" stroke="black" points="198.142,-471.523 188.294,-467.616 193.555,-476.812 198.142,-471.523"></polygon>
</g>
<!-- frm_Events_11_6 -->
<g id="node17" class="node"><title>frm_Events_11_6</title>
<ellipse fill="none" stroke="black" cx="1874" cy="-450" rx="80.3475" ry="18"></ellipse>
<text text-anchor="middle" x="1874" y="-445.8" font-family="Times,serif" font-size="14.00">frm_Events_11_6</text>
</g>
<!-- Stemma_40_0&#45;&gt;frm_Events_11_6 -->
<g id="edge16" class="edge"><title>Stemma_40_0-&gt;frm_Events_11_6</title>
<path fill="none" stroke="black" d="M1982.54,-647.849C1961.91,-610.426 1912.74,-521.255 1888.3,-476.93"></path>
<polygon fill="black" stroke="black" points="1891.23,-475.002 1883.34,-467.935 1885.1,-478.382 1891.23,-475.002"></polygon>
</g>
<!-- frm_Documents_12_3 -->
<g id="node19" class="node"><title>frm_Documents_12_3</title>
<ellipse fill="none" stroke="black" cx="2344" cy="-234" rx="97.3964" ry="18"></ellipse>
<text text-anchor="middle" x="2344" y="-229.8" font-family="Times,serif" font-size="14.00">frm_Documents_12_3</text>
</g>
<!-- Stemma_40_0&#45;&gt;frm_Documents_12_3 -->
<g id="edge18" class="edge"><title>Stemma_40_0-&gt;frm_Documents_12_3</title>
<path fill="none" stroke="black" d="M2040.29,-665.03C2233.99,-664.818 2948.36,-660.71 3036,-612 3070.05,-593.074 3074.36,-577.179 3086,-540 3119.78,-432.15 3137.94,-361.394 3052,-288 3007.42,-249.927 2638.08,-239.172 2451.3,-236.158"></path>
<polygon fill="black" stroke="black" points="2451.23,-232.657 2441.18,-236 2451.12,-239.656 2451.23,-232.657"></polygon>
</g>
<!-- frm_Ancesters_11_3 -->
<g id="node21" class="node"><title>frm_Ancesters_11_3</title>
<ellipse fill="none" stroke="black" cx="1387" cy="-450" rx="92.028" ry="18"></ellipse>
<text text-anchor="middle" x="1387" y="-445.8" font-family="Times,serif" font-size="14.00">frm_Ancesters_11_3</text>
</g>
<!-- Stemma_40_0&#45;&gt;frm_Ancesters_11_3 -->
<g id="edge20" class="edge"><title>Stemma_40_0-&gt;frm_Ancesters_11_3</title>
<path fill="none" stroke="black" d="M1943.74,-663.266C1817.21,-658.314 1482.97,-642.463 1444,-612 1402.54,-579.59 1391.17,-514.735 1388.1,-478"></path>
<polygon fill="black" stroke="black" points="1391.59,-477.738 1387.41,-468.002 1384.6,-478.219 1391.59,-477.738"></polygon>
</g>
<!-- frm_Descendants_10_3 -->
<g id="node23" class="node"><title>frm_Descendants_10_3</title>
<ellipse fill="none" stroke="black" cx="1136" cy="-450" rx="102.621" ry="18"></ellipse>
<text text-anchor="middle" x="1136" y="-445.8" font-family="Times,serif" font-size="14.00">frm_Descendants_10_3</text>
</g>
<!-- Stemma_40_0&#45;&gt;frm_Descendants_10_3 -->
<g id="edge22" class="edge"><title>Stemma_40_0-&gt;frm_Descendants_10_3</title>
<path fill="none" stroke="black" d="M1943.43,-663.27C1822.49,-658.531 1510.59,-643.539 1412,-612 1314.06,-580.67 1213.24,-510.296 1165.07,-473.849"></path>
<polygon fill="black" stroke="black" points="1167.04,-470.954 1156.97,-467.667 1162.8,-476.517 1167.04,-470.954"></polygon>
</g>
<!-- frm_EditDocuments_13_5 -->
<g id="node25" class="node"><title>frm_EditDocuments_13_5</title>
<ellipse fill="none" stroke="black" cx="2816" cy="-162" rx="114.039" ry="18"></ellipse>
<text text-anchor="middle" x="2816" y="-157.8" font-family="Times,serif" font-size="14.00">frm_EditDocuments_13_5</text>
</g>
<!-- Stemma_40_0&#45;&gt;frm_EditDocuments_13_5 -->
<g id="edge24" class="edge"><title>Stemma_40_0-&gt;frm_EditDocuments_13_5</title>
<path fill="none" stroke="black" d="M2040.44,-664.302C2237.3,-661.236 2971.67,-647.501 3069,-612 3130.38,-589.613 3186,-588.335 3186,-523 3186,-523 3186,-523 3186,-377 3186,-249.811 3020.14,-197.006 2910.52,-175.995"></path>
<polygon fill="black" stroke="black" points="2910.89,-172.505 2900.42,-174.119 2909.61,-179.387 2910.89,-172.505"></polygon>
</g>
<!-- frm_ShowImage_11_1 -->
<g id="node27" class="node"><title>frm_ShowImage_11_1</title>
<ellipse fill="none" stroke="black" cx="2906" cy="-90" rx="100.112" ry="18"></ellipse>
<text text-anchor="middle" x="2906" y="-85.8" font-family="Times,serif" font-size="14.00">frm_ShowImage_11_1</text>
</g>
<!-- Stemma_40_0&#45;&gt;frm_ShowImage_11_1 -->
<g id="edge26" class="edge"><title>Stemma_40_0-&gt;frm_ShowImage_11_1</title>
<path fill="none" stroke="black" d="M2040.21,-664.835C2244.09,-663.856 3029.68,-657.163 3130,-612 3262.8,-552.215 3257.96,-410.377 3179,-288 3123.09,-201.344 3014.57,-140.558 2952.51,-111.145"></path>
<polygon fill="black" stroke="black" points="2953.88,-107.921 2943.34,-106.865 2950.92,-114.264 2953.88,-107.921"></polygon>
</g>
<!-- frm_Images_8_4 -->
<g id="node29" class="node"><title>frm_Images_8_4</title>
<ellipse fill="none" stroke="black" cx="2153" cy="-162" rx="77.0075" ry="18"></ellipse>
<text text-anchor="middle" x="2153" y="-157.8" font-family="Times,serif" font-size="14.00">frm_Images_8_4</text>
</g>
<!-- Stemma_40_0&#45;&gt;frm_Images_8_4 -->
<g id="edge28" class="edge"><title>Stemma_40_0-&gt;frm_Images_8_4</title>
<path fill="none" stroke="black" d="M2040.47,-664.019C2174.71,-660.857 2549.17,-648.884 2666,-612 2726.04,-593.044 2756.78,-594.675 2788,-540 2795.93,-526.106 2798.72,-515.877 2788,-504 2735.46,-445.797 2508.15,-500.943 2437,-468 2303.67,-406.269 2203.16,-250.55 2167.3,-188.802"></path>
<polygon fill="black" stroke="black" points="2170.3,-186.999 2162.29,-180.061 2164.23,-190.478 2170.3,-186.999"></polygon>
</g>
<!-- frm_EditParents_15_6 -->
<g id="node31" class="node"><title>frm_EditParents_15_6</title>
<ellipse fill="none" stroke="black" cx="394" cy="-378" rx="98.2029" ry="18"></ellipse>
<text text-anchor="middle" x="394" y="-373.8" font-family="Times,serif" font-size="14.00">frm_EditParents_15_6</text>
</g>
<!-- Stemma_40_0&#45;&gt;frm_EditParents_15_6 -->
<g id="edge30" class="edge"><title>Stemma_40_0-&gt;frm_EditParents_15_6</title>
<path fill="none" stroke="black" d="M1943.54,-664.778C1687.52,-663.427 498.03,-654.872 340,-612 210.633,-576.904 143.516,-583.209 75,-468 66.8216,-454.248 64.6549,-444.206 75,-432 102.049,-400.086 205.718,-387.368 287.629,-382.312"></path>
<polygon fill="black" stroke="black" points="287.979,-385.797 297.757,-381.718 287.57,-378.809 287.979,-385.797"></polygon>
</g>
<!-- frm_EditCitations_13_3 -->
<g id="node33" class="node"><title>frm_EditCitations_13_3</title>
<ellipse fill="none" stroke="black" cx="669" cy="-306" rx="104.378" ry="18"></ellipse>
<text text-anchor="middle" x="669" y="-301.8" font-family="Times,serif" font-size="14.00">frm_EditCitations_13_3</text>
</g>
<!-- Stemma_40_0&#45;&gt;frm_EditCitations_13_3 -->
<g id="edge32" class="edge"><title>Stemma_40_0-&gt;frm_EditCitations_13_3</title>
<path fill="none" stroke="black" d="M1943.79,-664.332C1725.35,-661.128 833.819,-646.055 714,-612 651.215,-594.155 618.952,-596.343 586,-540 544.962,-469.832 609.999,-376.034 646.675,-331.919"></path>
<polygon fill="black" stroke="black" points="649.571,-333.916 653.377,-324.029 644.236,-329.385 649.571,-333.916"></polygon>
</g>
<!-- frm_EditName_17_4 -->
<g id="node35" class="node"><title>frm_EditName_17_4</title>
<ellipse fill="none" stroke="black" cx="947" cy="-378" rx="93.1519" ry="18"></ellipse>
<text text-anchor="middle" x="947" y="-373.8" font-family="Times,serif" font-size="14.00">frm_EditName_17_4</text>
</g>
<!-- Stemma_40_0&#45;&gt;frm_EditName_17_4 -->
<g id="edge34" class="edge"><title>Stemma_40_0-&gt;frm_EditName_17_4</title>
<path fill="none" stroke="black" d="M1943.58,-664.496C1736.42,-662.106 933.576,-650.389 897,-612 841.816,-554.08 867.465,-506.348 897,-432 901.407,-420.907 909.358,-410.791 917.642,-402.439"></path>
<polygon fill="black" stroke="black" points="920.05,-404.979 924.927,-395.573 915.249,-399.885 920.05,-404.979"></polygon>
</g>
<!-- frm_EditEvents_17_11 -->
<g id="node37" class="node"><title>frm_EditEvents_17_11</title>
<ellipse fill="none" stroke="black" cx="1843" cy="-378" rx="101.233" ry="18"></ellipse>
<text text-anchor="middle" x="1843" y="-373.8" font-family="Times,serif" font-size="14.00">frm_EditEvents_17_11</text>
</g>
<!-- Stemma_40_0&#45;&gt;frm_EditEvents_17_11 -->
<g id="edge36" class="edge"><title>Stemma_40_0-&gt;frm_EditEvents_17_11</title>
<path fill="none" stroke="black" d="M2040.42,-662.933C2225.14,-654.191 2870.16,-615.433 2768,-504 2736.8,-469.966 2399.79,-473.967 2354,-468 2197.74,-447.637 2016.34,-413.527 1917.18,-393.979"></path>
<polygon fill="black" stroke="black" points="1917.75,-390.523 1907.26,-392.017 1916.39,-397.39 1917.75,-390.523"></polygon>
</g>
<!-- frm_EditWitness_13_5 -->
<g id="node39" class="node"><title>frm_EditWitness_13_5</title>
<ellipse fill="none" stroke="black" cx="1653" cy="-306" rx="101.23" ry="18"></ellipse>
<text text-anchor="middle" x="1653" y="-301.8" font-family="Times,serif" font-size="14.00">frm_EditWitness_13_5</text>
</g>
<!-- Stemma_40_0&#45;&gt;frm_EditWitness_13_5 -->
<g id="edge38" class="edge"><title>Stemma_40_0-&gt;frm_EditWitness_13_5</title>
<path fill="none" stroke="black" d="M1943.66,-663.376C1870.95,-659.786 1729.83,-648.334 1616,-612 1549.72,-590.843 1513.15,-599.443 1477,-540 1468.69,-526.33 1471.3,-518.948 1477,-504 1506.05,-427.877 1579.54,-362.534 1621.8,-329.67"></path>
<polygon fill="black" stroke="black" points="1624,-332.394 1629.81,-323.536 1619.75,-326.835 1624,-332.394"></polygon>
</g>
<!-- frm_Places_13_4 -->
<g id="node41" class="node"><title>frm_Places_13_4</title>
<ellipse fill="none" stroke="black" cx="1565" cy="-522" rx="78.4249" ry="18"></ellipse>
<text text-anchor="middle" x="1565" y="-517.8" font-family="Times,serif" font-size="14.00">frm_Places_13_4</text>
</g>
<!-- Stemma_40_0&#45;&gt;frm_Places_13_4 -->
<g id="edge40" class="edge"><title>Stemma_40_0-&gt;frm_Places_13_4</title>
<path fill="none" stroke="black" d="M1943.72,-664.577C1879.4,-662.348 1763.36,-652.438 1674,-612 1639.9,-596.571 1607.58,-567.739 1587.12,-547.069"></path>
<polygon fill="black" stroke="black" points="1589.61,-544.609 1580.14,-539.863 1584.59,-549.48 1589.61,-544.609"></polygon>
</g>
<!-- frm_Usage_10_7 -->
<g id="node43" class="node"><title>frm_Usage_10_7</title>
<ellipse fill="none" stroke="black" cx="2617" cy="-450" rx="78.1169" ry="18"></ellipse>
<text text-anchor="middle" x="2617" y="-445.8" font-family="Times,serif" font-size="14.00">frm_Usage_10_7</text>
</g>
<!-- Stemma_40_0&#45;&gt;frm_Usage_10_7 -->
<g id="edge42" class="edge"><title>Stemma_40_0-&gt;frm_Usage_10_7</title>
<path fill="none" stroke="black" d="M2040.19,-664.05C2225.82,-660.159 2885.68,-644.109 2916,-612 2948.95,-577.101 2946.84,-540.784 2916,-504 2889.34,-472.199 2782.39,-459.467 2703.99,-454.377"></path>
<polygon fill="black" stroke="black" points="2703.81,-450.86 2693.61,-453.737 2703.38,-457.846 2703.81,-450.86"></polygon>
</g>
<!-- frm_Sources_13_5 -->
<g id="node45" class="node"><title>frm_Sources_13_5</title>
<ellipse fill="none" stroke="black" cx="2489" cy="-378" rx="84.2771" ry="18"></ellipse>
<text text-anchor="middle" x="2489" y="-373.8" font-family="Times,serif" font-size="14.00">frm_Sources_13_5</text>
</g>
<!-- Stemma_40_0&#45;&gt;frm_Sources_13_5 -->
<g id="edge44" class="edge"><title>Stemma_40_0-&gt;frm_Sources_13_5</title>
<path fill="none" stroke="black" d="M2040.36,-663.923C2221.24,-659.663 2849.08,-642.706 2878,-612 2910.91,-577.06 2910.15,-539.645 2878,-504 2825.93,-446.266 2593.23,-513.242 2530,-468 2509.85,-453.584 2499.36,-426.772 2494.06,-406.33"></path>
<polygon fill="black" stroke="black" points="2497.4,-405.27 2491.73,-396.321 2490.59,-406.853 2497.4,-405.27"></polygon>
</g>
<!-- frm_Repositories_13_4 -->
<g id="node47" class="node"><title>frm_Repositories_13_4</title>
<ellipse fill="none" stroke="black" cx="2310" cy="-522" rx="102.338" ry="18"></ellipse>
<text text-anchor="middle" x="2310" y="-517.8" font-family="Times,serif" font-size="14.00">frm_Repositories_13_4</text>
</g>
<!-- Stemma_40_0&#45;&gt;frm_Repositories_13_4 -->
<g id="edge46" class="edge"><title>Stemma_40_0-&gt;frm_Repositories_13_4</title>
<path fill="none" stroke="black" d="M2030.36,-647.871C2089.44,-621.49 2202.43,-571.036 2265.18,-543.012"></path>
<polygon fill="black" stroke="black" points="2266.73,-546.153 2274.44,-538.88 2263.88,-539.762 2266.73,-546.153"></polygon>
</g>
<!-- frm_EditSource_17_8 -->
<g id="node49" class="node"><title>frm_EditSource_17_8</title>
<ellipse fill="none" stroke="black" cx="2665" cy="-306" rx="96.2875" ry="18"></ellipse>
<text text-anchor="middle" x="2665" y="-301.8" font-family="Times,serif" font-size="14.00">frm_EditSource_17_8</text>
</g>
<!-- Stemma_40_0&#45;&gt;frm_EditSource_17_8 -->
<g id="edge48" class="edge"><title>Stemma_40_0-&gt;frm_EditSource_17_8</title>
<path fill="none" stroke="black" d="M2040.44,-664.19C2232.67,-660.743 2932.9,-645.895 2965,-612 3042.93,-529.711 3008.67,-437.528 2926,-360 2902.07,-337.558 2824.47,-323.71 2760.05,-315.825"></path>
<polygon fill="black" stroke="black" points="2760.18,-312.316 2749.84,-314.61 2759.36,-319.267 2760.18,-312.316"></polygon>
</g>
<!-- frm_Types_12_5 -->
<g id="node51" class="node"><title>frm_Types_12_5</title>
<ellipse fill="none" stroke="black" cx="2840" cy="-378" rx="77.3215" ry="18"></ellipse>
<text text-anchor="middle" x="2840" y="-373.8" font-family="Times,serif" font-size="14.00">frm_Types_12_5</text>
</g>
<!-- Stemma_40_0&#45;&gt;frm_Types_12_5 -->
<g id="edge50" class="edge"><title>Stemma_40_0-&gt;frm_Types_12_5</title>
<path fill="none" stroke="black" d="M2040.2,-664.125C2229.06,-660.467 2909.77,-645.026 2941,-612 2999.68,-549.948 2911.72,-448.39 2865.45,-402.646"></path>
<polygon fill="black" stroke="black" points="2867.75,-400.002 2858.14,-395.542 2862.87,-405.022 2867.75,-400.002"></polygon>
</g>
<!-- frm_EditTypes_10_4 -->
<g id="node53" class="node"><title>frm_EditTypes_10_4</title>
<ellipse fill="none" stroke="black" cx="2950" cy="-306" rx="93.4642" ry="18"></ellipse>
<text text-anchor="middle" x="2950" y="-301.8" font-family="Times,serif" font-size="14.00">frm_EditTypes_10_4</text>
</g>
<!-- Stemma_40_0&#45;&gt;frm_EditTypes_10_4 -->
<g id="edge52" class="edge"><title>Stemma_40_0-&gt;frm_EditTypes_10_4</title>
<path fill="none" stroke="black" d="M2040.32,-664.6C2228.44,-662.748 2905.68,-653.251 2992,-612 3039.99,-589.068 3072,-576.187 3072,-523 3072,-523 3072,-523 3072,-449 3072,-396.266 3022.99,-353.336 2987.1,-328.966"></path>
<polygon fill="black" stroke="black" points="2988.57,-325.746 2978.3,-323.176 2984.73,-331.595 2988.57,-325.746"></polygon>
</g>
<!-- frm_About_11_1 -->
<g id="node55" class="node"><title>frm_About_11_1</title>
<ellipse fill="none" stroke="black" cx="3334" cy="-522" rx="78.1343" ry="18"></ellipse>
<text text-anchor="middle" x="3334" y="-517.8" font-family="Times,serif" font-size="14.00">frm_About_11_1</text>
</g>
<!-- Stemma_40_0&#45;&gt;frm_About_11_1 -->
<g id="edge54" class="edge"><title>Stemma_40_0-&gt;frm_About_11_1</title>
<path fill="none" stroke="black" d="M2040.47,-664.972C2257.03,-664.577 3130.23,-659.994 3242,-612 3273.37,-598.531 3300.22,-569.182 3316.67,-547.859"></path>
<polygon fill="black" stroke="black" points="3319.48,-549.953 3322.67,-539.848 3313.87,-545.76 3319.48,-549.953"></polygon>
</g>
<!-- frm_SelectPerson_12_2 -->
<g id="node57" class="node"><title>frm_SelectPerson_12_2</title>
<ellipse fill="none" stroke="black" cx="2390" cy="-162" rx="103.242" ry="18"></ellipse>
<text text-anchor="middle" x="2390" y="-157.8" font-family="Times,serif" font-size="14.00">frm_SelectPerson_12_2</text>
</g>
<!-- Stemma_40_0&#45;&gt;frm_SelectPerson_12_2 -->
<g id="edge56" class="edge"><title>Stemma_40_0-&gt;frm_SelectPerson_12_2</title>
<path fill="none" stroke="black" d="M2040.4,-665.597C2183.59,-666.726 2602.9,-665.279 2727,-612 2770.65,-593.259 2786.81,-583.457 2806,-540 2812.46,-525.364 2816.63,-515.956 2806,-504 2760.5,-452.835 2564.1,-492.062 2500,-468 2447.02,-448.115 2421.37,-446.062 2395,-396 2387.54,-381.844 2391.27,-375.558 2395,-360 2401.28,-333.811 2443.72,-278.189 2450,-252 2453.73,-236.442 2456.58,-230.586 2450,-216 2444.68,-204.203 2435.29,-193.976 2425.5,-185.738"></path>
<polygon fill="black" stroke="black" points="2427.66,-182.983 2417.63,-179.566 2423.34,-188.491 2427.66,-182.983"></polygon>
</g>
<!-- dm_GenData_11_3 -->
<g id="node59" class="node"><title>dm_GenData_11_3</title>
<ellipse fill="none" stroke="black" cx="1653" cy="-90" rx="86.4941" ry="18"></ellipse>
<text text-anchor="middle" x="1653" y="-85.8" font-family="Times,serif" font-size="14.00">dm_GenData_11_3</text>
</g>
<!-- Stemma_40_0&#45;&gt;dm_GenData_11_3 -->
<g id="edge58" class="edge"><title>Stemma_40_0-&gt;dm_GenData_11_3</title>
<path fill="none" stroke="black" d="M1943.46,-663.399C1810.8,-658.665 1444.34,-643.074 1328,-612 1183.56,-573.42 1103.95,-594.331 1024,-468 1015.44,-454.48 1018.62,-447.067 1024,-432 1029.22,-417.391 1189.57,-226.492 1201,-216 1242.68,-177.734 1253.38,-164.795 1306,-144 1387.17,-111.927 1486.11,-99.1523 1557.54,-94.1212"></path>
<polygon fill="black" stroke="black" points="1558.13,-97.5899 1567.88,-93.4337 1557.67,-90.6053 1558.13,-97.5899"></polygon>
</g>
<!-- cls_Translation_2_0 -->
<g id="node61" class="node"><title>cls_Translation_2_0</title>
<ellipse fill="none" stroke="black" cx="1991" cy="-18" rx="89.3275" ry="18"></ellipse>
<text text-anchor="middle" x="1991" y="-13.8" font-family="Times,serif" font-size="14.00">cls_Translation_2_0</text>
</g>
<!-- Stemma_40_0&#45;&gt;cls_Translation_2_0 -->
<g id="edge60" class="edge"><title>Stemma_40_0-&gt;cls_Translation_2_0</title>
<path fill="none" stroke="black" d="M2040.19,-664.238C2259.57,-660.605 3158.51,-643.881 3280,-612 3358.71,-591.346 3440,-604.372 3440,-523 3440,-523 3440,-523 3440,-161 3440,-80.4035 3359.52,-94.0416 3282,-72 3168.71,-39.788 2372.34,-24.7569 2089.98,-20.3972"></path>
<polygon fill="black" stroke="black" points="2089.8,-16.8942 2079.75,-20.2405 2089.69,-23.8934 2089.8,-16.8942"></polygon>
</g>
<!-- frm_SelectDialog_9_0 -->
<g id="node63" class="node"><title>frm_SelectDialog_9_0</title>
<ellipse fill="none" stroke="black" cx="2661" cy="-522" rx="98.4981" ry="18"></ellipse>
<text text-anchor="middle" x="2661" y="-517.8" font-family="Times,serif" font-size="14.00">frm_SelectDialog_9_0</text>
</g>
<!-- Stemma_40_0&#45;&gt;frm_SelectDialog_9_0 -->
<g id="edge62" class="edge"><title>Stemma_40_0-&gt;frm_SelectDialog_9_0</title>
<path fill="none" stroke="black" d="M2040.38,-654.731C2156.63,-630.056 2452.14,-567.332 2589.18,-538.243"></path>
<polygon fill="black" stroke="black" points="2590.11,-541.624 2599.17,-536.124 2588.66,-534.777 2590.11,-541.624"></polygon>
</g>
<!-- frm_Main_44_5&#45;&gt;FMUtils_5_2 -->
<g id="edge64" class="edge"><title>frm_Main_44_5-&gt;FMUtils_5_2</title>
<path fill="none" stroke="black" d="M1686.62,-588.101C1618.76,-581.896 1513.87,-568.374 1427,-540 1360.11,-518.154 1324.59,-526.836 1286,-468 1244.15,-404.2 1256.84,-308.171 1266.47,-261.861"></path>
<polygon fill="black" stroke="black" points="1269.92,-262.5 1268.64,-251.983 1263.08,-261 1269.92,-262.5"></polygon>
</g>
<!-- frm_Main_44_5&#45;&gt;frm_ConnectDB_9_2 -->
<g id="edge66" class="edge"><title>frm_Main_44_5-&gt;frm_ConnectDB_9_2</title>
<path fill="none" stroke="black" d="M1683.03,-592.639C1534.19,-591.004 1203.84,-582.534 1100,-540 1076.94,-530.553 1077.95,-517.498 1057,-504 1025.92,-483.977 1014.85,-484.964 982,-468 952.657,-452.848 946.22,-447.388 917,-432 885.344,-415.329 871.1,-420.47 845,-396 804.461,-357.992 818.113,-330.236 782,-288 772.575,-276.976 760.643,-266.507 749.583,-257.83"></path>
<polygon fill="black" stroke="black" points="751.428,-254.836 741.351,-251.564 747.188,-260.406 751.428,-254.836"></polygon>
</g>
<!-- frm_Main_44_5&#45;&gt;frm_parents_11_3 -->
<g id="edge68" class="edge"><title>frm_Main_44_5-&gt;frm_parents_11_3</title>
<path fill="none" stroke="black" d="M1683.24,-591.779C1537.63,-588.559 1203.61,-577.321 926,-540 847.302,-529.42 829.292,-517.256 751,-504 631.637,-483.791 600.631,-486.559 481,-468 474.37,-466.971 467.491,-465.854 460.633,-464.699"></path>
<polygon fill="black" stroke="black" points="461.079,-461.225 450.632,-462.988 459.898,-468.124 461.079,-461.225"></polygon>
</g>
<!-- frm_Main_44_5&#45;&gt;frm_History_8_3 -->
<g id="edge70" class="edge"><title>frm_Main_44_5-&gt;frm_History_8_3</title>
<path fill="none" stroke="black" d="M1683.64,-590.942C1522.28,-585.85 1124.95,-570.789 794,-540 777.859,-538.498 760.638,-536.517 744.38,-534.438"></path>
<polygon fill="black" stroke="black" points="744.769,-530.959 734.4,-533.135 743.863,-537.9 744.769,-530.959"></polygon>
</g>
<!-- frm_Main_44_5&#45;&gt;frm_Children_12_3 -->
<g id="edge72" class="edge"><title>frm_Main_44_5-&gt;frm_Children_12_3</title>
<path fill="none" stroke="black" d="M1683.68,-591.017C1521.22,-585.978 1135.77,-570.841 1010,-540 970.948,-530.424 964.034,-519.661 927,-504 770.543,-437.835 584.172,-361.831 501.263,-326.698"></path>
<polygon fill="black" stroke="black" points="502.482,-323.413 491.91,-322.72 499.743,-329.854 502.482,-323.413"></polygon>
</g>
<!-- frm_Main_44_5&#45;&gt;frm_Siblings_10_3 -->
<g id="edge74" class="edge"><title>frm_Main_44_5-&gt;frm_Siblings_10_3</title>
<path fill="none" stroke="black" d="M1683.36,-591.358C1459.87,-585.985 791.962,-567.666 577,-540 450.286,-523.692 304.875,-488.786 226.668,-467.863"></path>
<polygon fill="black" stroke="black" points="227.115,-464.358 216.548,-465.132 225.291,-471.116 227.115,-464.358"></polygon>
</g>
<!-- frm_Main_44_5&#45;&gt;frm_Events_11_6 -->
<g id="edge76" class="edge"><title>frm_Main_44_5-&gt;frm_Events_11_6</title>
<path fill="none" stroke="black" d="M1766.53,-575.871C1784.54,-550.789 1822.92,-503.946 1848.74,-475.309"></path>
<polygon fill="black" stroke="black" points="1851.49,-477.488 1855.66,-467.748 1846.32,-472.762 1851.49,-477.488"></polygon>
</g>
<!-- frm_Main_44_5&#45;&gt;frm_Documents_12_3 -->
<g id="edge78" class="edge"><title>frm_Main_44_5-&gt;frm_Documents_12_3</title>
<path fill="none" stroke="black" d="M1808.97,-581.008C1850.21,-571.683 1908.87,-557.42 1959,-540 2032.66,-514.402 2050.46,-505.186 2119,-468 2145.01,-453.89 2149.52,-447.04 2175,-432 2262,-380.649 2323.25,-410.759 2375,-324 2387.23,-303.496 2373.87,-278.593 2360.89,-260.35"></path>
<polygon fill="black" stroke="black" points="2363.44,-257.912 2354.67,-251.977 2357.82,-262.09 2363.44,-257.912"></polygon>
</g>
<!-- frm_Main_44_5&#45;&gt;frm_Ancesters_11_3 -->
<g id="edge80" class="edge"><title>frm_Main_44_5-&gt;frm_Ancesters_11_3</title>
<path fill="none" stroke="black" d="M1683.56,-591.292C1622.51,-587.323 1535.24,-575.301 1468,-540 1439.02,-524.785 1413.29,-497.144 1398.62,-476.688"></path>
<polygon fill="black" stroke="black" points="1401.35,-474.477 1392.86,-468.143 1395.55,-478.391 1401.35,-474.477"></polygon>
</g>
<!-- frm_Main_44_5&#45;&gt;frm_Descendants_10_3 -->
<g id="edge82" class="edge"><title>frm_Main_44_5-&gt;frm_Descendants_10_3</title>
<path fill="none" stroke="black" d="M1682.66,-593.645C1587.64,-592.635 1419.5,-584.11 1284,-540 1237.56,-524.882 1189.47,-495.178 1160.98,-474.256"></path>
<polygon fill="black" stroke="black" points="1162.88,-471.306 1152.8,-468.07 1158.66,-476.891 1162.88,-471.306"></polygon>
</g>
<!-- frm_Main_44_5&#45;&gt;frm_Images_8_4 -->
<g id="edge84" class="edge"><title>frm_Main_44_5-&gt;frm_Images_8_4</title>
<path fill="none" stroke="black" d="M1786.61,-577.295C1808.59,-567.24 1838.88,-553.573 1865,-540 1891.42,-526.27 2074.32,-420.667 2091,-396 2134.56,-331.57 2142.74,-236.553 2147.54,-190.3"></path>
<polygon fill="black" stroke="black" points="2151.04,-190.477 2148.64,-180.157 2144.08,-189.719 2151.04,-190.477"></polygon>
</g>
<!-- frm_Main_44_5&#45;&gt;frm_EditName_17_4 -->
<g id="edge96" class="edge"><title>frm_Main_44_5-&gt;frm_EditName_17_4</title>
<path fill="none" stroke="black" d="M1682.99,-592.105C1575.93,-589.457 1372.63,-579.207 1205,-540 1161.03,-529.717 1052.01,-493.862 1015,-468 990.566,-450.926 968.973,-424.407 956.585,-404.754"></path>
<polygon fill="black" stroke="black" points="959.514,-402.831 951.417,-395.998 953.486,-406.389 959.514,-402.831"></polygon>
</g>
<!-- frm_Main_44_5&#45;&gt;frm_EditEvents_17_11 -->
<g id="edge100" class="edge"><title>frm_Main_44_5-&gt;frm_EditEvents_17_11</title>
<path fill="none" stroke="black" d="M1751.14,-575.84C1747.22,-545.06 1750.1,-479.272 1776,-432 1782.43,-420.275 1792.43,-409.759 1802.84,-401.245"></path>
<polygon fill="black" stroke="black" points="1805.01,-403.993 1810.83,-395.138 1800.76,-398.432 1805.01,-403.993"></polygon>
</g>
<!-- frm_Main_44_5&#45;&gt;frm_Places_13_4 -->
<g id="edge86" class="edge"><title>frm_Main_44_5-&gt;frm_Places_13_4</title>
<path fill="none" stroke="black" d="M1713.56,-579.17C1682.69,-568.446 1641.45,-553.474 1610.2,-541.684"></path>
<polygon fill="black" stroke="black" points="1611.43,-538.41 1600.84,-538.136 1608.95,-544.955 1611.43,-538.41"></polygon>
</g>
<!-- frm_Main_44_5&#45;&gt;frm_Sources_13_5 -->
<g id="edge88" class="edge"><title>frm_Main_44_5-&gt;frm_Sources_13_5</title>
<path fill="none" stroke="black" d="M1825.92,-587.193C1887.03,-580.658 1977.81,-567.168 2053,-540 2075.66,-531.813 2218.54,-440.708 2241,-432 2294.66,-411.196 2358.43,-397.572 2407.93,-389.352"></path>
<polygon fill="black" stroke="black" points="2408.64,-392.783 2417.95,-387.73 2407.52,-385.873 2408.64,-392.783"></polygon>
</g>
<!-- frm_Main_44_5&#45;&gt;frm_Repositories_13_4 -->
<g id="edge90" class="edge"><title>frm_Main_44_5-&gt;frm_Repositories_13_4</title>
<path fill="none" stroke="black" d="M1821.49,-584.956C1905.33,-575.008 2056.04,-557.267 2185,-540 2196.66,-538.438 2208.97,-536.715 2221.15,-534.983"></path>
<polygon fill="black" stroke="black" points="2221.92,-538.408 2231.33,-533.529 2220.93,-531.478 2221.92,-538.408"></polygon>
</g>
<!-- frm_Main_44_5&#45;&gt;frm_Types_12_5 -->
<g id="edge92" class="edge"><title>frm_Main_44_5-&gt;frm_Types_12_5</title>
<path fill="none" stroke="black" d="M1830.45,-591.182C1983.42,-586.865 2331.03,-573.715 2445,-540 2477.04,-530.522 2479.41,-514.887 2511,-504 2603.43,-472.147 2639.49,-509.509 2728,-468 2760.97,-452.54 2791.56,-423.45 2812.66,-402.737"></path>
<polygon fill="black" stroke="black" points="2815.32,-405.034 2819.99,-395.526 2810.41,-400.044 2815.32,-405.034"></polygon>
</g>
<!-- frm_Main_44_5&#45;&gt;frm_About_11_1 -->
<g id="edge94" class="edge"><title>frm_Main_44_5-&gt;frm_About_11_1</title>
<path fill="none" stroke="black" d="M1829.12,-589.799C2087.78,-578.317 2968.33,-539.231 3248,-526.817"></path>
<polygon fill="black" stroke="black" points="3248.26,-530.309 3258.09,-526.369 3247.95,-523.316 3248.26,-530.309"></polygon>
</g>
<!-- frm_Main_44_5&#45;&gt;frm_SelectPerson_12_2 -->
<g id="edge98" class="edge"><title>frm_Main_44_5-&gt;frm_SelectPerson_12_2</title>
<path fill="none" stroke="black" d="M1812.99,-582.101C1847.64,-573.827 1892.19,-560.344 1928,-540 1948.8,-528.185 1947.94,-517.018 1968,-504 2001.05,-482.558 2015.69,-489.041 2049,-468 2090.57,-441.739 2101.59,-433.827 2133,-396 2192.03,-324.922 2165.75,-274.824 2237,-216 2258.34,-198.384 2285.88,-186.48 2311.71,-178.499"></path>
<polygon fill="black" stroke="black" points="2312.9,-181.798 2321.51,-175.628 2310.93,-175.081 2312.9,-181.798"></polygon>
</g>
<!-- frm_Main_44_5&#45;&gt;dm_GenData_11_3 -->
<g id="edge142" class="edge"><title>frm_Main_44_5-&gt;dm_GenData_11_3</title>
<path fill="none" stroke="black" stroke-dasharray="1,5" d="M1750.3,-575.999C1735.84,-536.661 1705.17,-436.855 1733,-360 1740.09,-340.417 1755.91,-343.583 1763,-324 1768.45,-308.956 1767.03,-303.484 1763,-288 1745.49,-220.726 1699.4,-152.056 1672.76,-116.253"></path>
<polygon fill="black" stroke="black" points="1675.26,-113.751 1666.44,-107.88 1669.67,-117.969 1675.26,-113.751"></polygon>
</g>
<!-- frm_Main_44_5&#45;&gt;cls_Translation_2_0 -->
<g id="edge144" class="edge"><title>frm_Main_44_5-&gt;cls_Translation_2_0</title>
<path fill="none" stroke="black" stroke-dasharray="1,5" d="M1784.65,-577.273C1801.08,-567.419 1821.96,-553.97 1839,-540 1856.26,-525.853 1855.48,-516.451 1874,-504 1909.41,-480.192 1931.66,-496.952 1963,-468 1989.28,-443.724 1985.1,-428.968 1999,-396 2012.16,-364.786 2018.37,-357.402 2024,-324 2037.31,-245.114 2026.77,-223.952 2024,-144 2022.89,-111.942 2027.79,-102.848 2019,-72 2016.35,-62.6927 2011.93,-53.1531 2007.37,-44.7784"></path>
<polygon fill="black" stroke="black" points="2010.28,-42.8158 2002.26,-35.8924 2004.21,-46.3059 2010.28,-42.8158"></polygon>
</g>
<!-- frm_Main_44_5&#45;&gt;frm_SelectDialog_9_0 -->
<g id="edge146" class="edge"><title>frm_Main_44_5-&gt;frm_SelectDialog_9_0</title>
<path fill="none" stroke="black" stroke-dasharray="1,5" d="M1829.7,-590.135C1969.25,-584.191 2284.26,-568.626 2548,-540 2558.49,-538.861 2569.51,-537.461 2580.37,-535.958"></path>
<polygon fill="black" stroke="black" points="2580.88,-539.421 2590.29,-534.553 2579.9,-532.49 2580.88,-539.421"></polygon>
</g>
<!-- FMUtils_5_2&#45;&gt;dm_GenData_11_3 -->
<g id="edge150" class="edge"><title>FMUtils_5_2-&gt;dm_GenData_11_3</title>
<path fill="none" stroke="black" stroke-dasharray="1,5" d="M1276.46,-215.775C1286.46,-195.145 1310.6,-161.219 1341,-144 1377.97,-123.062 1486.02,-107.678 1564.69,-99.0317"></path>
<polygon fill="black" stroke="black" points="1565.53,-102.461 1575.09,-97.908 1564.78,-95.5016 1565.53,-102.461"></polygon>
</g>
<!-- FMUtils_5_2&#45;&gt;cls_Translation_2_0 -->
<g id="edge148" class="edge"><title>FMUtils_5_2-&gt;cls_Translation_2_0</title>
<path fill="none" stroke="black" stroke-dasharray="1,5" d="M1274.77,-215.71C1277.74,-195.656 1285.58,-162.933 1306,-144 1390.33,-65.8275 1727.6,-34.8097 1895.31,-24.0324"></path>
<polygon fill="black" stroke="black" points="1895.62,-27.5203 1905.37,-23.397 1895.17,-20.5342 1895.62,-27.5203"></polygon>
</g>
<!-- frm_ConnectDB_9_2&#45;&gt;dm_GenData_11_3 -->
<g id="edge156" class="edge"><title>frm_ConnectDB_9_2-&gt;dm_GenData_11_3</title>
<path fill="none" stroke="black" stroke-dasharray="1,5" d="M743.034,-216.533C777.768,-195.511 841.887,-159.955 902,-144 1023.08,-111.865 1383.88,-98.1388 1557.53,-93.2701"></path>
<polygon fill="black" stroke="black" points="1557.78,-96.7646 1567.68,-92.9896 1557.59,-89.7672 1557.78,-96.7646"></polygon>
</g>
<!-- frm_ConnectDB_9_2&#45;&gt;cls_Translation_2_0 -->
<g id="edge158" class="edge"><title>frm_ConnectDB_9_2-&gt;cls_Translation_2_0</title>
<path fill="none" stroke="black" stroke-dasharray="1,5" d="M709.553,-215.879C696.564,-183.049 674.538,-111.047 712,-72 752.628,-29.6541 1597.1,-21.1053 1891.12,-19.4105"></path>
<polygon fill="black" stroke="black" points="1891.37,-22.9093 1901.35,-19.353 1891.33,-15.9094 1891.37,-22.9093"></polygon>
</g>
<!-- frm_parents_11_3&#45;&gt;frm_Main_44_5 -->
<g id="edge160" class="edge"><title>frm_parents_11_3-&gt;frm_Main_44_5</title>
<path fill="none" stroke="black" stroke-dasharray="1,5" d="M458.002,-461.203C471.586,-463.546 485.787,-465.95 499,-468 618.631,-486.559 649.637,-483.791 769,-504 847.292,-517.256 865.302,-529.42 944,-540 1208.88,-575.609 1525.1,-587.473 1673.04,-591.283"></path>
<polygon fill="black" stroke="black" points="1673.31,-594.791 1683.39,-591.544 1673.48,-587.793 1673.31,-594.791"></polygon>
</g>
<!-- frm_parents_11_3&#45;&gt;frm_EditParents_15_6 -->
<g id="edge102" class="edge"><title>frm_parents_11_3-&gt;frm_EditParents_15_6</title>
<path fill="none" stroke="black" d="M388.084,-431.697C387.289,-423.983 387.062,-414.712 387.405,-406.112"></path>
<polygon fill="black" stroke="black" points="390.898,-406.324 388.105,-396.104 383.915,-405.836 390.898,-406.324"></polygon>
</g>
<!-- frm_parents_11_3&#45;&gt;dm_GenData_11_3 -->
<g id="edge164" class="edge"><title>frm_parents_11_3-&gt;dm_GenData_11_3</title>
<path fill="none" stroke="black" stroke-dasharray="1,5" d="M341.583,-436.069C320.862,-428.112 299.134,-415.551 287,-396 258.907,-350.735 292.506,-314.008 339,-288 432.547,-235.673 720.394,-291.596 820,-252 890.76,-223.871 882.253,-172.159 953,-144 1060.03,-101.399 1390.7,-92.814 1556.35,-91.2375"></path>
<polygon fill="black" stroke="black" points="1556.57,-94.7358 1566.54,-91.1475 1556.51,-87.7361 1556.57,-94.7358"></polygon>
</g>
<!-- frm_parents_11_3&#45;&gt;cls_Translation_2_0 -->
<g id="edge162" class="edge"><title>frm_parents_11_3-&gt;cls_Translation_2_0</title>
<path fill="none" stroke="black" stroke-dasharray="1,5" d="M336.515,-437.226C276.513,-424.588 189.297,-405.105 176,-396 136.224,-368.764 114,-355.207 114,-307 114,-307 114,-307 114,-161 114,-120.031 105.837,-97.3765 138,-72 207.225,-17.3813 1516.33,-17.4387 1891.37,-18.5845"></path>
<polygon fill="black" stroke="black" points="1891.39,-22.0844 1901.4,-18.616 1891.41,-15.0844 1891.39,-22.0844"></polygon>
</g>
<!-- frm_History_8_3&#45;&gt;frm_Main_44_5 -->
<g id="edge188" class="edge"><title>frm_History_8_3-&gt;frm_Main_44_5</title>
<path fill="none" stroke="black" stroke-dasharray="1,5" d="M739.535,-531.543C762.555,-534.59 788.43,-537.807 812,-540 1129.9,-569.575 1509.04,-584.637 1673.81,-590.292"></path>
<polygon fill="black" stroke="black" points="1673.76,-593.792 1683.88,-590.635 1674,-586.796 1673.76,-593.792"></polygon>
</g>
<!-- frm_History_8_3&#45;&gt;dm_GenData_11_3 -->
<g id="edge192" class="edge"><title>frm_History_8_3-&gt;dm_GenData_11_3</title>
<path fill="none" stroke="black" stroke-dasharray="1,5" d="M688.238,-503.882C714.701,-474.25 771.02,-411.617 820,-360 850.935,-327.4 852.044,-310.41 891,-288 946.689,-255.964 978.85,-289.523 1031,-252 1077.43,-218.592 1052.11,-173.689 1101,-144 1139.2,-120.805 1412.35,-103.377 1559.55,-95.5509"></path>
<polygon fill="black" stroke="black" points="1560.13,-99.0256 1569.93,-95.0041 1559.76,-92.0353 1560.13,-99.0256"></polygon>
</g>
<!-- frm_History_8_3&#45;&gt;cls_Translation_2_0 -->
<g id="edge190" class="edge"><title>frm_History_8_3-&gt;cls_Translation_2_0</title>
<path fill="none" stroke="black" stroke-dasharray="1,5" d="M604.399,-513.406C504.943,-502.059 329.628,-480.661 303,-468 281.697,-457.87 284.678,-443.353 264,-432 209.191,-401.908 177.761,-433.86 128,-396 91.5406,-368.261 76,-352.812 76,-307 76,-307 76,-307 76,-161 76,-118.496 76.2138,-96.4242 111,-72 184.3,-20.5346 1513.27,-18.3572 1891.39,-18.7851"></path>
<polygon fill="black" stroke="black" points="1891.49,-22.2851 1901.49,-18.7974 1891.5,-15.2851 1891.49,-22.2851"></polygon>
</g>
<!-- frm_Children_12_3&#45;&gt;frm_Main_44_5 -->
<g id="edge182" class="edge"><title>frm_Children_12_3-&gt;frm_Main_44_5</title>
<path fill="none" stroke="black" stroke-dasharray="1,5" d="M499.48,-321.848C583.896,-354.384 780.901,-434.604 945,-504 982.034,-519.661 988.948,-530.424 1028,-540 1148.83,-569.628 1509.3,-584.763 1673.71,-590.375"></path>
<polygon fill="black" stroke="black" points="1673.66,-593.875 1683.77,-590.715 1673.9,-586.879 1673.66,-593.875"></polygon>
</g>
<!-- frm_Children_12_3&#45;&gt;FMUtils_5_2 -->
<g id="edge108" class="edge"><title>frm_Children_12_3-&gt;FMUtils_5_2</title>
<path fill="none" stroke="black" d="M519.697,-293.236C531.391,-291.277 543.548,-289.423 555,-288 618.057,-280.167 1033.96,-251.338 1202.37,-239.81"></path>
<polygon fill="black" stroke="black" points="1202.64,-243.3 1212.38,-239.125 1202.17,-236.316 1202.64,-243.3"></polygon>
</g>
<!-- frm_Children_12_3&#45;&gt;frm_EditParents_15_6 -->
<g id="edge110" class="edge"><title>frm_Children_12_3-&gt;frm_EditParents_15_6</title>
<path fill="none" stroke="black" d="M448.377,-323.956C441.316,-332.692 431.628,-343.492 422.327,-353.062"></path>
<polygon fill="black" stroke="black" points="419.584,-350.856 415.007,-360.411 424.544,-355.796 419.584,-350.856"></polygon>
</g>
<!-- frm_Children_12_3&#45;&gt;dm_GenData_11_3 -->
<g id="edge186" class="edge"><title>frm_Children_12_3-&gt;dm_GenData_11_3</title>
<path fill="none" stroke="black" stroke-dasharray="1,5" d="M520.233,-293.272C531.765,-291.333 543.727,-289.476 555,-288 646.346,-276.037 890.705,-302.126 968,-252 1014.07,-222.123 981.894,-173.823 1028,-144 1071.44,-115.904 1394.74,-100.316 1558.51,-94.1479"></path>
<polygon fill="black" stroke="black" points="1558.72,-97.6426 1568.58,-93.7728 1558.46,-90.6475 1558.72,-97.6426"></polygon>
</g>
<!-- frm_Children_12_3&#45;&gt;cls_Translation_2_0 -->
<g id="edge184" class="edge"><title>frm_Children_12_3-&gt;cls_Translation_2_0</title>
<path fill="none" stroke="black" stroke-dasharray="1,5" d="M465.527,-287.966C486.523,-242.825 550.598,-120.286 647,-72 702.433,-44.2346 1591.07,-26.0582 1892.15,-20.6722"></path>
<polygon fill="black" stroke="black" points="1892.24,-24.1712 1902.18,-20.4937 1892.12,-17.1723 1892.24,-24.1712"></polygon>
</g>
<!-- frm_Siblings_10_3&#45;&gt;frm_Main_44_5 -->
<g id="edge194" class="edge"><title>frm_Siblings_10_3-&gt;frm_Main_44_5</title>
<path fill="none" stroke="black" stroke-dasharray="1,5" d="M223.882,-464.044C304.278,-484.265 460.216,-522.653 595,-540 804.347,-566.943 1443.29,-585.021 1673.38,-590.911"></path>
<polygon fill="black" stroke="black" points="1673.61,-594.417 1683.7,-591.173 1673.79,-587.42 1673.61,-594.417"></polygon>
</g>
<!-- frm_Siblings_10_3&#45;&gt;FMUtils_5_2 -->
<g id="edge112" class="edge"><title>frm_Siblings_10_3-&gt;FMUtils_5_2</title>
<path fill="none" stroke="black" d="M240.082,-439.689C307.314,-430.306 411.54,-414.582 501,-396 627.229,-369.78 657.787,-358.53 782,-324 835.647,-309.087 847.62,-299.971 902,-288 1006.23,-265.055 1129.21,-249.754 1204.12,-241.722"></path>
<polygon fill="black" stroke="black" points="1204.79,-245.171 1214.36,-240.637 1204.05,-238.21 1204.79,-245.171"></polygon>
</g>
<!-- frm_Siblings_10_3&#45;&gt;dm_GenData_11_3 -->
<g id="edge198" class="edge"><title>frm_Siblings_10_3-&gt;dm_GenData_11_3</title>
<path fill="none" stroke="black" stroke-dasharray="1,5" d="M121.148,-435.134C100.21,-426.899 77.1375,-414.379 62,-396 35.9539,-364.377 38,-347.969 38,-307 38,-307 38,-307 38,-233 38,-156.176 1212.95,-107.098 1558.5,-94.3251"></path>
<polygon fill="black" stroke="black" points="1558.86,-97.8143 1568.73,-93.9488 1558.6,-90.819 1558.86,-97.8143"></polygon>
</g>
<!-- frm_Siblings_10_3&#45;&gt;cls_Translation_2_0 -->
<g id="edge196" class="edge"><title>frm_Siblings_10_3-&gt;cls_Translation_2_0</title>
<path fill="none" stroke="black" stroke-dasharray="1,5" d="M112.453,-436.553C86.997,-428.574 58.2982,-415.862 38,-396 7.25867,-365.919 0,-350.01 0,-307 0,-307 0,-307 0,-161 0,-112.793 19.5768,-94.8959 62,-72 143.029,-28.2684 1507.81,-20.5605 1891.42,-19.2559"></path>
<polygon fill="black" stroke="black" points="1891.68,-22.7551 1901.67,-19.2217 1891.66,-15.7552 1891.68,-22.7551"></polygon>
</g>
<!-- frm_Events_11_6&#45;&gt;frm_Main_44_5 -->
<g id="edge200" class="edge"><title>frm_Events_11_6-&gt;frm_Main_44_5</title>
<path fill="none" stroke="black" stroke-dasharray="1,5" d="M1864.63,-467.902C1846.65,-492.977 1808,-540.151 1782.11,-568.859"></path>
<polygon fill="black" stroke="black" points="1779.35,-566.695 1775.17,-576.433 1784.51,-571.423 1779.35,-566.695"></polygon>
</g>
<!-- frm_Events_11_6&#45;&gt;FMUtils_5_2 -->
<g id="edge114" class="edge"><title>frm_Events_11_6-&gt;FMUtils_5_2</title>
<path fill="none" stroke="black" d="M1816.04,-437.48C1772.95,-428.204 1713.05,-413.799 1662,-396 1552.32,-357.757 1531.8,-331.277 1424,-288 1390.64,-274.608 1352.44,-261.216 1322.8,-251.244"></path>
<polygon fill="black" stroke="black" points="1323.69,-247.851 1313.1,-247.998 1321.47,-254.49 1323.69,-247.851"></polygon>
</g>
<!-- frm_Events_11_6&#45;&gt;frm_Documents_12_3 -->
<g id="edge208" class="edge"><title>frm_Events_11_6-&gt;frm_Documents_12_3</title>
<path fill="none" stroke="black" stroke-dasharray="1,5" d="M1918.54,-434.907C1948.68,-424.971 1989.19,-410.836 2024,-396 2128.27,-351.56 2246.26,-288.797 2305.59,-256.322"></path>
<polygon fill="black" stroke="black" points="2307.51,-259.258 2314.6,-251.378 2304.15,-253.122 2307.51,-259.258"></polygon>
</g>
<!-- frm_Events_11_6&#45;&gt;frm_EditEvents_17_11 -->
<g id="edge206" class="edge"><title>frm_Events_11_6-&gt;frm_EditEvents_17_11</title>
<path fill="none" stroke="black" stroke-dasharray="1,5" d="M1860.62,-432.055C1856.29,-424.176 1851.82,-414.617 1848.28,-405.794"></path>
<polygon fill="black" stroke="black" points="1851.51,-404.424 1844.74,-396.275 1844.95,-406.868 1851.51,-404.424"></polygon>
</g>
<!-- frm_Events_11_6&#45;&gt;dm_GenData_11_3 -->
<g id="edge204" class="edge"><title>frm_Events_11_6-&gt;dm_GenData_11_3</title>
<path fill="none" stroke="black" stroke-dasharray="1,5" d="M1910.95,-433.951C1926.92,-425.372 1943.98,-412.905 1953,-396 1960.53,-381.882 1958.13,-375.156 1953,-360 1914.29,-245.564 1884.44,-216.752 1788,-144 1766.62,-127.874 1739.71,-116 1715.55,-107.628"></path>
<polygon fill="black" stroke="black" points="1716.33,-104.2 1705.74,-104.365 1714.12,-110.842 1716.33,-104.2"></polygon>
</g>
<!-- frm_Events_11_6&#45;&gt;cls_Translation_2_0 -->
<g id="edge202" class="edge"><title>frm_Events_11_6-&gt;cls_Translation_2_0</title>
<path fill="none" stroke="black" stroke-dasharray="1,5" d="M1913.39,-434.246C1932.46,-425.499 1954.52,-412.803 1970,-396 1999.38,-364.103 2010,-350.367 2010,-307 2010,-307 2010,-307 2010,-161 2010,-120.86 2002.45,-74.897 1996.87,-46.4045"></path>
<polygon fill="black" stroke="black" points="2000.26,-45.4976 1994.84,-36.3884 1993.39,-46.8834 2000.26,-45.4976"></polygon>
</g>
<!-- frm_Documents_12_3&#45;&gt;frm_Main_44_5 -->
<g id="edge236" class="edge"><title>frm_Documents_12_3-&gt;frm_Main_44_5</title>
<path fill="none" stroke="black" stroke-dasharray="1,5" d="M2367.59,-251.643C2386.56,-269.961 2407.32,-299.995 2393,-324 2341.25,-410.759 2280,-380.649 2193,-432 2167.52,-447.04 2163.01,-453.89 2137,-468 2068.46,-505.186 2050.66,-514.402 1977,-540 1927.35,-557.254 1869.33,-571.411 1825.27,-580.739"></path>
<polygon fill="black" stroke="black" points="1824.31,-577.364 1815.23,-582.831 1825.74,-584.216 1824.31,-577.364"></polygon>
</g>
<!-- frm_Documents_12_3&#45;&gt;frm_EditDocuments_13_5 -->
<g id="edge120" class="edge"><title>frm_Documents_12_3-&gt;frm_EditDocuments_13_5</title>
<path fill="none" stroke="black" d="M2416.59,-221.933C2429.71,-219.948 2443.26,-217.905 2456,-216 2547.6,-202.306 2652.35,-186.915 2725.15,-176.261"></path>
<polygon fill="black" stroke="black" points="2725.81,-179.701 2735.2,-174.79 2724.8,-172.775 2725.81,-179.701"></polygon>
</g>
<!-- frm_Documents_12_3&#45;&gt;frm_Images_8_4 -->
<g id="edge122" class="edge"><title>frm_Documents_12_3-&gt;frm_Images_8_4</title>
<path fill="none" stroke="black" d="M2297.37,-217.983C2267.08,-207.362 2227.89,-193.049 2197.94,-181.689"></path>
<polygon fill="black" stroke="black" points="2199.16,-178.406 2188.57,-178.113 2196.66,-184.947 2199.16,-178.406"></polygon>
</g>
<!-- frm_Documents_12_3&#45;&gt;dm_GenData_11_3 -->
<g id="edge240" class="edge"><title>frm_Documents_12_3-&gt;dm_GenData_11_3</title>
<path fill="none" stroke="black" stroke-dasharray="1,5" d="M2321.88,-216.295C2308.62,-206.094 2291.57,-192.624 2277,-180 2259.42,-164.768 2260.2,-153.577 2239,-144 2154.05,-105.628 1892.42,-95.0306 1749.18,-92.1087"></path>
<polygon fill="black" stroke="black" points="1749.14,-88.6074 1739.08,-91.9113 1749.01,-95.606 1749.14,-88.6074"></polygon>
</g>
<!-- frm_Documents_12_3&#45;&gt;cls_Translation_2_0 -->
<g id="edge238" class="edge"><title>frm_Documents_12_3-&gt;cls_Translation_2_0</title>
<path fill="none" stroke="black" stroke-dasharray="1,5" d="M2410.57,-220.746C2466.39,-207.469 2532.47,-182.821 2502,-144 2450.48,-78.3556 2212.13,-42.7352 2079.94,-27.7238"></path>
<polygon fill="black" stroke="black" points="2080.15,-24.2263 2069.83,-26.5924 2079.37,-31.1829 2080.15,-24.2263"></polygon>
</g>
<!-- frm_Ancesters_11_3&#45;&gt;frm_Main_44_5 -->
<g id="edge260" class="edge"><title>frm_Ancesters_11_3-&gt;frm_Main_44_5</title>
<path fill="none" stroke="black" stroke-dasharray="1,5" d="M1405.17,-467.784C1423.41,-488.294 1452.54,-522.431 1486,-540 1544.56,-570.742 1618.31,-583.83 1674.14,-589.319"></path>
<polygon fill="black" stroke="black" points="1674.07,-592.827 1684.35,-590.258 1674.71,-585.856 1674.07,-592.827"></polygon>
</g>
<!-- frm_Ancesters_11_3&#45;&gt;FMUtils_5_2 -->
<g id="edge124" class="edge"><title>frm_Ancesters_11_3-&gt;FMUtils_5_2</title>
<path fill="none" stroke="black" d="M1359.12,-432.746C1345.54,-423.538 1330.03,-410.884 1320,-396 1292.11,-354.596 1280.5,-296.439 1275.87,-262.539"></path>
<polygon fill="black" stroke="black" points="1279.32,-261.922 1274.6,-252.436 1272.37,-262.795 1279.32,-261.922"></polygon>
</g>
<!-- frm_Ancesters_11_3&#45;&gt;dm_GenData_11_3 -->
<g id="edge264" class="edge"><title>frm_Ancesters_11_3-&gt;dm_GenData_11_3</title>
<path fill="none" stroke="black" stroke-dasharray="1,5" d="M1386.4,-431.693C1385.61,-380.218 1390.52,-226.548 1472,-144 1496.08,-119.608 1530.72,-106.302 1563.27,-99.0941"></path>
<polygon fill="black" stroke="black" points="1564.19,-102.478 1573.29,-97.0475 1562.79,-95.6196 1564.19,-102.478"></polygon>
</g>
<!-- frm_Ancesters_11_3&#45;&gt;cls_Translation_2_0 -->
<g id="edge262" class="edge"><title>frm_Ancesters_11_3-&gt;cls_Translation_2_0</title>
<path fill="none" stroke="black" stroke-dasharray="1,5" d="M1352.91,-433.256C1335.24,-424.028 1314.07,-411.2 1298,-396 1241.94,-342.976 1223.54,-325.801 1201,-252 1169.21,-147.919 1266.26,-113.177 1367,-72 1459.42,-34.2243 1740.38,-23.372 1891.81,-20.2552"></path>
<polygon fill="black" stroke="black" points="1892.11,-23.7501 1902.04,-20.0524 1891.97,-16.7514 1892.11,-23.7501"></polygon>
</g>
<!-- frm_Descendants_10_3&#45;&gt;frm_Main_44_5 -->
<g id="edge266" class="edge"><title>frm_Descendants_10_3-&gt;frm_Main_44_5</title>
<path fill="none" stroke="black" stroke-dasharray="1,5" d="M1164.22,-467.35C1196.26,-488.073 1250.16,-523.124 1302,-540 1426.84,-580.641 1579.4,-591.074 1672.38,-593.253"></path>
<polygon fill="black" stroke="black" points="1672.51,-596.757 1682.58,-593.465 1672.66,-589.758 1672.51,-596.757"></polygon>
</g>
<!-- frm_Descendants_10_3&#45;&gt;FMUtils_5_2 -->
<g id="edge126" class="edge"><title>frm_Descendants_10_3-&gt;FMUtils_5_2</title>
<path fill="none" stroke="black" d="M1140.52,-431.566C1149.23,-400.351 1170.69,-333.896 1206,-288 1215.17,-276.082 1227.59,-265.291 1239.24,-256.603"></path>
<polygon fill="black" stroke="black" points="1241.44,-259.332 1247.53,-250.663 1237.36,-253.641 1241.44,-259.332"></polygon>
</g>
<!-- frm_Descendants_10_3&#45;&gt;dm_GenData_11_3 -->
<g id="edge270" class="edge"><title>frm_Descendants_10_3-&gt;dm_GenData_11_3</title>
<path fill="none" stroke="black" stroke-dasharray="1,5" d="M1154.95,-432.112C1192.24,-398.661 1277.43,-321.219 1345,-252 1390.07,-205.833 1386.75,-177.312 1442,-144 1479.87,-121.168 1527.23,-108.135 1567.49,-100.713"></path>
<polygon fill="black" stroke="black" points="1568.31,-104.121 1577.56,-98.9441 1567.1,-97.2267 1568.31,-104.121"></polygon>
</g>
<!-- frm_Descendants_10_3&#45;&gt;cls_Translation_2_0 -->
<g id="edge268" class="edge"><title>frm_Descendants_10_3-&gt;cls_Translation_2_0</title>
<path fill="none" stroke="black" stroke-dasharray="1,5" d="M1138.1,-431.873C1140.39,-413.904 1144.37,-384.87 1149,-360 1174.77,-221.574 1151.01,-126.121 1281,-72 1388.56,-27.215 1722.75,-19.6485 1891.44,-18.7711"></path>
<polygon fill="black" stroke="black" points="1891.59,-22.2706 1901.57,-18.7255 1891.55,-15.2707 1891.59,-22.2706"></polygon>
</g>
<!-- frm_EditDocuments_13_5&#45;&gt;frm_Main_44_5 -->
<g id="edge242" class="edge"><title>frm_EditDocuments_13_5-&gt;frm_Main_44_5</title>
<path fill="none" stroke="black" stroke-dasharray="1,5" d="M2879.3,-177.094C2963.42,-199.093 3096.56,-247.212 3052,-324 2984.72,-439.935 2914.44,-426.434 2787,-468 2686.96,-500.629 2648.87,-460.63 2553,-504 2530.29,-514.273 2533.11,-530.671 2510,-540 2449.17,-564.553 2022.91,-583.119 1840.02,-590.044"></path>
<polygon fill="black" stroke="black" points="1839.77,-586.551 1829.91,-590.425 1840.04,-593.546 1839.77,-586.551"></polygon>
</g>
<!-- frm_EditDocuments_13_5&#45;&gt;frm_ShowImage_11_1 -->
<g id="edge248" class="edge"><title>frm_EditDocuments_13_5-&gt;frm_ShowImage_11_1</title>
<path fill="none" stroke="black" stroke-dasharray="1,5" d="M2837.79,-144.055C2849.39,-135.027 2863.84,-123.792 2876.44,-113.987"></path>
<polygon fill="black" stroke="black" points="2878.67,-116.691 2884.41,-107.789 2874.37,-111.166 2878.67,-116.691"></polygon>
</g>
<!-- frm_EditDocuments_13_5&#45;&gt;dm_GenData_11_3 -->
<g id="edge246" class="edge"><title>frm_EditDocuments_13_5-&gt;dm_GenData_11_3</title>
<path fill="none" stroke="black" stroke-dasharray="1,5" d="M2735.2,-149.261C2719.56,-147.275 2703.29,-145.405 2688,-144 2342.91,-112.3 1931.21,-98.299 1748.48,-93.3087"></path>
<polygon fill="black" stroke="black" points="1748.45,-89.8069 1738.36,-93.0353 1748.26,-96.8043 1748.45,-89.8069"></polygon>
</g>
<!-- frm_EditDocuments_13_5&#45;&gt;cls_Translation_2_0 -->
<g id="edge244" class="edge"><title>frm_EditDocuments_13_5-&gt;cls_Translation_2_0</title>
<path fill="none" stroke="black" stroke-dasharray="1,5" d="M2792.35,-144.218C2761.33,-123.203 2704.43,-88.0166 2650,-72 2547.58,-41.8588 2245.99,-27.5355 2088.8,-21.958"></path>
<polygon fill="black" stroke="black" points="2088.77,-18.4551 2078.66,-21.6032 2088.53,-25.4509 2088.77,-18.4551"></polygon>
</g>
<!-- frm_ShowImage_11_1&#45;&gt;cls_Translation_2_0 -->
<g id="edge250" class="edge"><title>frm_ShowImage_11_1-&gt;cls_Translation_2_0</title>
<path fill="none" stroke="black" stroke-dasharray="1,5" d="M2822.88,-79.9704C2796.4,-77.2334 2766.99,-74.336 2740,-72 2504.73,-51.6341 2227.38,-33.5522 2085.31,-24.7197"></path>
<polygon fill="black" stroke="black" points="2085.51,-21.2257 2075.31,-24.0998 2085.08,-28.2123 2085.51,-21.2257"></polygon>
</g>
<!-- frm_Images_8_4&#45;&gt;frm_Main_44_5 -->
<g id="edge252" class="edge"><title>frm_Images_8_4-&gt;frm_Main_44_5</title>
<path fill="none" stroke="black" stroke-dasharray="1,5" d="M2157.73,-180.157C2161.83,-221.122 2156.05,-326.405 2109,-396 2092.32,-420.667 1909.42,-526.27 1883,-540 1858.74,-552.607 1830.88,-565.295 1807.45,-575.095"></path>
<polygon fill="black" stroke="black" points="1805.94,-571.928 1798.03,-578.973 1808.61,-578.4 1805.94,-571.928"></polygon>
</g>
<!-- frm_Images_8_4&#45;&gt;frm_Documents_12_3 -->
<g id="edge258" class="edge"><title>frm_Images_8_4-&gt;frm_Documents_12_3</title>
<path fill="none" stroke="black" stroke-dasharray="1,5" d="M2196.38,-176.88C2226.48,-187.389 2266.43,-201.957 2297.22,-213.616"></path>
<polygon fill="black" stroke="black" points="2296.29,-217.004 2306.88,-217.291 2298.78,-210.462 2296.29,-217.004"></polygon>
</g>
<!-- frm_Images_8_4&#45;&gt;dm_GenData_11_3 -->
<g id="edge256" class="edge"><title>frm_Images_8_4-&gt;dm_GenData_11_3</title>
<path fill="none" stroke="black" stroke-dasharray="1,5" d="M2088.66,-151.992C1997.62,-139.247 1831.35,-115.969 1732.64,-102.15"></path>
<polygon fill="black" stroke="black" points="1733.11,-98.6809 1722.72,-100.761 1732.14,-105.613 1733.11,-98.6809"></polygon>
</g>
<!-- frm_Images_8_4&#45;&gt;cls_Translation_2_0 -->
<g id="edge254" class="edge"><title>frm_Images_8_4-&gt;cls_Translation_2_0</title>
<path fill="none" stroke="black" stroke-dasharray="1,5" d="M2137.18,-144.244C2119.5,-125.826 2089.7,-95.7056 2062,-72 2049.66,-61.4371 2035.41,-50.5681 2022.94,-41.4438"></path>
<polygon fill="black" stroke="black" points="2024.78,-38.458 2014.63,-35.4309 2020.68,-44.1289 2024.78,-38.458"></polygon>
</g>
<!-- frm_EditParents_15_6&#45;&gt;frm_Main_44_5 -->
<g id="edge170" class="edge"><title>frm_EditParents_15_6-&gt;frm_Main_44_5</title>
<path fill="none" stroke="black" stroke-dasharray="1,5" d="M435.575,-394.349C489.159,-413.679 585.493,-446.909 670,-468 758.054,-489.976 783.255,-480.821 871,-504 917.48,-516.278 925.917,-530.289 973,-540 1105.06,-567.238 1500.68,-584.014 1674.05,-590.243"></path>
<polygon fill="black" stroke="black" points="1674.03,-593.744 1684.15,-590.602 1674.28,-586.748 1674.03,-593.744"></polygon>
</g>
<!-- frm_EditParents_15_6&#45;&gt;FMUtils_5_2 -->
<g id="edge104" class="edge"><title>frm_EditParents_15_6-&gt;FMUtils_5_2</title>
<path fill="none" stroke="black" d="M378.534,-360.168C362.391,-340.555 341.887,-308.256 361,-288 362.803,-286.089 987.224,-250.987 1201.68,-238.985"></path>
<polygon fill="black" stroke="black" points="1202.09,-242.467 1211.88,-238.414 1201.7,-235.478 1202.09,-242.467"></polygon>
</g>
<!-- frm_EditParents_15_6&#45;&gt;frm_parents_11_3 -->
<g id="edge166" class="edge"><title>frm_EditParents_15_6-&gt;frm_parents_11_3</title>
<path fill="none" stroke="black" stroke-dasharray="1,5" d="M399.895,-396.104C400.701,-403.791 400.937,-413.054 400.604,-421.665"></path>
<polygon fill="black" stroke="black" points="397.109,-421.48 399.916,-431.697 404.092,-421.96 397.109,-421.48"></polygon>
</g>
<!-- frm_EditParents_15_6&#45;&gt;frm_Children_12_3 -->
<g id="edge168" class="edge"><title>frm_EditParents_15_6-&gt;frm_Children_12_3</title>
<path fill="none" stroke="black" stroke-dasharray="1,5" d="M403.614,-360.055C410.633,-351.371 420.249,-340.644 429.502,-331.114"></path>
<polygon fill="black" stroke="black" points="432.217,-333.347 436.788,-323.789 427.255,-328.41 432.217,-333.347"></polygon>
</g>
<!-- frm_EditParents_15_6&#45;&gt;frm_EditCitations_13_3 -->
<g id="edge106" class="edge"><title>frm_EditParents_15_6-&gt;frm_EditCitations_13_3</title>
<path fill="none" stroke="black" d="M448.989,-363.003C493.475,-351.679 556.245,-335.701 603.359,-323.709"></path>
<polygon fill="black" stroke="black" points="604.336,-327.072 613.163,-321.213 602.609,-320.288 604.336,-327.072"></polygon>
</g>
<!-- frm_EditParents_15_6&#45;&gt;dm_GenData_11_3 -->
<g id="edge174" class="edge"><title>frm_EditParents_15_6-&gt;dm_GenData_11_3</title>
<path fill="none" stroke="black" stroke-dasharray="1,5" d="M374.963,-360.176C355.346,-340.865 330.214,-309.144 350,-288 391.239,-243.931 837.153,-277.189 892,-252 953.119,-223.93 937.085,-172.51 998,-144 1094.5,-98.8371 1398.84,-91.363 1556.38,-90.6232"></path>
<polygon fill="black" stroke="black" points="1556.56,-94.1227 1566.55,-90.5839 1556.53,-87.1227 1556.56,-94.1227"></polygon>
</g>
<!-- frm_EditParents_15_6&#45;&gt;cls_Translation_2_0 -->
<g id="edge172" class="edge"><title>frm_EditParents_15_6-&gt;cls_Translation_2_0</title>
<path fill="none" stroke="black" stroke-dasharray="1,5" d="M363.666,-360.792C325.814,-338.112 266,-293.083 266,-235 266,-235 266,-235 266,-161 266,-10.8087 443.545,-94.7693 592,-72 842.836,-33.5281 1615.28,-22.555 1891.5,-19.8169"></path>
<polygon fill="black" stroke="black" points="1891.94,-23.3129 1901.91,-19.7154 1891.88,-16.3132 1891.94,-23.3129"></polygon>
</g>
<!-- frm_EditCitations_13_3&#45;&gt;frm_Main_44_5 -->
<g id="edge176" class="edge"><title>frm_EditCitations_13_3-&gt;frm_Main_44_5</title>
<path fill="none" stroke="black" stroke-dasharray="1,5" d="M694.964,-323.454C723.517,-341.479 770.82,-371.139 812,-396 866.228,-428.738 878.446,-439.468 935,-468 971.264,-486.295 983.836,-483.67 1019,-504 1042.09,-517.347 1042.04,-530.604 1067,-540 1175.72,-580.932 1513.91,-590.267 1672.85,-592.385"></path>
<polygon fill="black" stroke="black" points="1673.02,-595.887 1683.06,-592.514 1673.11,-588.888 1673.02,-595.887"></polygon>
</g>
<!-- frm_EditCitations_13_3&#45;&gt;dm_GenData_11_3 -->
<g id="edge180" class="edge"><title>frm_EditCitations_13_3-&gt;dm_GenData_11_3</title>
<path fill="none" stroke="black" stroke-dasharray="1,5" d="M755.341,-295.741C848.535,-285.072 986.35,-267.071 1006,-252 1047.68,-220.032 1011.26,-174.538 1054,-144 1094.03,-115.4 1399.83,-100.183 1558.34,-94.1468"></path>
<polygon fill="black" stroke="black" points="1558.71,-97.6357 1568.57,-93.7624 1558.44,-90.6407 1558.71,-97.6357"></polygon>
</g>
<!-- frm_EditCitations_13_3&#45;&gt;cls_Translation_2_0 -->
<g id="edge178" class="edge"><title>frm_EditCitations_13_3-&gt;cls_Translation_2_0</title>
<path fill="none" stroke="black" stroke-dasharray="1,5" d="M643.755,-288.511C632.052,-279.322 619.351,-266.755 613,-252 606.674,-237.304 609.069,-231.51 613,-216 630.881,-145.445 629.238,-110.512 691,-72 741.701,-40.3851 1596.88,-24.8222 1891.89,-20.376"></path>
<polygon fill="black" stroke="black" points="1892.2,-23.8719 1902.15,-20.2226 1892.1,-16.8727 1892.2,-23.8719"></polygon>
</g>
<!-- frm_EditName_17_4&#45;&gt;frm_Main_44_5 -->
<g id="edge348" class="edge"><title>frm_EditName_17_4-&gt;frm_Main_44_5</title>
<path fill="none" stroke="black" stroke-dasharray="1,5" d="M964.238,-395.998C980.205,-415.771 1004.7,-448.222 1033,-468 1070.01,-493.862 1179.03,-529.717 1223,-540 1379.58,-576.623 1567.29,-587.981 1673.36,-591.477"></path>
<polygon fill="black" stroke="black" points="1673.26,-594.975 1683.36,-591.791 1673.48,-587.979 1673.26,-594.975"></polygon>
</g>
<!-- frm_EditName_17_4&#45;&gt;FMUtils_5_2 -->
<g id="edge140" class="edge"><title>frm_EditName_17_4-&gt;FMUtils_5_2</title>
<path fill="none" stroke="black" d="M977.658,-360.947C1013.67,-342.362 1075.42,-311.32 1130,-288 1161.04,-274.739 1196.62,-261.544 1224.53,-251.636"></path>
<polygon fill="black" stroke="black" points="1225.79,-254.902 1234.06,-248.274 1223.46,-248.3 1225.79,-254.902"></polygon>
</g>
<!-- frm_EditName_17_4&#45;&gt;frm_EditCitations_13_3 -->
<g id="edge138" class="edge"><title>frm_EditName_17_4-&gt;frm_EditCitations_13_3</title>
<path fill="none" stroke="black" d="M892.739,-363.337C847.651,-351.984 783.327,-335.787 735.212,-323.672"></path>
<polygon fill="black" stroke="black" points="736.062,-320.277 725.51,-321.229 734.353,-327.065 736.062,-320.277"></polygon>
</g>
<!-- frm_EditName_17_4&#45;&gt;dm_GenData_11_3 -->
<g id="edge352" class="edge"><title>frm_EditName_17_4-&gt;dm_GenData_11_3</title>
<path fill="none" stroke="black" stroke-dasharray="1,5" d="M969.978,-360.464C999.207,-338.465 1049.75,-297.071 1082,-252 1112.56,-209.281 1087.46,-174.809 1130,-144 1163.94,-119.423 1418.35,-102.832 1559.43,-95.4174"></path>
<polygon fill="black" stroke="black" points="1560,-98.8926 1569.81,-94.878 1559.64,-91.9021 1560,-98.8926"></polygon>
</g>
<!-- frm_EditName_17_4&#45;&gt;cls_Translation_2_0 -->
<g id="edge350" class="edge"><title>frm_EditName_17_4-&gt;cls_Translation_2_0</title>
<path fill="none" stroke="black" stroke-dasharray="1,5" d="M937.049,-359.992C917.819,-328.29 872.763,-259.455 820,-216 792.995,-193.759 768.223,-209.863 750,-180 724.997,-139.026 716.791,-106.658 750,-72 789.281,-31.0053 1604.01,-21.5907 1891.57,-19.5412"></path>
<polygon fill="black" stroke="black" points="1891.6,-23.0412 1901.58,-19.4714 1891.55,-16.0413 1891.6,-23.0412"></polygon>
</g>
<!-- frm_EditEvents_17_11&#45;&gt;frm_Main_44_5 -->
<g id="edge212" class="edge"><title>frm_EditEvents_17_11-&gt;frm_Main_44_5</title>
<path fill="none" stroke="black" stroke-dasharray="1,5" d="M1826.02,-395.828C1815.1,-405.103 1801.87,-417.646 1794,-432 1770.62,-474.656 1766,-532.388 1762.79,-565.871"></path>
<polygon fill="black" stroke="black" points="1759.31,-565.537 1761.78,-575.84 1766.27,-566.246 1759.31,-565.537"></polygon>
</g>
<!-- frm_EditEvents_17_11&#45;&gt;FMUtils_5_2 -->
<g id="edge116" class="edge"><title>frm_EditEvents_17_11-&gt;FMUtils_5_2</title>
<path fill="none" stroke="black" d="M1833.09,-359.802C1819.99,-338.863 1794.81,-304.285 1763,-288 1691.95,-251.626 1464.22,-240.12 1345.91,-236.554"></path>
<polygon fill="black" stroke="black" points="1345.95,-233.054 1335.85,-236.262 1345.75,-240.051 1345.95,-233.054"></polygon>
</g>
<!-- frm_EditEvents_17_11&#45;&gt;frm_Events_11_6 -->
<g id="edge210" class="edge"><title>frm_EditEvents_17_11-&gt;frm_Events_11_6</title>
<path fill="none" stroke="black" stroke-dasharray="1,5" d="M1856.47,-396.104C1860.77,-403.96 1865.21,-413.462 1868.73,-422.232"></path>
<polygon fill="black" stroke="black" points="1865.48,-423.548 1872.25,-431.697 1872.04,-421.104 1865.48,-423.548"></polygon>
</g>
<!-- frm_EditEvents_17_11&#45;&gt;frm_Documents_12_3 -->
<g id="edge220" class="edge"><title>frm_EditEvents_17_11-&gt;frm_Documents_12_3</title>
<path fill="none" stroke="black" stroke-dasharray="1,5" d="M1885.14,-361.511C1937.43,-342.63 2029.52,-310.467 2110,-288 2163.08,-273.183 2223.79,-259.526 2270.07,-249.787"></path>
<polygon fill="black" stroke="black" points="2270.94,-253.18 2280.01,-247.708 2269.51,-246.328 2270.94,-253.18"></polygon>
</g>
<!-- frm_EditEvents_17_11&#45;&gt;frm_EditDocuments_13_5 -->
<g id="edge224" class="edge"><title>frm_EditEvents_17_11-&gt;frm_EditDocuments_13_5</title>
<path fill="none" stroke="black" stroke-dasharray="1,5" d="M1906.91,-364.046C2061.57,-332.669 2443.8,-254.951 2450,-252 2472.81,-241.137 2470.97,-226.405 2494,-216 2557.09,-187.491 2633.31,-174.122 2695.76,-167.936"></path>
<polygon fill="black" stroke="black" points="2696.43,-171.389 2706.06,-166.968 2695.78,-164.42 2696.43,-171.389"></polygon>
</g>
<!-- frm_EditEvents_17_11&#45;&gt;frm_ShowImage_11_1 -->
<g id="edge222" class="edge"><title>frm_EditEvents_17_11-&gt;frm_ShowImage_11_1</title>
<path fill="none" stroke="black" stroke-dasharray="1,5" d="M1921.25,-366.513C1994.09,-356.499 2105.6,-340.525 2202,-324 2243.12,-316.952 2912.48,-212.204 2939,-180 2954.24,-161.495 2941.5,-135.282 2927.66,-116.096"></path>
<polygon fill="black" stroke="black" points="2930.39,-113.902 2921.54,-108.089 2924.83,-118.157 2930.39,-113.902"></polygon>
</g>
<!-- frm_EditEvents_17_11&#45;&gt;frm_EditCitations_13_3 -->
<g id="edge216" class="edge"><title>frm_EditEvents_17_11-&gt;frm_EditCitations_13_3</title>
<path fill="none" stroke="black" stroke-dasharray="1,5" d="M1748.91,-371.39C1533.22,-358.529 1004.18,-326.985 776.295,-313.398"></path>
<polygon fill="black" stroke="black" points="776.194,-309.885 766.004,-312.784 775.778,-316.873 776.194,-309.885"></polygon>
</g>
<!-- frm_EditEvents_17_11&#45;&gt;frm_EditWitness_13_5 -->
<g id="edge218" class="edge"><title>frm_EditEvents_17_11-&gt;frm_EditWitness_13_5</title>
<path fill="none" stroke="black" stroke-dasharray="1,5" d="M1796.58,-361.983C1767.19,-351.625 1729.38,-337.754 1699.9,-326.536"></path>
<polygon fill="black" stroke="black" points="1700.84,-323.147 1690.25,-322.843 1698.33,-329.685 1700.84,-323.147"></polygon>
</g>
<!-- frm_EditEvents_17_11&#45;&gt;dm_GenData_11_3 -->
<g id="edge214" class="edge"><title>frm_EditEvents_17_11-&gt;dm_GenData_11_3</title>
<path fill="none" stroke="black" stroke-dasharray="1,5" d="M1843.2,-359.892C1842.96,-341.689 1841.32,-312.234 1834,-288 1813.08,-218.722 1809.63,-194.704 1758,-144 1743.24,-129.502 1723.71,-118.177 1705.5,-109.785"></path>
<polygon fill="black" stroke="black" points="1706.69,-106.486 1696.13,-105.662 1703.88,-112.894 1706.69,-106.486"></polygon>
</g>
<!-- frm_EditEvents_17_11&#45;&gt;cls_Translation_2_0 -->
<g id="edge226" class="edge"><title>frm_EditEvents_17_11-&gt;cls_Translation_2_0</title>
<path fill="none" stroke="black" stroke-dasharray="1,5" d="M1850.14,-359.733C1874.02,-301.957 1951.26,-115.128 1980.05,-45.4889"></path>
<polygon fill="black" stroke="black" points="1983.35,-46.6724 1983.93,-36.0938 1976.88,-43.9981 1983.35,-46.6724"></polygon>
</g>
<!-- frm_EditWitness_13_5&#45;&gt;frm_Main_44_5 -->
<g id="edge230" class="edge"><title>frm_EditWitness_13_5-&gt;frm_Main_44_5</title>
<path fill="none" stroke="black" stroke-dasharray="1,5" d="M1652.43,-324.097C1651.84,-364.491 1654.79,-467.849 1696,-540 1702.75,-551.823 1713.15,-562.299 1723.47,-570.75"></path>
<polygon fill="black" stroke="black" points="1721.59,-573.728 1731.64,-577.081 1725.88,-568.192 1721.59,-573.728"></polygon>
</g>
<!-- frm_EditWitness_13_5&#45;&gt;FMUtils_5_2 -->
<g id="edge118" class="edge"><title>frm_EditWitness_13_5-&gt;FMUtils_5_2</title>
<path fill="none" stroke="black" d="M1585.5,-292.566C1514.4,-279.468 1403.4,-259.02 1334.6,-246.347"></path>
<polygon fill="black" stroke="black" points="1334.82,-242.829 1324.35,-244.459 1333.55,-249.713 1334.82,-242.829"></polygon>
</g>
<!-- frm_EditWitness_13_5&#45;&gt;frm_EditEvents_17_11 -->
<g id="edge228" class="edge"><title>frm_EditWitness_13_5-&gt;frm_EditEvents_17_11</title>
<path fill="none" stroke="black" stroke-dasharray="1,5" d="M1699.66,-322.101C1728.99,-332.441 1766.63,-346.251 1796.02,-357.433"></path>
<polygon fill="black" stroke="black" points="1795.06,-360.812 1805.65,-361.116 1797.56,-354.274 1795.06,-360.812"></polygon>
</g>
<!-- frm_EditWitness_13_5&#45;&gt;dm_GenData_11_3 -->
<g id="edge232" class="edge"><title>frm_EditWitness_13_5-&gt;dm_GenData_11_3</title>
<path fill="none" stroke="black" stroke-dasharray="1,5" d="M1653,-287.849C1653,-250.832 1653,-163.181 1653,-118.386"></path>
<polygon fill="black" stroke="black" points="1656.5,-118.232 1653,-108.232 1649.5,-118.232 1656.5,-118.232"></polygon>
</g>
<!-- frm_EditWitness_13_5&#45;&gt;cls_Translation_2_0 -->
<g id="edge234" class="edge"><title>frm_EditWitness_13_5-&gt;cls_Translation_2_0</title>
<path fill="none" stroke="black" stroke-dasharray="1,5" d="M1673.13,-287.966C1730.92,-239.069 1897.4,-98.2023 1963.49,-42.2817"></path>
<polygon fill="black" stroke="black" points="1966.02,-44.7179 1971.4,-35.5866 1961.5,-39.3742 1966.02,-44.7179"></polygon>
</g>
<!-- frm_Places_13_4&#45;&gt;frm_Main_44_5 -->
<g id="edge272" class="edge"><title>frm_Places_13_4-&gt;frm_Main_44_5</title>
<path fill="none" stroke="black" stroke-dasharray="1,5" d="M1609.04,-537.039C1639.83,-547.743 1680.72,-562.589 1711.76,-574.3"></path>
<polygon fill="black" stroke="black" points="1710.88,-577.708 1721.47,-577.983 1713.36,-571.163 1710.88,-577.708"></polygon>
</g>
<!-- frm_Places_13_4&#45;&gt;FMUtils_5_2 -->
<g id="edge128" class="edge"><title>frm_Places_13_4-&gt;FMUtils_5_2</title>
<path fill="none" stroke="black" d="M1554.14,-504.055C1540.72,-484.333 1516.2,-451.93 1488,-432 1452.14,-406.657 1431.07,-422.422 1396,-396 1346.44,-358.659 1306.77,-296.326 1286.9,-261.179"></path>
<polygon fill="black" stroke="black" points="1289.74,-259.079 1281.83,-252.03 1283.62,-262.473 1289.74,-259.079"></polygon>
</g>
<!-- frm_Places_13_4&#45;&gt;frm_Usage_10_7 -->
<g id="edge278" class="edge"><title>frm_Places_13_4-&gt;frm_Usage_10_7</title>
<path fill="none" stroke="black" stroke-dasharray="1,5" d="M1638.62,-515.853C1828.18,-502.974 2331.93,-469.452 2532.72,-456.355"></path>
<polygon fill="black" stroke="black" points="2533.17,-459.833 2542.92,-455.69 2532.71,-452.848 2533.17,-459.833"></polygon>
</g>
<!-- frm_Places_13_4&#45;&gt;dm_GenData_11_3 -->
<g id="edge276" class="edge"><title>frm_Places_13_4-&gt;dm_GenData_11_3</title>
<path fill="none" stroke="black" stroke-dasharray="1,5" d="M1559.45,-504.011C1547.6,-465.108 1522.48,-366.839 1543,-288 1560.51,-220.726 1606.6,-152.056 1633.24,-116.253"></path>
<polygon fill="black" stroke="black" points="1636.33,-117.969 1639.56,-107.88 1630.74,-113.751 1636.33,-117.969"></polygon>
</g>
<!-- frm_Places_13_4&#45;&gt;cls_Translation_2_0 -->
<g id="edge274" class="edge"><title>frm_Places_13_4-&gt;cls_Translation_2_0</title>
<path fill="none" stroke="black" stroke-dasharray="1,5" d="M1491.98,-515.393C1228.69,-494.976 340.705,-424.319 287,-396 204.398,-352.443 152,-328.382 152,-235 152,-235 152,-235 152,-161 152,-93.5234 211.134,-93.7775 275,-72 427.603,-19.9639 1548.13,-18.0286 1891.36,-18.6762"></path>
<polygon fill="black" stroke="black" points="1891.52,-22.1764 1901.53,-18.6966 1891.53,-15.1764 1891.52,-22.1764"></polygon>
</g>
<!-- frm_Usage_10_7&#45;&gt;frm_Main_44_5 -->
<g id="edge286" class="edge"><title>frm_Usage_10_7-&gt;frm_Main_44_5</title>
<path fill="none" stroke="black" stroke-dasharray="1,5" d="M2542.15,-455.421C2438.95,-462.376 2258.92,-477.845 2199,-504 2176.16,-513.971 2178.81,-529.961 2156,-540 2100.58,-564.388 1937.35,-580.045 1837.67,-587.616"></path>
<polygon fill="black" stroke="black" points="1837.34,-584.13 1827.63,-588.367 1837.86,-591.111 1837.34,-584.13"></polygon>
</g>
<!-- frm_Usage_10_7&#45;&gt;FMUtils_5_2 -->
<g id="edge130" class="edge"><title>frm_Usage_10_7-&gt;FMUtils_5_2</title>
<path fill="none" stroke="black" d="M2539.67,-447.354C2353.77,-442.915 1885.87,-428.752 1733,-396 1721.96,-393.635 1553.24,-328.747 1543,-324 1513.04,-310.113 1508.68,-300.231 1478,-288 1431.16,-269.322 1375.65,-255.443 1334.21,-246.582"></path>
<polygon fill="black" stroke="black" points="1334.77,-243.123 1324.26,-244.493 1333.33,-249.973 1334.77,-243.123"></polygon>
</g>
<!-- frm_Usage_10_7&#45;&gt;frm_Places_13_4 -->
<g id="edge282" class="edge"><title>frm_Usage_10_7-&gt;frm_Places_13_4</title>
<path fill="none" stroke="black" stroke-dasharray="1,5" d="M2543.43,-456.144C2354.1,-469.008 1851.11,-502.478 1649.89,-515.605"></path>
<polygon fill="black" stroke="black" points="1649.43,-512.128 1639.67,-516.271 1649.88,-519.113 1649.43,-512.128"></polygon>
</g>
<!-- frm_Usage_10_7&#45;&gt;frm_Sources_13_5 -->
<g id="edge284" class="edge"><title>frm_Usage_10_7-&gt;frm_Sources_13_5</title>
<path fill="none" stroke="black" stroke-dasharray="1,5" d="M2583.21,-433.638C2564.2,-423.885 2540.68,-411.124 2521.83,-400.387"></path>
<polygon fill="black" stroke="black" points="2523.41,-397.257 2513,-395.301 2519.92,-403.323 2523.41,-397.257"></polygon>
</g>
<!-- frm_Usage_10_7&#45;&gt;frm_EditSource_17_8 -->
<g id="edge290" class="edge"><title>frm_Usage_10_7-&gt;frm_EditSource_17_8</title>
<path fill="none" stroke="black" stroke-dasharray="1,5" d="M2624.42,-431.621C2631.18,-421.833 2640.02,-408.992 2645,-396 2652.61,-376.164 2655.23,-352.189 2657.38,-334.122"></path>
<polygon fill="black" stroke="black" points="2660.88,-334.345 2658.67,-323.985 2653.94,-333.466 2660.88,-334.345"></polygon>
</g>
<!-- frm_Usage_10_7&#45;&gt;frm_Types_12_5 -->
<g id="edge292" class="edge"><title>frm_Usage_10_7-&gt;frm_Types_12_5</title>
<path fill="none" stroke="black" stroke-dasharray="1,5" d="M2657.35,-434.581C2692.42,-423.106 2743.49,-407.054 2782.76,-395.149"></path>
<polygon fill="black" stroke="black" points="2783.91,-398.458 2792.47,-392.217 2781.89,-391.757 2783.91,-398.458"></polygon>
</g>
<!-- frm_Usage_10_7&#45;&gt;dm_GenData_11_3 -->
<g id="edge288" class="edge"><title>frm_Usage_10_7-&gt;dm_GenData_11_3</title>
<path fill="none" stroke="black" stroke-dasharray="1,5" d="M2611.37,-431.842C2605.12,-413.598 2594.3,-384.109 2582,-360 2573.37,-343.086 2564.32,-342.225 2559,-324 2545.54,-277.924 2575.97,-261.269 2560,-216 2556.58,-206.312 2511.12,-148.721 2502,-144 2436.54,-110.127 1956.9,-96.8538 1748.84,-92.6506"></path>
<polygon fill="black" stroke="black" points="1748.61,-89.1453 1738.54,-92.4454 1748.47,-96.1439 1748.61,-89.1453"></polygon>
</g>
<!-- frm_Usage_10_7&#45;&gt;cls_Translation_2_0 -->
<g id="edge280" class="edge"><title>frm_Usage_10_7-&gt;cls_Translation_2_0</title>
<path fill="none" stroke="black" stroke-dasharray="1,5" d="M2687.18,-441.997C2750.56,-434.492 2845.91,-420.254 2926,-396 3001.41,-373.164 3018.81,-361.695 3088,-324 3151.43,-289.441 3224,-307.237 3224,-235 3224,-235 3224,-235 3224,-161 3224,-107.813 3192.07,-94.7635 3144,-72 3050.23,-27.5945 2353.54,-20.3497 2090.84,-19.202"></path>
<polygon fill="black" stroke="black" points="2090.56,-15.7009 2080.55,-19.1592 2090.53,-22.7009 2090.56,-15.7009"></polygon>
</g>
<!-- frm_Sources_13_5&#45;&gt;frm_Main_44_5 -->
<g id="edge294" class="edge"><title>frm_Sources_13_5-&gt;frm_Main_44_5</title>
<path fill="none" stroke="black" stroke-dasharray="1,5" d="M2423.35,-389.338C2376.51,-397.556 2312.7,-411.184 2259,-432 2236.54,-440.708 2093.66,-531.813 2071,-540 1994.83,-567.522 1902.66,-581.008 1837.87,-587.445"></path>
<polygon fill="black" stroke="black" points="1837.34,-583.98 1827.72,-588.418 1838.01,-590.948 1837.34,-583.98"></polygon>
</g>
<!-- frm_Sources_13_5&#45;&gt;FMUtils_5_2 -->
<g id="edge132" class="edge"><title>frm_Sources_13_5-&gt;FMUtils_5_2</title>
<path fill="none" stroke="black" d="M2420.03,-367.458C2295.93,-350.431 2026.69,-314.15 1799,-288 1635.47,-269.219 1442.92,-250.741 1342.26,-241.359"></path>
<polygon fill="black" stroke="black" points="1342.5,-237.866 1332.22,-240.425 1341.85,-244.836 1342.5,-237.866"></polygon>
</g>
<!-- frm_Sources_13_5&#45;&gt;frm_Usage_10_7 -->
<g id="edge300" class="edge"><title>frm_Sources_13_5-&gt;frm_Usage_10_7</title>
<path fill="none" stroke="black" stroke-dasharray="1,5" d="M2523.38,-394.666C2542.35,-404.412 2565.67,-417.073 2584.36,-427.721"></path>
<polygon fill="black" stroke="black" points="2582.7,-430.807 2593.11,-432.765 2586.19,-424.741 2582.7,-430.807"></polygon>
</g>
<!-- frm_Sources_13_5&#45;&gt;frm_EditSource_17_8 -->
<g id="edge302" class="edge"><title>frm_Sources_13_5-&gt;frm_EditSource_17_8</title>
<path fill="none" stroke="black" stroke-dasharray="1,5" d="M2522.34,-361.465C2547.57,-350.934 2582.6,-336.957 2611.68,-325.798"></path>
<polygon fill="black" stroke="black" points="2613.19,-328.966 2621.28,-322.131 2610.69,-322.426 2613.19,-328.966"></polygon>
</g>
<!-- frm_Sources_13_5&#45;&gt;dm_GenData_11_3 -->
<g id="edge298" class="edge"><title>frm_Sources_13_5-&gt;dm_GenData_11_3</title>
<path fill="none" stroke="black" stroke-dasharray="1,5" d="M2456.14,-361.334C2368.99,-320.325 2123.96,-208.543 1910,-144 1850.51,-126.053 1781.45,-112.184 1729.91,-103.143"></path>
<polygon fill="black" stroke="black" points="1730.29,-99.6572 1719.84,-101.399 1729.1,-106.555 1730.29,-99.6572"></polygon>
</g>
<!-- frm_Sources_13_5&#45;&gt;cls_Translation_2_0 -->
<g id="edge296" class="edge"><title>frm_Sources_13_5-&gt;cls_Translation_2_0</title>
<path fill="none" stroke="black" stroke-dasharray="1,5" d="M2550.79,-365.751C2630.32,-351.213 2759.59,-327.356 2770,-324 2805.96,-312.408 2812.13,-302.526 2847,-288 2889.83,-270.158 2904.58,-274.789 2945,-252 3023.8,-207.573 3102.33,-137.558 3040,-72 3007.57,-37.8891 2344.96,-24.3238 2089.89,-20.3527"></path>
<polygon fill="black" stroke="black" points="2089.94,-16.8532 2079.88,-20.1987 2089.83,-23.8523 2089.94,-16.8532"></polygon>
</g>
<!-- frm_Repositories_13_4&#45;&gt;frm_Main_44_5 -->
<g id="edge338" class="edge"><title>frm_Repositories_13_4-&gt;frm_Main_44_5</title>
<path fill="none" stroke="black" stroke-dasharray="1,5" d="M2239.06,-534.966C2227.05,-536.704 2214.7,-538.433 2203,-540 2073.9,-557.286 1923.01,-575.046 1833.91,-584.988"></path>
<polygon fill="black" stroke="black" points="1833.44,-581.519 1823.88,-586.102 1834.21,-588.476 1833.44,-581.519"></polygon>
</g>
<!-- frm_Repositories_13_4&#45;&gt;FMUtils_5_2 -->
<g id="edge136" class="edge"><title>frm_Repositories_13_4-&gt;FMUtils_5_2</title>
<path fill="none" stroke="black" d="M2210.74,-517.677C2104.39,-512.567 1931.14,-499.761 1785,-468 1687.76,-446.867 1665.08,-433.718 1573,-396 1504.94,-368.122 1488.85,-358.702 1424,-324 1383.03,-302.075 1337.21,-274.64 1306.9,-256.069"></path>
<polygon fill="black" stroke="black" points="1308.37,-252.862 1298.02,-250.606 1304.7,-258.825 1308.37,-252.862"></polygon>
</g>
<!-- frm_Repositories_13_4&#45;&gt;frm_Usage_10_7 -->
<g id="edge344" class="edge"><title>frm_Repositories_13_4-&gt;frm_Usage_10_7</title>
<path fill="none" stroke="black" stroke-dasharray="1,5" d="M2369.92,-507.337C2422.9,-495.257 2499.93,-477.694 2553.85,-465.398"></path>
<polygon fill="black" stroke="black" points="2554.67,-468.802 2563.64,-463.166 2553.11,-461.977 2554.67,-468.802"></polygon>
</g>
<!-- frm_Repositories_13_4&#45;&gt;dm_GenData_11_3 -->
<g id="edge342" class="edge"><title>frm_Repositories_13_4-&gt;dm_GenData_11_3</title>
<path fill="none" stroke="black" stroke-dasharray="1,5" d="M2293.14,-504.053C2234.14,-445.623 2029.35,-250.341 1825,-144 1792.47,-127.072 1753.62,-114.526 1721.08,-105.902"></path>
<polygon fill="black" stroke="black" points="1721.75,-102.461 1711.19,-103.351 1720,-109.239 1721.75,-102.461"></polygon>
</g>
<!-- frm_Repositories_13_4&#45;&gt;cls_Translation_2_0 -->
<g id="edge340" class="edge"><title>frm_Repositories_13_4-&gt;cls_Translation_2_0</title>
<path fill="none" stroke="black" stroke-dasharray="1,5" d="M2396.16,-512.287C2476.29,-503.504 2598.8,-488.342 2704,-468 2976.55,-415.299 3320.96,-408.915 3238,-144 3226.36,-106.821 3222.11,-90.8157 3188,-72 3093.19,-19.7096 2360.88,-17.4171 2090.7,-18.3841"></path>
<polygon fill="black" stroke="black" points="2090.5,-14.8848 2080.51,-18.4229 2090.53,-21.8847 2090.5,-14.8848"></polygon>
</g>
<!-- frm_EditSource_17_8&#45;&gt;frm_Main_44_5 -->
<g id="edge304" class="edge"><title>frm_EditSource_17_8-&gt;frm_Main_44_5</title>
<path fill="none" stroke="black" stroke-dasharray="1,5" d="M2677.87,-324.331C2700.14,-356.57 2740.16,-426.265 2704,-468 2630.5,-552.846 2553.26,-451.572 2454,-504 2434.81,-514.137 2440.5,-530.476 2421,-540 2369.98,-564.914 2006.47,-582.793 1839.95,-589.77"></path>
<polygon fill="black" stroke="black" points="1839.6,-586.281 1829.75,-590.193 1839.89,-593.275 1839.6,-586.281"></polygon>
</g>
<!-- frm_EditSource_17_8&#45;&gt;FMUtils_5_2 -->
<g id="edge134" class="edge"><title>frm_EditSource_17_8-&gt;FMUtils_5_2</title>
<path fill="none" stroke="black" d="M2573.13,-300.38C2313.36,-287.317 1577.34,-250.305 1344.53,-238.597"></path>
<polygon fill="black" stroke="black" points="1344.65,-235.099 1334.48,-238.092 1344.3,-242.09 1344.65,-235.099"></polygon>
</g>
<!-- frm_EditSource_17_8&#45;&gt;frm_Documents_12_3 -->
<g id="edge314" class="edge"><title>frm_EditSource_17_8-&gt;frm_Documents_12_3</title>
<path fill="none" stroke="black" stroke-dasharray="1,5" d="M2604.62,-291.834C2550.57,-280.046 2471.29,-262.758 2414.38,-250.347"></path>
<polygon fill="black" stroke="black" points="2414.9,-246.878 2404.38,-248.167 2413.4,-253.717 2414.9,-246.878"></polygon>
</g>
<!-- frm_EditSource_17_8&#45;&gt;frm_EditDocuments_13_5 -->
<g id="edge318" class="edge"><title>frm_EditSource_17_8-&gt;frm_EditDocuments_13_5</title>
<path fill="none" stroke="black" stroke-dasharray="1,5" d="M2682.91,-288.153C2709.71,-262.959 2760.31,-215.367 2790.81,-186.685"></path>
<polygon fill="black" stroke="black" points="2793.22,-189.225 2798.11,-179.825 2788.43,-184.126 2793.22,-189.225"></polygon>
</g>
<!-- frm_EditSource_17_8&#45;&gt;frm_ShowImage_11_1 -->
<g id="edge316" class="edge"><title>frm_EditSource_17_8-&gt;frm_ShowImage_11_1</title>
<path fill="none" stroke="black" stroke-dasharray="1,5" d="M2718.48,-290.963C2798.36,-268.794 2942.61,-223.693 2972,-180 2980.93,-166.723 2978.92,-158.427 2972,-144 2966.08,-131.646 2955.71,-121.26 2944.93,-113.048"></path>
<polygon fill="black" stroke="black" points="2946.85,-110.12 2936.67,-107.195 2942.81,-115.832 2946.85,-110.12"></polygon>
</g>
<!-- frm_EditSource_17_8&#45;&gt;frm_Usage_10_7 -->
<g id="edge312" class="edge"><title>frm_EditSource_17_8-&gt;frm_Usage_10_7</title>
<path fill="none" stroke="black" stroke-dasharray="1,5" d="M2671.94,-323.985C2674.09,-342.339 2672.14,-372.16 2663,-396 2659.1,-406.163 2652.85,-416.234 2646.09,-424.823"></path>
<polygon fill="black" stroke="black" points="2643.32,-422.671 2639.52,-432.559 2648.66,-427.203 2643.32,-422.671"></polygon>
</g>
<!-- frm_EditSource_17_8&#45;&gt;frm_Sources_13_5 -->
<g id="edge310" class="edge"><title>frm_EditSource_17_8-&gt;frm_Sources_13_5</title>
<path fill="none" stroke="black" stroke-dasharray="1,5" d="M2630.85,-322.873C2605.32,-333.515 2570.09,-347.561 2541.09,-358.677"></path>
<polygon fill="black" stroke="black" points="2539.61,-355.495 2531.51,-362.326 2542.1,-362.036 2539.61,-355.495"></polygon>
</g>
<!-- frm_EditSource_17_8&#45;&gt;dm_GenData_11_3 -->
<g id="edge308" class="edge"><title>frm_EditSource_17_8-&gt;dm_GenData_11_3</title>
<path fill="none" stroke="black" stroke-dasharray="1,5" d="M2654.16,-288.111C2629.38,-250.117 2568.26,-159.978 2536,-144 2466.95,-109.795 1963.38,-96.646 1749.1,-92.5621"></path>
<polygon fill="black" stroke="black" points="1748.87,-89.0573 1738.81,-92.3687 1748.74,-96.056 1748.87,-89.0573"></polygon>
</g>
<!-- frm_EditSource_17_8&#45;&gt;cls_Translation_2_0 -->
<g id="edge306" class="edge"><title>frm_EditSource_17_8-&gt;cls_Translation_2_0</title>
<path fill="none" stroke="black" stroke-dasharray="1,5" d="M2733.1,-293.201C2791.61,-282.418 2870.97,-266.06 2900,-252 2985.44,-210.621 3080.37,-140.841 3015,-72 2983.47,-38.7964 2341.03,-24.7279 2090.15,-20.4856"></path>
<polygon fill="black" stroke="black" points="2090,-16.9827 2079.94,-20.3148 2089.88,-23.9817 2090,-16.9827"></polygon>
</g>
<!-- frm_Types_12_5&#45;&gt;frm_Main_44_5 -->
<g id="edge320" class="edge"><title>frm_Types_12_5-&gt;frm_Main_44_5</title>
<path fill="none" stroke="black" stroke-dasharray="1,5" d="M2831.89,-396.245C2816.25,-416.895 2782.59,-450.842 2746,-468 2657.49,-509.509 2621.43,-472.147 2529,-504 2497.41,-514.887 2495.04,-530.522 2463,-540 2349.13,-573.686 2002.03,-586.842 1840.81,-591.171"></path>
<polygon fill="black" stroke="black" points="1840.37,-587.681 1830.47,-591.443 1840.56,-594.678 1840.37,-587.681"></polygon>
</g>
<!-- frm_Types_12_5&#45;&gt;frm_Usage_10_7 -->
<g id="edge326" class="edge"><title>frm_Types_12_5-&gt;frm_Usage_10_7</title>
<path fill="none" stroke="black" stroke-dasharray="1,5" d="M2799.44,-393.488C2764.48,-404.924 2713.73,-420.874 2674.59,-432.744"></path>
<polygon fill="black" stroke="black" points="2673.47,-429.427 2664.9,-435.669 2675.49,-436.129 2673.47,-429.427"></polygon>
</g>
<!-- frm_Types_12_5&#45;&gt;frm_EditTypes_10_4 -->
<g id="edge328" class="edge"><title>frm_Types_12_5-&gt;frm_EditTypes_10_4</title>
<path fill="none" stroke="black" stroke-dasharray="1,5" d="M2859.97,-360.588C2874.04,-350.953 2893.2,-338.67 2910.27,-328.295"></path>
<polygon fill="black" stroke="black" points="2912.2,-331.218 2918.97,-323.068 2908.59,-325.218 2912.2,-331.218"></polygon>
</g>
<!-- frm_Types_12_5&#45;&gt;dm_GenData_11_3 -->
<g id="edge324" class="edge"><title>frm_Types_12_5-&gt;dm_GenData_11_3</title>
<path fill="none" stroke="black" stroke-dasharray="1,5" d="M2828.97,-359.999C2816.19,-341.095 2793.83,-310.29 2770,-288 2707.88,-229.898 2679.5,-231.755 2612,-180 2592.49,-165.041 2592.8,-153.192 2570,-144 2495.34,-113.904 1967.97,-98.3116 1748.48,-93.0671"></path>
<polygon fill="black" stroke="black" points="1748.35,-89.5629 1738.27,-92.8251 1748.18,-96.561 1748.35,-89.5629"></polygon>
</g>
<!-- frm_Types_12_5&#45;&gt;cls_Translation_2_0 -->
<g id="edge322" class="edge"><title>frm_Types_12_5-&gt;cls_Translation_2_0</title>
<path fill="none" stroke="black" stroke-dasharray="1,5" d="M2899.56,-366.453C2953.04,-356.208 3026.88,-339.911 3052,-324 3149.35,-262.336 3204.87,-141.566 3113,-72 3072.56,-41.3805 2356.63,-25.5222 2089.99,-20.6576"></path>
<polygon fill="black" stroke="black" points="2090,-17.1572 2079.93,-20.4754 2089.87,-24.156 2090,-17.1572"></polygon>
</g>
<!-- frm_EditTypes_10_4&#45;&gt;frm_Main_44_5 -->
<g id="edge332" class="edge"><title>frm_EditTypes_10_4-&gt;frm_Main_44_5</title>
<path fill="none" stroke="black" stroke-dasharray="1,5" d="M2894.25,-320.44C2716.33,-363.381 2172.72,-494.988 2156,-504 2135.23,-515.191 2138.28,-529.829 2117,-540 2068.79,-563.039 1927.11,-578.772 1836.53,-586.795"></path>
<polygon fill="black" stroke="black" points="1836.22,-583.308 1826.57,-587.664 1836.83,-590.281 1836.22,-583.308"></polygon>
</g>
<!-- frm_EditTypes_10_4&#45;&gt;frm_Types_12_5 -->
<g id="edge330" class="edge"><title>frm_EditTypes_10_4-&gt;frm_Types_12_5</title>
<path fill="none" stroke="black" stroke-dasharray="1,5" d="M2929.71,-323.633C2915.5,-333.348 2896.22,-345.699 2879.13,-356.071"></path>
<polygon fill="black" stroke="black" points="2877.2,-353.145 2870.43,-361.291 2880.8,-359.148 2877.2,-353.145"></polygon>
</g>
<!-- frm_EditTypes_10_4&#45;&gt;dm_GenData_11_3 -->
<g id="edge336" class="edge"><title>frm_EditTypes_10_4-&gt;dm_GenData_11_3</title>
<path fill="none" stroke="black" stroke-dasharray="1,5" d="M2917.32,-289.013C2835.68,-249.128 2628.16,-148.124 2612,-144 2450.95,-102.899 1959.15,-93.6708 1749.41,-91.5993"></path>
<polygon fill="black" stroke="black" points="1749.37,-88.0989 1739.33,-91.5032 1749.3,-95.0986 1749.37,-88.0989"></polygon>
</g>
<!-- frm_EditTypes_10_4&#45;&gt;cls_Translation_2_0 -->
<g id="edge334" class="edge"><title>frm_EditTypes_10_4-&gt;cls_Translation_2_0</title>
<path fill="none" stroke="black" stroke-dasharray="1,5" d="M3020.82,-294.254C3045.65,-286.707 3071.06,-273.862 3086,-252 3131.14,-185.955 3141.18,-129.92 3086,-72 3051.95,-36.2629 2353.84,-23.64 2090.43,-20.1387"></path>
<polygon fill="black" stroke="black" points="2090.15,-16.6349 2080.11,-20.0033 2090.06,-23.6343 2090.15,-16.6349"></polygon>
</g>
<!-- frm_About_11_1&#45;&gt;cls_Translation_2_0 -->
<g id="edge346" class="edge"><title>frm_About_11_1-&gt;cls_Translation_2_0</title>
<path fill="none" stroke="black" stroke-dasharray="1,5" d="M3334.79,-503.955C3335.96,-477.302 3338,-424.132 3338,-379 3338,-379 3338,-379 3338,-161 3338,-95.6652 3282.45,-94.1995 3221,-72 3116.12,-34.1097 2364.84,-22.7745 2090.75,-19.879"></path>
<polygon fill="black" stroke="black" points="2090.45,-16.3758 2080.41,-19.7715 2090.37,-23.3755 2090.45,-16.3758"></polygon>
</g>
<!-- frm_SelectPerson_12_2&#45;&gt;dm_GenData_11_3 -->
<g id="edge356" class="edge"><title>frm_SelectPerson_12_2-&gt;dm_GenData_11_3</title>
<path fill="none" stroke="black" stroke-dasharray="1,5" d="M2315.18,-149.557C2300.86,-147.556 2285.98,-145.604 2272,-144 2084.84,-122.524 1864.93,-105.682 1744.08,-97.1475"></path>
<polygon fill="black" stroke="black" points="1743.99,-93.6326 1733.77,-96.4225 1743.5,-100.615 1743.99,-93.6326"></polygon>
</g>
<!-- frm_SelectPerson_12_2&#45;&gt;cls_Translation_2_0 -->
<g id="edge354" class="edge"><title>frm_SelectPerson_12_2-&gt;cls_Translation_2_0</title>
<path fill="none" stroke="black" stroke-dasharray="1,5" d="M2346.54,-145.533C2272.45,-119.166 2122.03,-65.6337 2042.68,-37.3933"></path>
<polygon fill="black" stroke="black" points="2043.5,-33.9682 2032.9,-33.9127 2041.15,-40.5631 2043.5,-33.9682"></polygon>
</g>
<!-- dm_GenData_11_3&#45;&gt;FMUtils_5_2 -->
<g id="edge152" class="edge"><title>dm_GenData_11_3-&gt;FMUtils_5_2</title>
<path fill="none" stroke="black" stroke-dasharray="1,5" d="M1578.22,-99.049C1503.88,-107.698 1395.94,-123.076 1359,-144 1332.09,-159.243 1310.08,-187.578 1294.73,-208.192"></path>
<polygon fill="black" stroke="black" points="1291.71,-206.379 1288.56,-216.494 1297.33,-210.554 1291.71,-206.379"></polygon>
</g>
<!-- dm_GenData_11_3&#45;&gt;cls_Translation_2_0 -->
<g id="edge154" class="edge"><title>dm_GenData_11_3-&gt;cls_Translation_2_0</title>
<path fill="none" stroke="black" stroke-dasharray="1,5" d="M1711.88,-76.8069C1770.1,-64.7477 1859.23,-46.2905 1921.04,-33.4895"></path>
<polygon fill="black" stroke="black" points="1922.01,-36.8616 1931.1,-31.4063 1920.59,-30.007 1922.01,-36.8616"></polygon>
</g>
</g>
</svg>